<svg width="232" height="76" viewBox="0 0 232 76" fill="none" xmlns="http://www.w3.org/2000/svg">
<rect x="0.5" width="231" height="76" rx="14" fill="#080808"/>
<path d="M67.2344 6H76.9183V65.788H67.2344V6Z" fill="white"/>
<path d="M110.6 46.8403C110.6 56.1033 103.021 56.9454 100.495 56.9454C94.6003 56.9454 93.7582 51.4718 93.7582 48.5245V25.3672H84.0742V48.1035C84.0742 53.577 85.7584 58.6295 89.1267 61.5768C92.074 64.5241 95.8634 65.7872 100.495 65.7872C103.863 65.7872 108.074 64.9452 110.6 62.4189V65.7872H120.284V25.3672H110.6V46.8403Z" fill="white"/>
<path d="M139.236 10.6309H129.552V25.3673H122.395V34.6303H129.552V65.7874H139.236V34.6303H146.394V25.3673H139.236V10.6309Z" fill="white"/>
<path d="M176.709 53.5773C174.604 55.2615 171.656 56.5246 168.709 56.5246C161.973 56.5246 157.341 51.4721 157.341 44.7354C157.341 37.9987 161.973 33.3673 168.709 33.3673C171.656 33.3673 174.604 34.2094 176.709 36.3146L177.972 37.5777L184.709 31.2621L183.025 29.9989C179.235 26.6306 174.183 24.5254 168.709 24.5254C156.92 24.5254 148.078 33.3673 148.078 45.1565C148.078 56.9456 156.92 65.7875 168.709 65.7875C174.183 65.7875 179.235 63.6823 183.025 60.314L184.709 59.0508L177.972 52.3142L176.709 53.5773Z" fill="white"/>
<path d="M218.809 28.7363C215.862 25.789 212.914 24.5259 208.283 24.5259C204.915 24.5259 201.546 25.3679 199.02 27.8942V6H189.336V65.788H199.02V43.4728C199.02 34.2098 205.336 33.3677 207.862 33.3677C213.756 33.3677 213.335 38.8413 213.335 41.7886V65.367H223.019V42.2096C223.019 36.7361 221.756 31.6836 218.809 28.7363Z" fill="white"/>
<path d="M168.284 51.8933C172.004 51.8933 175.02 48.8772 175.02 45.1566C175.02 41.436 172.004 38.4199 168.284 38.4199C164.563 38.4199 161.547 41.436 161.547 45.1566C161.547 48.8772 164.563 51.8933 168.284 51.8933Z" fill="#EF4335"/>
<path d="M53.7621 51.0503C50.3938 54.4186 45.3413 56.5238 39.8677 56.5238C29.3417 56.5238 21.7629 48.103 21.7629 36.7349C21.7629 25.3667 29.3417 16.9459 40.2888 16.9459C45.3413 16.9459 50.3938 19.0511 54.1832 22.8405L55.4463 24.1036L61.7619 17.7879L60.4988 16.5248C55.0253 11.0513 47.8675 8.10398 40.2888 8.10398C24.2892 7.68293 12.5 20.3142 12.5 36.7349C12.5 53.1555 24.2892 65.7868 39.8677 65.7868C47.4465 65.7868 55.0253 62.8395 60.0778 57.3659L61.3409 56.1028L55.0253 49.7872L53.7621 51.0503Z" fill="white"/>
</svg>
