<svg width="62" height="62" viewBox="0 0 62 62" fill="none" xmlns="http://www.w3.org/2000/svg">
<rect width="62" height="62" rx="14" fill="#191919"/>
<path d="M41.1379 39.5517C39.069 41.2069 36.1724 42.4483 33.2759 42.4483C26.6552 42.4483 22.1034 37.4828 22.1034 30.8621C22.1034 24.2414 26.6552 19.6896 33.2759 19.6896C36.1724 19.6896 39.069 20.5172 41.1379 22.5862L42.3793 23.8276L49 17.6207L47.3448 16.3793C43.6207 13.069 38.6552 11 33.2759 11C21.6897 11 13 19.6897 13 31.2759C13 42.8621 21.6897 51.5517 33.2759 51.5517C38.6552 51.5517 43.6207 49.4828 47.3448 46.1724L49 44.931L42.3793 38.3103L41.1379 39.5517Z" fill="white"/>
<path d="M32.8629 37.8967C36.5194 37.8967 39.4836 34.9325 39.4836 31.276C39.4836 27.6195 36.5194 24.6553 32.8629 24.6553C29.2064 24.6553 26.2422 27.6195 26.2422 31.276C26.2422 34.9325 29.2064 37.8967 32.8629 37.8967Z" fill="#EF4335"/>
</svg>
