<svg width="105" height="17" viewBox="0 0 105 17" fill="none" xmlns="http://www.w3.org/2000/svg">
<path d="M7.77602 1.35465C7.98919 0.934155 8.58976 0.934156 8.80293 1.35465L10.6314 4.96151C10.7151 5.12661 10.8731 5.24139 11.0559 5.26998L15.0513 5.89435C15.5171 5.96714 15.7027 6.53832 15.3686 6.87099L12.5033 9.72453C12.3722 9.85515 12.3118 10.0409 12.3411 10.2236L12.982 14.2164C13.0567 14.6819 12.5708 15.0349 12.1512 14.82L8.55187 12.9767C8.38711 12.8923 8.19183 12.8923 8.02707 12.9767L4.42777 14.82C4.00816 15.0349 3.52229 14.6819 3.59699 14.2164L4.23781 10.2236C4.26714 10.0409 4.2068 9.85515 4.07564 9.72453L1.21033 6.87099C0.876288 6.53832 1.06188 5.96714 1.52766 5.89435L5.52301 5.26998C5.70589 5.24139 5.86388 5.12661 5.94758 4.96151L7.77602 1.35465Z" fill="#FFCF27"/>
<path d="M29.8813 1.35465C30.0944 0.934155 30.695 0.934156 30.9082 1.35465L32.7366 4.96151C32.8203 5.12661 32.9783 5.24139 33.1612 5.26998L37.1565 5.89435C37.6223 5.96714 37.8079 6.53832 37.4739 6.87099L34.6086 9.72453C34.4774 9.85515 34.4171 10.0409 34.4464 10.2236L35.0872 14.2164C35.1619 14.6819 34.676 15.0349 34.2564 14.82L30.6571 12.9767C30.4924 12.8923 30.2971 12.8923 30.1323 12.9767L26.533 14.82C26.1134 15.0349 25.6275 14.6819 25.7022 14.2164L26.3431 10.2236C26.3724 10.0409 26.3121 9.85515 26.1809 9.72453L23.3156 6.87099C22.9815 6.53832 23.1671 5.96714 23.6329 5.89435L27.6283 5.26998C27.8111 5.24139 27.9691 5.12661 28.0528 4.96151L29.8813 1.35465Z" fill="#FFCF27"/>
<path d="M51.9865 1.35465C52.1997 0.934155 52.8003 0.934156 53.0134 1.35465L54.8419 4.96151C54.9256 5.12661 55.0836 5.24139 55.2664 5.26998L59.2618 5.89435C59.7276 5.96714 59.9132 6.53832 59.5791 6.87099L56.7138 9.72453C56.5827 9.85515 56.5223 10.0409 56.5516 10.2236L57.1925 14.2164C57.2672 14.6819 56.7813 15.0349 56.3617 14.82L52.7624 12.9767C52.5976 12.8923 52.4023 12.8923 52.2376 12.9767L48.6383 14.82C48.2187 15.0349 47.7328 14.6819 47.8075 14.2164L48.4483 10.2236C48.4777 10.0409 48.4173 9.85515 48.2861 9.72453L45.4208 6.87099C45.0868 6.53832 45.2724 5.96714 45.7382 5.89435L49.7335 5.26998C49.9164 5.24139 50.0744 5.12661 50.1581 4.96151L51.9865 1.35465Z" fill="#FFCF27"/>
<path d="M74.0918 1.35465C74.305 0.934155 74.9056 0.934156 75.1187 1.35465L76.9472 4.96151C77.0309 5.12661 77.1888 5.24139 77.3717 5.26998L81.3671 5.89435C81.8329 5.96714 82.0185 6.53832 81.6844 6.87099L78.8191 9.72453C78.6879 9.85515 78.6276 10.0409 78.6569 10.2236L79.2978 14.2164C79.3725 14.6819 78.8866 15.0349 78.467 14.82L74.8677 12.9767C74.7029 12.8923 74.5076 12.8923 74.3429 12.9767L70.7436 14.82C70.324 15.0349 69.8381 14.6819 69.9128 14.2164L70.5536 10.2236C70.5829 10.0409 70.5226 9.85515 70.3914 9.72453L67.5261 6.87099C67.1921 6.53832 67.3777 5.96714 67.8435 5.89435L71.8388 5.26998C72.0217 5.24139 72.1797 5.12661 72.2634 4.96151L74.0918 1.35465Z" fill="#FFCF27"/>
<path d="M96.1971 1.35465C96.4102 0.934155 97.0108 0.934156 97.224 1.35465L99.0524 4.96151C99.1361 5.12661 99.2941 5.24139 99.477 5.26998L103.472 5.89435C103.938 5.96714 104.124 6.53832 103.79 6.87099L100.924 9.72453C100.793 9.85515 100.733 10.0409 100.762 10.2236L101.403 14.2164C101.478 14.6819 100.992 15.0349 100.572 14.82L96.9729 12.9767C96.8082 12.8923 96.6129 12.8923 96.4481 12.9767L92.8488 14.82C92.4292 15.0349 91.9433 14.6819 92.018 14.2164L92.6589 10.2236C92.6882 10.0409 92.6278 9.85515 92.4967 9.72453L89.6314 6.87099C89.2973 6.53832 89.4829 5.96714 89.9487 5.89435L93.9441 5.26998C94.1269 5.24139 94.2849 5.12661 94.3686 4.96151L96.1971 1.35465Z" fill="#FFCF27"/>
</svg>
