<svg width="186" height="46" viewBox="0 0 186 46" fill="none" xmlns="http://www.w3.org/2000/svg">
<rect width="186" height="45.7996" rx="6" fill="#080808"/>
<g clip-path="url(#clip0_6301_462)">
<path d="M6.04883 6.04883V39.7509H39.6669V6.04883H6.04883ZM35.817 27.1156H25.2941V34.213H23.7226L23.4699 33.9557V25.0691L26.3049 22.2269L25.4481 21.3679L22.8578 23.9647L20.2676 21.3679L19.4108 22.2269L22.2498 25.073V33.9557L21.9971 34.213H20.4216V27.1156H9.89472V22.2269H16.9745L11.9006 17.1443L15.3437 13.6846L20.4216 18.7712V11.5906H25.2941V18.7712L30.372 13.6846L33.819 17.1443L28.7412 22.2269H35.817V27.1156Z" fill="white"/>
<path d="M35.8168 22.2269V27.1155H25.2939V34.213H23.7224L23.4697 33.9557V25.069L26.3047 22.2269L25.4479 21.3679L22.8576 23.9646L20.2674 21.3679L19.4106 22.2269L22.2496 25.073V33.9557L21.9969 34.213H20.4214V27.1155H9.89453V22.2269H16.9743L11.9004 17.1442L15.3435 13.6846L20.4214 18.7712V11.5906H25.2939V18.7712L30.3718 13.6846L33.8188 17.1442L28.741 22.2269H35.8168Z" fill="#111111"/>
<path d="M57.6132 14.2903C59.6743 14.2903 61.2696 14.698 62.3989 15.5095C63.5321 16.321 64.0967 17.4729 64.0967 18.9612C64.0967 20.0617 63.7927 20.9523 63.1846 21.6292C62.5765 22.3061 61.7157 22.7455 60.6023 22.9513C61.9171 23.1215 62.9359 23.5451 63.6545 24.222C64.3731 24.8989 64.7324 25.8489 64.7324 27.0641C64.7324 28.6237 64.1402 29.8429 62.9595 30.7336C61.7789 31.6242 60.1047 32.0676 57.9449 32.0676H50.877V14.2903H57.6132ZM54.6755 21.6055H57.7159C58.5253 21.6055 59.161 21.4115 59.6151 21.0196C60.0692 20.6317 60.2982 20.1052 60.2982 19.4442C60.2982 18.7831 60.0692 18.2606 59.6151 17.8687C59.161 17.4808 58.5253 17.2829 57.7159 17.2829H54.6755V21.6015V21.6055ZM54.6755 29.0473H57.9686C58.8807 29.0473 59.5835 28.8533 60.085 28.4614C60.5825 28.0735 60.8313 27.5312 60.8313 26.8345C60.8313 26.1378 60.5786 25.5441 60.0732 25.1443C59.5677 24.7445 58.8649 24.5466 57.9725 24.5466H54.6794V29.0394L54.6755 29.0473Z" fill="white"/>
<path d="M74.8887 19.0127V22.2626H73.4711C72.4564 22.2626 71.714 22.5674 71.2441 23.177C70.7703 23.7866 70.5334 24.6178 70.5334 25.6668V32.0676H66.96V19.0167H70.2017L70.5295 20.9721C70.9164 20.3309 71.3981 19.844 71.9746 19.5115C72.5472 19.1829 73.3171 19.0167 74.2806 19.0167H74.8887V19.0127Z" fill="white"/>
<path d="M88.9181 29.0434V32.0637H87.0939C85.4553 32.0637 84.6537 31.3512 84.6892 29.9301C84.2154 30.6743 83.635 31.2443 82.94 31.6322C82.249 32.0201 81.4119 32.218 80.4327 32.218C78.9796 32.218 77.8108 31.8855 76.9264 31.2166C76.0419 30.5476 75.5957 29.6055 75.5957 28.3863C75.5957 26.9969 76.1051 25.9281 77.1277 25.176C78.1504 24.4239 79.6311 24.0479 81.5738 24.0479H84.1562V23.4145C84.1562 22.8207 83.9351 22.3537 83.4968 22.0053C83.0585 21.657 82.4662 21.4868 81.7239 21.4868C81.0645 21.4868 80.5235 21.6293 80.101 21.9182C79.6785 22.2072 79.4258 22.5951 79.3389 23.086H75.8958C76.0142 21.748 76.6065 20.7109 77.6687 19.9746C78.7309 19.2384 80.1405 18.8702 81.8976 18.8702C83.6547 18.8702 85.1591 19.278 86.166 20.0894C87.1729 20.9009 87.6743 22.0805 87.6743 23.6203V28.2161C87.6743 28.5367 87.7415 28.7584 87.8757 28.8771C88.01 28.9959 88.2192 29.0553 88.5075 29.0553H88.9142L88.9181 29.0434ZM84.1562 26.4269H81.5462C80.8038 26.4269 80.2234 26.5733 79.8128 26.8702C79.3982 27.1671 79.1928 27.5867 79.1928 28.129C79.1928 28.5842 79.3666 28.9484 79.714 29.2215C80.0576 29.4907 80.5274 29.6292 81.1197 29.6292C82.0476 29.6292 82.7821 29.364 83.323 28.8296C83.864 28.2952 84.1404 27.5827 84.1601 26.6842V26.4308L84.1562 26.4269Z" fill="white"/>
<path d="M93.581 14.1518C93.9679 14.5318 94.1654 15.0108 94.1654 15.5847C94.1654 16.1587 93.9719 16.6416 93.581 17.0335C93.194 17.4215 92.7044 17.6194 92.1121 17.6194C91.5198 17.6194 91.0262 17.4254 90.6314 17.0335C90.2326 16.6456 90.0352 16.1627 90.0352 15.5847C90.0352 15.0068 90.2326 14.5318 90.6314 14.1518C91.0262 13.7718 91.5238 13.5818 92.1121 13.5818C92.7004 13.5818 93.194 13.7718 93.581 14.1518ZM90.3116 19.0127H93.885V32.0637H90.3116V19.0127Z" fill="white"/>
<path d="M107.587 20.2833C108.566 21.2333 109.056 22.7969 109.056 24.982V32.0676H105.486V25.1878C105.486 22.9355 104.61 21.8113 102.853 21.8113C101.925 21.8113 101.206 22.124 100.701 22.7494C100.195 23.3749 99.9387 24.2576 99.9387 25.3897V32.0676H96.3652V19.0166H99.4806L99.8084 20.6435C100.262 20.0854 100.811 19.65 101.455 19.3373C102.099 19.0245 102.892 18.8662 103.836 18.8662C105.356 18.8662 106.604 19.3412 107.583 20.2873L107.587 20.2833Z" fill="white"/>
<path d="M112.147 19.0127V17.8687C112.147 16.7168 112.475 15.8341 113.134 15.2166C113.794 14.599 114.773 14.2903 116.072 14.2903H118.986V17.3383H116.783C116.412 17.3383 116.139 17.4214 115.973 17.5916C115.803 17.7618 115.721 18.031 115.721 18.4031V19.0127H118.99V22.033H115.721V32.0636H112.147V22.033H109.995V19.0127H112.147Z" fill="white"/>
<path d="M122.595 31.3946C121.557 30.8444 120.755 30.0606 120.191 29.0473C119.626 28.03 119.342 26.8622 119.342 25.5441C119.342 24.2259 119.626 23.0542 120.191 22.0409C120.755 21.0236 121.557 20.2437 122.595 19.6935C123.634 19.1433 124.838 18.8662 126.204 18.8662C127.571 18.8662 128.775 19.1433 129.813 19.6935C130.852 20.2437 131.653 21.0275 132.218 22.0409C132.783 23.0582 133.067 24.2259 133.067 25.5441C133.067 26.8622 132.783 28.0537 132.218 29.0592C131.653 30.0686 130.852 30.8444 129.813 31.3946C128.775 31.9448 127.571 32.2219 126.204 32.2219C124.838 32.2219 123.634 31.9448 122.595 31.3946ZM128.574 28.2596C129.158 27.5668 129.446 26.6603 129.446 25.5441C129.446 24.4278 129.154 23.5213 128.574 22.8286C127.989 22.1359 127.199 21.7875 126.204 21.7875C125.209 21.7875 124.443 22.1359 123.863 22.8286C123.279 23.5213 122.99 24.4278 122.99 25.5441C122.99 26.6603 123.282 27.5668 123.863 28.2596C124.447 28.9523 125.225 29.3006 126.204 29.3006C127.184 29.3006 127.989 28.9523 128.574 28.2596Z" fill="white"/>
<path d="M142.974 19.0127V22.2626H141.556C140.541 22.2626 139.799 22.5674 139.325 23.177C138.851 23.7866 138.614 24.6178 138.614 25.6668V32.0676H135.041V19.0167H138.283L138.611 20.9721C138.997 20.3309 139.479 19.844 140.056 19.5115C140.628 19.1829 141.398 19.0167 142.362 19.0167H142.97L142.974 19.0127Z" fill="white"/>
<path d="M144.454 22.0251C145.003 21.0196 145.769 20.2398 146.76 19.6896C147.747 19.1394 148.892 18.8623 150.191 18.8623C151.49 18.8623 152.671 19.1196 153.674 19.6382C154.677 20.1567 155.463 20.8811 156.031 21.8232C156.596 22.7614 156.888 23.8658 156.904 25.1364C156.904 25.5916 156.868 25.9993 156.801 26.3556H147.352V26.4585C147.435 27.4085 147.739 28.1527 148.265 28.6911C148.786 29.2334 149.504 29.5025 150.416 29.5025C151.143 29.5025 151.747 29.3442 152.229 29.0315C152.711 28.7188 153.026 28.2556 153.18 27.646H156.703C156.568 28.509 156.237 29.2888 155.715 29.9815C155.19 30.6742 154.499 31.2205 153.639 31.6203C152.778 32.0201 151.791 32.218 150.673 32.218C149.22 32.218 147.968 31.9489 146.91 31.4065C145.852 30.8642 145.042 30.0884 144.478 29.083C143.913 28.0775 143.629 26.9019 143.629 25.5639C143.629 24.226 143.901 23.0305 144.454 22.0211V22.0251ZM153.331 24.0201C153.212 23.2245 152.888 22.6109 152.355 22.1795C151.822 21.748 151.151 21.5303 150.341 21.5303C149.532 21.5303 148.912 21.7559 148.379 22.2032C147.846 22.6505 147.53 23.2562 147.427 24.0201H153.331Z" fill="white"/>
<path d="M161.665 27.7253C161.717 28.2993 161.993 28.7663 162.502 29.1226C163.008 29.4789 163.659 29.657 164.453 29.657C165.247 29.657 165.811 29.5343 166.25 29.2889C166.688 29.0434 166.909 28.6911 166.909 28.2359C166.909 27.8955 166.806 27.6422 166.605 27.4719C166.404 27.3017 166.115 27.179 165.744 27.1038C165.373 27.0286 164.765 26.9376 163.92 26.8386C162.771 26.6882 161.819 26.4903 161.057 26.2528C160.295 26.0152 159.691 25.6432 159.233 25.1365C158.775 24.6298 158.55 23.9529 158.55 23.1058C158.55 22.2587 158.783 21.5106 159.245 20.8574C159.711 20.2043 160.362 19.7016 161.207 19.3453C162.052 18.989 163.024 18.8109 164.121 18.8109C165.894 18.8267 167.324 19.2107 168.413 19.9549C169.503 20.6991 170.088 21.7322 170.174 23.0543H166.779C166.727 22.5635 166.471 22.1597 166.005 21.847C165.539 21.5343 164.947 21.376 164.22 21.376C163.545 21.376 163 21.5026 162.585 21.756C162.171 22.0093 161.965 22.3497 161.965 22.7733C161.965 23.0781 162.076 23.3077 162.293 23.4581C162.514 23.6085 162.799 23.7194 163.154 23.7867C163.509 23.8539 164.102 23.9292 164.927 24.0162C166.684 24.2181 168.03 24.5942 168.966 25.1444C169.902 25.6946 170.372 26.6367 170.372 27.9747C170.372 28.8218 170.123 29.566 169.626 30.2112C169.128 30.8564 168.433 31.3512 167.549 31.6956C166.664 32.0439 165.638 32.2181 164.473 32.2181C162.664 32.2181 161.195 31.8143 160.066 31.0108C158.933 30.2072 158.337 29.1107 158.27 27.7213H161.665V27.7253Z" fill="white"/>
<path d="M173.267 22.0369H171.115V19.0166H173.267V15.359H176.841V19.0166H179.806V22.0369H176.841V27.7489C176.841 28.2041 176.939 28.5366 177.133 28.7385C177.326 28.9404 177.65 29.0433 178.108 29.0433H179.956V32.0636H176.995C174.511 32.0636 173.271 30.8206 173.271 28.3308V22.0329L173.267 22.0369Z" fill="white"/>
</g>
<defs>
<clipPath id="clip0_6301_462">
<rect width="173.902" height="33.702" fill="white" transform="translate(6.04883 6.04883)"/>
</clipPath>
</defs>
</svg>
