<svg width="22" height="22" viewBox="0 0 22 22" fill="none" xmlns="http://www.w3.org/2000/svg">
<path d="M0 3.34443C0 2.63656 0.247755 2.05259 0.743243 1.5925C1.23873 1.13239 1.88289 0.902344 2.67568 0.902344C3.45432 0.902344 4.08429 1.12884 4.56564 1.58188C5.06113 2.04906 5.30888 2.6578 5.30888 3.40814C5.30888 4.08767 5.06822 4.65394 4.58687 5.10698C4.09138 5.57416 3.44015 5.80775 2.6332 5.80775H2.61197C1.83333 5.80775 1.20335 5.57416 0.722008 5.10698C0.240662 4.6398 0 4.05227 0 3.34443ZM0.276062 21.9255V7.74018H4.99035V21.9255H0.276062ZM7.60232 21.9255H12.3166V14.0047C12.3166 13.5091 12.3732 13.1269 12.4865 12.8579C12.6847 12.3766 12.9855 11.9696 13.389 11.6369C13.7925 11.3042 14.2986 11.1379 14.9073 11.1379C16.4929 11.1379 17.2857 12.2067 17.2857 14.3444V21.9255H22V13.7923C22 11.6971 21.5045 10.1079 20.5135 9.02493C19.5225 7.94192 18.213 7.40041 16.5849 7.40041C14.7587 7.40041 13.3359 8.18613 12.3166 9.75756V9.80003H12.2954L12.3166 9.75756V7.74018H7.60232C7.63062 8.1932 7.64479 9.60181 7.64479 11.9661C7.64479 14.3303 7.63062 17.6501 7.60232 21.9255Z" fill="white"/>
</svg>
