<svg width="20" height="21" viewBox="0 0 20 21" fill="none" xmlns="http://www.w3.org/2000/svg">
<g clip-path="url(#clip0_6421_9388)">
<path d="M0 10.4141C0 8.60072 0.44668 6.9274 1.34 5.39406C2.23334 3.86072 3.44668 2.6474 4.98 1.75406C6.51334 0.860722 8.18668 0.414062 10 0.414062C11.8133 0.414062 13.4867 0.860722 15.02 1.75406C16.5533 2.6474 17.7667 3.86072 18.66 5.39406C19.5533 6.9274 20 8.60072 20 10.4141C20 12.2274 19.5533 13.9007 18.66 15.4341C17.7667 16.9674 16.5533 18.1807 15.02 19.0741C13.4867 19.9674 11.8133 20.4141 10 20.4141C8.18668 20.4141 6.51334 19.9674 4.98 19.0741C3.44668 18.1807 2.23334 16.9674 1.34 15.4341C0.44668 13.9007 0 12.2274 0 10.4141ZM1.66 10.4141C1.66 12.4941 2.36 14.3274 3.76 15.9141C4.4 14.6607 5.41334 13.4674 6.8 12.3341C8.18668 11.2007 9.54 10.4874 10.86 10.1941C10.66 9.7274 10.4667 9.3074 10.28 8.93406C7.98668 9.6674 5.50668 10.0341 2.84 10.0341C2.32 10.0341 1.93334 10.0274 1.68 10.0141C1.68 10.0674 1.67668 10.1341 1.67 10.2141C1.66334 10.2941 1.66 10.3607 1.66 10.4141ZM1.92 8.35406C2.21334 8.38072 2.64668 8.39406 3.22 8.39406C5.44668 8.39406 7.56 8.09406 9.56 7.49406C8.54668 5.69406 7.43334 4.19406 6.22 2.99406C5.16668 3.5274 4.26334 4.2674 3.51 5.21406C2.75668 6.16072 2.22668 7.2074 1.92 8.35406ZM4.9 16.9941C6.40668 18.1674 8.10668 18.7541 10 18.7541C10.9867 18.7541 11.9667 18.5674 12.94 18.1941C12.6733 15.9141 12.1533 13.7074 11.38 11.5741C10.1533 11.8407 8.91668 12.5141 7.67 13.5941C6.42334 14.6741 5.5 15.8074 4.9 16.9941ZM7.96 2.35406C9.13334 3.5674 10.22 5.08072 11.22 6.89406C13.0333 6.13406 14.4 5.1674 15.32 3.99406C13.7733 2.71406 12 2.07406 10 2.07406C9.32 2.07406 8.64 2.1674 7.96 2.35406ZM11.94 8.31406C12.14 8.74072 12.3667 9.28072 12.62 9.93406C13.6067 9.84072 14.68 9.79406 15.84 9.79406C16.6667 9.79406 17.4867 9.81406 18.3 9.85406C18.1933 8.04072 17.54 6.4274 16.34 5.01406C15.4733 6.3074 14.0067 7.4074 11.94 8.31406ZM13.12 11.3341C13.8 13.3074 14.26 15.3341 14.5 17.4141C15.5533 16.7341 16.4133 15.8607 17.08 14.7941C17.7467 13.7274 18.1467 12.5741 18.28 11.3341C17.3067 11.2674 16.42 11.2341 15.62 11.2341C14.8867 11.2341 14.0533 11.2674 13.12 11.3341Z" fill="white"/>
</g>
<defs>
<clipPath id="clip0_6421_9388">
<rect width="20" height="20" fill="white" transform="translate(0 0.414062)"/>
</clipPath>
</defs>
</svg>
