<svg width="24" height="17" viewBox="0 0 24 17" fill="none" xmlns="http://www.w3.org/2000/svg">
<path d="M9.68589 7.6088C9.68589 7.6088 11.9571 7.44019 11.9571 4.77685C11.9571 2.11333 10.099 0.813477 7.74523 0.813477H0V15.6976H7.74523C7.74523 15.6976 12.4734 15.847 12.4734 11.3045C12.4734 11.3046 12.6795 7.6088 9.68589 7.6088ZM7.18773 3.45897H7.74523C7.74523 3.45897 8.79803 3.45897 8.79803 5.0076C8.79803 6.55605 8.17887 6.78055 7.47658 6.78055H3.41265V3.45897H7.18773ZM7.52636 13.0522H3.41265V9.07463H7.74523C7.74523 9.07463 9.31438 9.05406 9.31438 11.1187C9.31438 12.8597 8.14238 13.0391 7.52636 13.0522ZM18.7792 4.60045C13.0553 4.60045 13.0604 10.3194 13.0604 10.3194C13.0604 10.3194 12.6676 16.009 18.7792 16.009C18.7792 16.009 23.8722 16.2999 23.8722 12.0511H21.253C21.253 12.0511 21.3403 13.6511 18.8666 13.6511C18.8666 13.6511 16.2469 13.8267 16.2469 11.0616H23.9596C23.9596 11.0616 24.8035 4.60045 18.7792 4.60045ZM16.2182 9.07463C16.2182 9.07463 16.538 6.7805 18.8374 6.7805C21.1364 6.7805 21.1076 9.07463 21.1076 9.07463H16.2182ZM21.7178 3.52322H15.5769V1.69034H21.7178V3.52322Z" fill="white"/>
</svg>
