<svg width="73" height="55" viewBox="0 0 73 55" fill="none" xmlns="http://www.w3.org/2000/svg">
<path d="M0.508144 4.88677C8.53801 3.99651 16.122 2.22669 24.0756 0.64815C24.1903 0.635432 25.0177 4.95635 24.4569 5.13465C21.8948 6.11545 19.0778 6.89225 16.3629 7.54162C26.7371 9.99123 36.6009 15.1683 45.4323 20.4597C57.5005 27.7148 67.7964 37.8372 72.1011 51.5269C72.445 52.5338 72.0622 54.3181 72.368 54.981C67.7957 40.9726 56.7222 31.1686 44.1058 24.2066C32.7129 17.8056 19.7394 11.8122 6.49688 11.7708C7.88589 12.778 9.27491 13.7852 10.1796 14.6139C12.8938 17.0999 15.506 19.7134 17.6975 22.7218C17.9778 23.1552 17.5696 24.7101 17.8372 25.0288C14.1163 21.8415 10.7013 18.272 6.77642 15.3396C4.24053 13.4144 1.43681 12.2156 0.723851 8.92714C0.545548 8.36629 0.0492942 4.93764 0.508144 4.88677Z" fill="#1C1C1C"/>
</svg>
