<svg width="172" height="46" viewBox="0 0 172 46" fill="none" xmlns="http://www.w3.org/2000/svg">
<rect width="172" height="46" rx="23" fill="#131111"/>
<rect x="0.5" y="0.5" width="171" height="45" rx="22.5" stroke="url(#paint0_linear_6421_6402)" stroke-opacity="0.25"/>
<circle cx="22.8672" cy="23" r="19" fill="white"/>
<path d="M60.2792 27.627L56.5132 23.273V27.627H54.9172V17.897H56.5132V22.335L60.2932 17.897H62.2952L58.0672 22.769L62.3652 27.627H60.2792ZM70.8466 23.581C70.8466 23.8703 70.8279 24.1316 70.7906 24.365H64.8966C64.9432 24.981 65.1719 25.4756 65.5826 25.849C65.9932 26.2223 66.4972 26.409 67.0946 26.409C67.9532 26.409 68.5599 26.0496 68.9146 25.331H70.6366C70.4032 26.0403 69.9786 26.6236 69.3626 27.081C68.7559 27.529 67.9999 27.753 67.0946 27.753C66.3572 27.753 65.6946 27.5896 65.1066 27.263C64.5279 26.927 64.0706 26.4603 63.7346 25.863C63.4079 25.2563 63.2446 24.5563 63.2446 23.763C63.2446 22.9696 63.4032 22.2743 63.7206 21.677C64.0472 21.0703 64.4999 20.6036 65.0786 20.277C65.6666 19.9503 66.3386 19.787 67.0946 19.787C67.8226 19.787 68.4712 19.9456 69.0406 20.263C69.6099 20.5803 70.0532 21.0283 70.3706 21.607C70.6879 22.1763 70.8466 22.8343 70.8466 23.581ZM69.1806 23.077C69.1712 22.489 68.9612 22.0176 68.5506 21.663C68.1399 21.3083 67.6312 21.131 67.0246 21.131C66.4739 21.131 66.0026 21.3083 65.6106 21.663C65.2186 22.0083 64.9852 22.4796 64.9106 23.077H69.1806ZM79.3612 19.913L74.6292 31.253H72.9772L74.5452 27.501L71.5072 19.913H73.2852L75.4552 25.793L77.7092 19.913H79.3612ZM87.4363 21.215H86.0083V27.627H84.3983V21.215H83.4883V19.913H84.3983V19.367C84.3983 18.4803 84.6317 17.8363 85.0983 17.435C85.5743 17.0243 86.3163 16.819 87.3243 16.819V18.149C86.839 18.149 86.4983 18.2423 86.3023 18.429C86.1063 18.6063 86.0083 18.919 86.0083 19.367V19.913H87.4363V21.215ZM95.9208 23.581C95.9208 23.8703 95.9021 24.1316 95.8648 24.365H89.9708C90.0174 24.981 90.2461 25.4756 90.6568 25.849C91.0674 26.2223 91.5714 26.409 92.1688 26.409C93.0274 26.409 93.6341 26.0496 93.9888 25.331H95.7108C95.4774 26.0403 95.0528 26.6236 94.4368 27.081C93.8301 27.529 93.0741 27.753 92.1688 27.753C91.4314 27.753 90.7688 27.5896 90.1808 27.263C89.6021 26.927 89.1448 26.4603 88.8088 25.863C88.4821 25.2563 88.3188 24.5563 88.3188 23.763C88.3188 22.9696 88.4774 22.2743 88.7948 21.677C89.1214 21.0703 89.5741 20.6036 90.1528 20.277C90.7408 19.9503 91.4128 19.787 92.1688 19.787C92.8968 19.787 93.5454 19.9456 94.1148 20.263C94.6841 20.5803 95.1274 21.0283 95.4448 21.607C95.7621 22.1763 95.9208 22.8343 95.9208 23.581ZM94.2548 23.077C94.2454 22.489 94.0354 22.0176 93.6248 21.663C93.2141 21.3083 92.7054 21.131 92.0988 21.131C91.5481 21.131 91.0768 21.3083 90.6848 21.663C90.2928 22.0083 90.0594 22.4796 89.9848 23.077H94.2548ZM96.9594 23.735C96.9594 22.9603 97.1181 22.2743 97.4354 21.677C97.7621 21.0796 98.2007 20.6176 98.7514 20.291C99.3114 19.955 99.9274 19.787 100.599 19.787C101.206 19.787 101.733 19.9083 102.181 20.151C102.639 20.3843 103.003 20.6783 103.273 21.033V19.913H104.883V27.627H103.273V26.479C103.003 26.843 102.634 27.1463 102.167 27.389C101.701 27.6316 101.169 27.753 100.571 27.753C99.9087 27.753 99.3021 27.585 98.7514 27.249C98.2007 26.9036 97.7621 26.4276 97.4354 25.821C97.1181 25.205 96.9594 24.5096 96.9594 23.735ZM103.273 23.763C103.273 23.231 103.161 22.769 102.937 22.377C102.723 21.985 102.438 21.6863 102.083 21.481C101.729 21.2756 101.346 21.173 100.935 21.173C100.525 21.173 100.142 21.2756 99.7874 21.481C99.4327 21.677 99.1434 21.971 98.9194 22.363C98.7047 22.7456 98.5974 23.203 98.5974 23.735C98.5974 24.267 98.7047 24.7336 98.9194 25.135C99.1434 25.5363 99.4327 25.8443 99.7874 26.059C100.151 26.2643 100.534 26.367 100.935 26.367C101.346 26.367 101.729 26.2643 102.083 26.059C102.438 25.8536 102.723 25.555 102.937 25.163C103.161 24.7616 103.273 24.295 103.273 23.763ZM108.842 21.215V25.485C108.842 25.7743 108.907 25.9843 109.038 26.115C109.178 26.2363 109.411 26.297 109.738 26.297H110.718V27.627H109.458C108.739 27.627 108.188 27.459 107.806 27.123C107.423 26.787 107.232 26.241 107.232 25.485V21.215H106.322V19.913H107.232V17.995H108.842V19.913H110.718V21.215H108.842ZM119.175 19.913V27.627H117.579V26.717C117.327 27.0343 116.995 27.2863 116.585 27.473C116.183 27.6503 115.754 27.739 115.297 27.739C114.69 27.739 114.144 27.613 113.659 27.361C113.183 27.109 112.805 26.7356 112.525 26.241C112.254 25.7463 112.119 25.149 112.119 24.449V19.913H113.701V24.211C113.701 24.9016 113.873 25.4336 114.219 25.807C114.564 26.171 115.035 26.353 115.633 26.353C116.23 26.353 116.701 26.171 117.047 25.807C117.401 25.4336 117.579 24.9016 117.579 24.211V19.913H119.175ZM122.876 21.033C123.11 20.641 123.418 20.3376 123.8 20.123C124.192 19.899 124.654 19.787 125.186 19.787V21.439H124.78C124.155 21.439 123.679 21.5976 123.352 21.915C123.035 22.2323 122.876 22.783 122.876 23.567V27.627H121.28V19.913H122.876V21.033ZM133.724 23.581C133.724 23.8703 133.705 24.1316 133.668 24.365H127.774C127.82 24.981 128.049 25.4756 128.46 25.849C128.87 26.2223 129.374 26.409 129.972 26.409C130.83 26.409 131.437 26.0496 131.792 25.331H133.514C133.28 26.0403 132.856 26.6236 132.24 27.081C131.633 27.529 130.877 27.753 129.972 27.753C129.234 27.753 128.572 27.5896 127.984 27.263C127.405 26.927 126.948 26.4603 126.612 25.863C126.285 25.2563 126.122 24.5563 126.122 23.763C126.122 22.9696 126.28 22.2743 126.598 21.677C126.924 21.0703 127.377 20.6036 127.956 20.277C128.544 19.9503 129.216 19.787 129.972 19.787C130.7 19.787 131.348 19.9456 131.918 20.263C132.487 20.5803 132.93 21.0283 133.248 21.607C133.565 22.1763 133.724 22.8343 133.724 23.581ZM132.058 23.077C132.048 22.489 131.838 22.0176 131.428 21.663C131.017 21.3083 130.508 21.131 129.902 21.131C129.351 21.131 128.88 21.3083 128.488 21.663C128.096 22.0083 127.862 22.4796 127.788 23.077H132.058ZM138.094 27.753C137.487 27.753 136.941 27.6456 136.456 27.431C135.98 27.207 135.602 26.9083 135.322 26.535C135.042 26.1523 134.893 25.7276 134.874 25.261H136.526C136.554 25.5876 136.708 25.863 136.988 26.087C137.277 26.3016 137.637 26.409 138.066 26.409C138.514 26.409 138.859 26.325 139.102 26.157C139.354 25.9796 139.48 25.7556 139.48 25.485C139.48 25.1956 139.34 24.981 139.06 24.841C138.789 24.701 138.355 24.547 137.758 24.379C137.179 24.2203 136.708 24.0663 136.344 23.917C135.98 23.7676 135.663 23.539 135.392 23.231C135.131 22.923 135 22.517 135 22.013C135 21.6023 135.121 21.229 135.364 20.893C135.607 20.5476 135.952 20.277 136.4 20.081C136.857 19.885 137.38 19.787 137.968 19.787C138.845 19.787 139.55 20.011 140.082 20.459C140.623 20.8976 140.913 21.4996 140.95 22.265H139.354C139.326 21.9196 139.186 21.6443 138.934 21.439C138.682 21.2336 138.341 21.131 137.912 21.131C137.492 21.131 137.17 21.2103 136.946 21.369C136.722 21.5276 136.61 21.7376 136.61 21.999C136.61 22.2043 136.685 22.377 136.834 22.517C136.983 22.657 137.165 22.769 137.38 22.853C137.595 22.9276 137.912 23.0256 138.332 23.147C138.892 23.2963 139.349 23.4503 139.704 23.609C140.068 23.7583 140.381 23.9823 140.642 24.281C140.903 24.5796 141.039 24.9763 141.048 25.471C141.048 25.9096 140.927 26.3016 140.684 26.647C140.441 26.9923 140.096 27.263 139.648 27.459C139.209 27.655 138.691 27.753 138.094 27.753Z" fill="white"/>
<path d="M22.5769 23.1722L22.5768 34.3444L14.5826 29.6801C13.6042 29.1089 13.0001 28.0531 13.0001 26.9146L13.0002 19.4258C13.0002 18.2873 13.6044 17.2315 14.5827 16.6603L22.5771 12L18.2036 23.4795C18.0399 23.9088 18.4297 24.3422 18.8702 24.2201L22.5808 23.1722L22.5769 23.1722Z" fill="#FF812E"/>
<path d="M23.4211 23.1736L23.4212 12.0015L31.4155 16.6657C32.3938 17.2369 32.9979 18.2927 32.9979 19.4312L32.9978 26.92C32.9978 28.0585 32.3936 29.1143 31.4153 29.6855L23.4209 34.3498L27.7983 22.8664C27.962 22.437 27.5722 22.0036 27.1357 22.1297L23.425 23.1776L23.4211 23.1736Z" fill="#FF812E"/>
<defs>
<linearGradient id="paint0_linear_6421_6402" x1="3.69756e-06" y1="1.265" x2="19.8587" y2="80.4019" gradientUnits="userSpaceOnUse">
<stop stop-color="white"/>
<stop offset="1" stop-color="white" stop-opacity="0"/>
</linearGradient>
</defs>
</svg>
