<svg width="233" height="181" viewBox="0 0 233 181" fill="none" xmlns="http://www.w3.org/2000/svg">
<rect y="5.24561" width="233" height="175" rx="16" fill="#131111"/>
<rect x="0.5" y="5.74561" width="232" height="174" rx="15.5" stroke="url(#paint0_linear_6421_6136)" stroke-opacity="0.25"/>
<mask id="mask0_6421_6136" style="mask-type:alpha" maskUnits="userSpaceOnUse" x="10" y="116" width="28" height="40">
<rect x="10.146" y="116.668" width="26.8845" height="39.0586" rx="7.10156" fill="#D9D9D9"/>
</mask>
<g mask="url(#mask0_6421_6136)">
<line x1="10.1896" y1="64.0945" x2="114.684" y2="126.321" stroke="#4E4E4E" stroke-width="0.760881"/>
<line x1="8.11332" y1="67.5813" x2="112.608" y2="129.807" stroke="#4E4E4E" stroke-width="0.760881"/>
<line x1="6.03706" y1="71.0677" x2="110.531" y2="133.294" stroke="#4E4E4E" stroke-width="0.760881"/>
<line x1="3.96077" y1="74.5545" x2="108.455" y2="136.78" stroke="#4E4E4E" stroke-width="0.760881"/>
<line x1="1.88447" y1="78.0413" x2="106.379" y2="140.267" stroke="#4E4E4E" stroke-width="0.760881"/>
<line x1="-0.191823" y1="81.5276" x2="104.302" y2="143.754" stroke="#4E4E4E" stroke-width="0.760881"/>
<line x1="-2.26809" y1="85.0144" x2="102.226" y2="147.24" stroke="#4E4E4E" stroke-width="0.760881"/>
<line x1="-4.34438" y1="88.5013" x2="100.15" y2="150.727" stroke="#4E4E4E" stroke-width="0.760881"/>
<line x1="-6.42067" y1="91.9876" x2="98.0735" y2="154.214" stroke="#4E4E4E" stroke-width="0.760881"/>
<line x1="-8.49694" y1="95.4744" x2="95.9973" y2="157.7" stroke="#4E4E4E" stroke-width="0.760881"/>
<line x1="-10.5732" y1="98.9607" x2="93.921" y2="161.187" stroke="#4E4E4E" stroke-width="0.760881"/>
<line x1="-12.6495" y1="102.448" x2="91.8447" y2="164.674" stroke="#4E4E4E" stroke-width="0.760881"/>
<line x1="-14.7257" y1="105.934" x2="89.7685" y2="168.16" stroke="#4E4E4E" stroke-width="0.760881"/>
<line x1="-16.8021" y1="109.421" x2="87.692" y2="171.647" stroke="#4E4E4E" stroke-width="0.760881"/>
<line x1="-18.8786" y1="112.908" x2="85.6156" y2="175.133" stroke="#4E4E4E" stroke-width="0.760881"/>
<line x1="-20.9547" y1="116.394" x2="83.5395" y2="178.62" stroke="#4E4E4E" stroke-width="0.760881"/>
<line x1="-23.031" y1="119.881" x2="81.4632" y2="182.107" stroke="#4E4E4E" stroke-width="0.760881"/>
<line x1="-25.1072" y1="123.367" x2="79.387" y2="185.593" stroke="#4E4E4E" stroke-width="0.760881"/>
<line x1="-27.1835" y1="126.854" x2="77.3107" y2="189.08" stroke="#4E4E4E" stroke-width="0.760881"/>
<line x1="-29.2598" y1="130.341" x2="75.2344" y2="192.567" stroke="#4E4E4E" stroke-width="0.760881"/>
<line x1="-31.3361" y1="133.827" x2="73.1581" y2="196.053" stroke="#4E4E4E" stroke-width="0.760881"/>
<line x1="-33.4124" y1="137.314" x2="71.0818" y2="199.54" stroke="#4E4E4E" stroke-width="0.760881"/>
<line x1="-35.4887" y1="140.801" x2="69.0055" y2="203.027" stroke="#4E4E4E" stroke-width="0.760881"/>
<line x1="-37.565" y1="144.287" x2="66.9292" y2="206.513" stroke="#4E4E4E" stroke-width="0.760881"/>
<line x1="-39.6413" y1="147.774" x2="64.8529" y2="210" stroke="#4E4E4E" stroke-width="0.760881"/>
<line x1="-41.7175" y1="151.261" x2="62.7766" y2="213.487" stroke="#4E4E4E" stroke-width="0.760881"/>
<line x1="-43.7938" y1="154.747" x2="60.7004" y2="216.973" stroke="#4E4E4E" stroke-width="0.760881"/>
</g>
<rect x="10.3981" y="116.922" width="26.3772" height="38.5513" rx="6.84793" stroke="url(#paint1_linear_6421_6136)" stroke-width="0.507254"/>
<rect x="10.1444" y="59.856" width="26.8845" height="54.7834" rx="7.10156" fill="#2C2C30"/>
<rect x="10.3981" y="60.1096" width="26.3772" height="54.2762" rx="6.84793" stroke="url(#paint2_linear_6421_6136)" stroke-opacity="0.2" stroke-width="0.507254"/>
<rect x="41.0888" y="65.9429" width="26.8845" height="35.5078" rx="7.10156" fill="#2C2C30"/>
<rect x="41.3424" y="66.1965" width="26.3772" height="35.0005" rx="6.84793" stroke="url(#paint3_linear_6421_6136)" stroke-opacity="0.2" stroke-width="0.507254"/>
<path d="M51.2332 71.0156H57.8275" stroke="white" stroke-opacity="0.3" stroke-width="1.01451" stroke-linecap="round"/>
<rect x="72.0299" y="96.3784" width="26.8845" height="34.4933" rx="7.10156" fill="#2C2C30"/>
<rect x="72.2836" y="96.632" width="26.3772" height="33.986" rx="6.84793" stroke="url(#paint4_linear_6421_6136)" stroke-opacity="0.2" stroke-width="0.507254"/>
<path d="M82.1744 101.451H88.7687" stroke="white" stroke-opacity="0.3" stroke-width="1.01451" stroke-linecap="round"/>
<rect x="102.971" y="80.146" width="26.8845" height="44.6384" rx="7.10156" fill="#2C2C30"/>
<rect x="103.225" y="80.3996" width="26.3772" height="44.1311" rx="6.84793" stroke="url(#paint5_linear_6421_6136)" stroke-opacity="0.2" stroke-width="0.507254"/>
<path d="M113.119 85.2188H119.713" stroke="white" stroke-opacity="0.3" stroke-width="1.01451" stroke-linecap="round"/>
<rect x="133.915" y="112.103" width="26.8845" height="43.6239" rx="7.10156" fill="#FFCF27"/>
<rect x="134.169" y="112.357" width="26.3772" height="43.1166" rx="6.84793" stroke="white" stroke-opacity="0.12" stroke-width="0.507254"/>
<rect x="134.169" y="112.357" width="26.3772" height="43.1166" rx="6.84793" stroke="url(#paint6_linear_6421_6136)" stroke-opacity="0.4" stroke-width="0.507254"/>
<rect x="133.915" y="44.6382" width="26.8845" height="65.4358" rx="7.10156" fill="#48C884"/>
<rect x="134.169" y="44.8918" width="26.3772" height="64.9285" rx="6.84793" stroke="white" stroke-opacity="0.12" stroke-width="0.507254"/>
<rect x="134.169" y="44.8918" width="26.3772" height="64.9285" rx="6.84793" stroke="url(#paint7_linear_6421_6136)" stroke-opacity="0.4" stroke-width="0.507254"/>
<rect x="164.857" y="89.7842" width="26.8845" height="43.1166" rx="7.10156" fill="#2C2C30"/>
<rect x="165.11" y="90.0378" width="26.3772" height="42.6093" rx="6.84793" stroke="url(#paint8_linear_6421_6136)" stroke-opacity="0.2" stroke-width="0.507254"/>
<rect x="195.801" y="63.9141" width="27.3917" height="50.7254" rx="7.10156" fill="#2C2C30"/>
<rect x="196.055" y="64.1677" width="26.8845" height="50.2182" rx="6.84793" stroke="url(#paint9_linear_6421_6136)" stroke-opacity="0.2" stroke-width="0.507254"/>
<mask id="mask1_6421_6136" style="mask-type:alpha" maskUnits="userSpaceOnUse" x="41" y="103" width="27" height="53">
<rect x="41.0894" y="103.48" width="26.8845" height="52.2472" rx="7.10156" fill="#D9D9D9"/>
</mask>
<g mask="url(#mask1_6421_6136)">
<line x1="40.9443" y1="42.0262" x2="145.439" y2="104.252" stroke="#4E4E4E" stroke-width="0.760881"/>
<line x1="38.8678" y1="45.5125" x2="143.362" y2="107.738" stroke="#4E4E4E" stroke-width="0.760881"/>
<line x1="36.7914" y1="48.9993" x2="141.286" y2="111.225" stroke="#4E4E4E" stroke-width="0.760881"/>
<line x1="34.7149" y1="52.4861" x2="139.209" y2="114.712" stroke="#4E4E4E" stroke-width="0.760881"/>
<line x1="32.6389" y1="55.9724" x2="137.133" y2="118.198" stroke="#4E4E4E" stroke-width="0.760881"/>
<line x1="30.5627" y1="59.4593" x2="135.057" y2="121.685" stroke="#4E4E4E" stroke-width="0.760881"/>
<line x1="28.4864" y1="62.9456" x2="132.981" y2="125.172" stroke="#4E4E4E" stroke-width="0.760881"/>
<line x1="26.4101" y1="66.4324" x2="130.904" y2="128.658" stroke="#4E4E4E" stroke-width="0.760881"/>
<line x1="24.3338" y1="69.9192" x2="128.828" y2="132.145" stroke="#4E4E4E" stroke-width="0.760881"/>
<line x1="22.2575" y1="73.4055" x2="126.752" y2="135.632" stroke="#4E4E4E" stroke-width="0.760881"/>
<line x1="20.1812" y1="76.8924" x2="124.675" y2="139.118" stroke="#4E4E4E" stroke-width="0.760881"/>
<line x1="18.1049" y1="80.3792" x2="122.599" y2="142.605" stroke="#4E4E4E" stroke-width="0.760881"/>
<line x1="16.0286" y1="83.8655" x2="120.523" y2="146.092" stroke="#4E4E4E" stroke-width="0.760881"/>
<line x1="13.9524" y1="87.3523" x2="118.447" y2="149.578" stroke="#4E4E4E" stroke-width="0.760881"/>
<line x1="11.8761" y1="90.8391" x2="116.37" y2="153.065" stroke="#4E4E4E" stroke-width="0.760881"/>
<line x1="9.79978" y1="94.3255" x2="114.294" y2="156.551" stroke="#4E4E4E" stroke-width="0.760881"/>
<line x1="7.72349" y1="97.8123" x2="112.218" y2="160.038" stroke="#4E4E4E" stroke-width="0.760881"/>
<line x1="5.64723" y1="101.299" x2="110.141" y2="163.525" stroke="#4E4E4E" stroke-width="0.760881"/>
<line x1="3.57093" y1="104.785" x2="108.065" y2="167.011" stroke="#4E4E4E" stroke-width="0.760881"/>
<line x1="1.49482" y1="108.272" x2="105.989" y2="170.498" stroke="#4E4E4E" stroke-width="0.760881"/>
<line x1="-0.581624" y1="111.759" x2="103.913" y2="173.985" stroke="#4E4E4E" stroke-width="0.760881"/>
<line x1="-2.6581" y1="115.245" x2="101.836" y2="177.471" stroke="#4E4E4E" stroke-width="0.760881"/>
<line x1="-4.73421" y1="118.732" x2="99.76" y2="180.958" stroke="#4E4E4E" stroke-width="0.760881"/>
<line x1="-6.81051" y1="122.219" x2="97.6837" y2="184.445" stroke="#4E4E4E" stroke-width="0.760881"/>
<line x1="-8.8868" y1="125.705" x2="95.6074" y2="187.931" stroke="#4E4E4E" stroke-width="0.760881"/>
<line x1="-10.9631" y1="129.192" x2="93.5311" y2="191.418" stroke="#4E4E4E" stroke-width="0.760881"/>
</g>
<rect x="41.3424" y="103.734" width="26.3772" height="51.7399" rx="6.84793" stroke="url(#paint10_linear_6421_6136)" stroke-width="0.507254"/>
<mask id="mask2_6421_6136" style="mask-type:alpha" maskUnits="userSpaceOnUse" x="72" y="132" width="27" height="24">
<rect x="72.0303" y="132.9" width="26.8845" height="22.8264" rx="7.10156" fill="#D9D9D9"/>
</mask>
<g mask="url(#mask2_6421_6136)">
<line x1="50.2023" y1="72.4554" x2="154.697" y2="134.681" stroke="#4E4E4E" stroke-width="0.760881"/>
<line x1="48.1259" y1="75.9422" x2="152.62" y2="138.168" stroke="#4E4E4E" stroke-width="0.760881"/>
<line x1="46.0499" y1="79.4285" x2="150.544" y2="141.654" stroke="#4E4E4E" stroke-width="0.760881"/>
<line x1="43.9736" y1="82.9153" x2="148.468" y2="145.141" stroke="#4E4E4E" stroke-width="0.760881"/>
<line x1="41.8973" y1="86.4016" x2="146.391" y2="148.628" stroke="#4E4E4E" stroke-width="0.760881"/>
<line x1="39.821" y1="89.8885" x2="144.315" y2="152.114" stroke="#4E4E4E" stroke-width="0.760881"/>
<line x1="37.7447" y1="93.3753" x2="142.239" y2="155.601" stroke="#4E4E4E" stroke-width="0.760881"/>
<line x1="35.6684" y1="96.8616" x2="140.163" y2="159.088" stroke="#4E4E4E" stroke-width="0.760881"/>
<line x1="33.5921" y1="100.348" x2="138.086" y2="162.574" stroke="#4E4E4E" stroke-width="0.760881"/>
<line x1="31.5159" y1="103.835" x2="136.01" y2="166.061" stroke="#4E4E4E" stroke-width="0.760881"/>
<line x1="29.4396" y1="107.322" x2="133.934" y2="169.548" stroke="#4E4E4E" stroke-width="0.760881"/>
<line x1="27.3633" y1="110.808" x2="131.857" y2="173.034" stroke="#4E4E4E" stroke-width="0.760881"/>
<line x1="25.287" y1="114.295" x2="129.781" y2="176.521" stroke="#4E4E4E" stroke-width="0.760881"/>
<line x1="23.2107" y1="117.782" x2="127.705" y2="180.008" stroke="#4E4E4E" stroke-width="0.760881"/>
<line x1="21.1344" y1="121.268" x2="125.629" y2="183.494" stroke="#4E4E4E" stroke-width="0.760881"/>
<line x1="19.0581" y1="124.755" x2="123.552" y2="186.981" stroke="#4E4E4E" stroke-width="0.760881"/>
<line x1="16.9819" y1="128.241" x2="121.476" y2="190.467" stroke="#4E4E4E" stroke-width="0.760881"/>
<line x1="14.9058" y1="131.728" x2="119.4" y2="193.954" stroke="#4E4E4E" stroke-width="0.760881"/>
</g>
<rect x="72.2836" y="133.154" width="26.3772" height="22.3192" rx="6.84793" stroke="url(#paint11_linear_6421_6136)" stroke-width="0.507254"/>
<mask id="mask3_6421_6136" style="mask-type:alpha" maskUnits="userSpaceOnUse" x="102" y="126" width="28" height="30">
<rect x="102.971" y="126.813" width="26.8845" height="28.9135" rx="7.10156" fill="#D9D9D9"/>
</mask>
<g mask="url(#mask3_6421_6136)">
<line x1="74.9735" y1="65.9309" x2="179.468" y2="128.157" stroke="#4E4E4E" stroke-width="0.760881"/>
<line x1="72.8972" y1="69.4178" x2="177.391" y2="131.644" stroke="#4E4E4E" stroke-width="0.760881"/>
<line x1="70.8209" y1="72.9041" x2="175.315" y2="135.13" stroke="#4E4E4E" stroke-width="0.760881"/>
<line x1="68.7446" y1="76.3909" x2="173.239" y2="138.617" stroke="#4E4E4E" stroke-width="0.760881"/>
<line x1="66.6686" y1="79.8777" x2="171.163" y2="142.104" stroke="#4E4E4E" stroke-width="0.760881"/>
<line x1="64.5922" y1="83.364" x2="169.086" y2="145.59" stroke="#4E4E4E" stroke-width="0.760881"/>
<line x1="62.5157" y1="86.8509" x2="167.01" y2="149.077" stroke="#4E4E4E" stroke-width="0.760881"/>
<line x1="60.4395" y1="90.3372" x2="164.934" y2="152.563" stroke="#4E4E4E" stroke-width="0.760881"/>
<line x1="58.3632" y1="93.824" x2="162.857" y2="156.05" stroke="#4E4E4E" stroke-width="0.760881"/>
<line x1="56.2869" y1="97.3108" x2="160.781" y2="159.537" stroke="#4E4E4E" stroke-width="0.760881"/>
<line x1="54.2106" y1="100.797" x2="158.705" y2="163.023" stroke="#4E4E4E" stroke-width="0.760881"/>
<line x1="52.1343" y1="104.284" x2="156.629" y2="166.51" stroke="#4E4E4E" stroke-width="0.760881"/>
<line x1="50.0581" y1="107.771" x2="154.552" y2="169.997" stroke="#4E4E4E" stroke-width="0.760881"/>
<line x1="47.9818" y1="111.257" x2="152.476" y2="173.483" stroke="#4E4E4E" stroke-width="0.760881"/>
<line x1="45.9055" y1="114.744" x2="150.4" y2="176.97" stroke="#4E4E4E" stroke-width="0.760881"/>
<line x1="43.8292" y1="118.231" x2="148.323" y2="180.457" stroke="#4E4E4E" stroke-width="0.760881"/>
<line x1="41.7529" y1="121.717" x2="146.247" y2="183.943" stroke="#4E4E4E" stroke-width="0.760881"/>
<line x1="39.6766" y1="125.204" x2="144.171" y2="187.43" stroke="#4E4E4E" stroke-width="0.760881"/>
<line x1="37.6004" y1="128.691" x2="142.095" y2="190.917" stroke="#4E4E4E" stroke-width="0.760881"/>
<line x1="35.5241" y1="132.177" x2="140.018" y2="194.403" stroke="#4E4E4E" stroke-width="0.760881"/>
<line x1="33.4478" y1="135.664" x2="137.942" y2="197.89" stroke="#4E4E4E" stroke-width="0.760881"/>
<line x1="31.3715" y1="139.15" x2="135.866" y2="201.376" stroke="#4E4E4E" stroke-width="0.760881"/>
<line x1="29.2952" y1="142.637" x2="133.789" y2="204.863" stroke="#4E4E4E" stroke-width="0.760881"/>
<line x1="27.2191" y1="146.124" x2="131.713" y2="208.35" stroke="#4E4E4E" stroke-width="0.760881"/>
<line x1="25.1427" y1="149.611" x2="129.637" y2="211.837" stroke="#4E4E4E" stroke-width="0.760881"/>
<line x1="23.0664" y1="153.097" x2="127.561" y2="215.323" stroke="#4E4E4E" stroke-width="0.760881"/>
</g>
<rect x="103.225" y="127.067" width="26.3772" height="28.4062" rx="6.84793" stroke="url(#paint12_linear_6421_6136)" stroke-width="0.507254"/>
<mask id="mask4_6421_6136" style="mask-type:alpha" maskUnits="userSpaceOnUse" x="164" y="134" width="28" height="22">
<rect x="164.856" y="134.93" width="26.8845" height="20.7974" rx="7.10156" fill="#D9D9D9"/>
</mask>
<g mask="url(#mask4_6421_6136)">
<line x1="138.793" y1="72.9041" x2="243.287" y2="135.13" stroke="#4E4E4E" stroke-width="0.760881"/>
<line x1="136.717" y1="76.3909" x2="241.211" y2="138.617" stroke="#4E4E4E" stroke-width="0.760881"/>
<line x1="134.641" y1="79.8777" x2="239.135" y2="142.104" stroke="#4E4E4E" stroke-width="0.760881"/>
<line x1="132.564" y1="83.364" x2="237.059" y2="145.59" stroke="#4E4E4E" stroke-width="0.760881"/>
<line x1="130.488" y1="86.8509" x2="234.982" y2="149.077" stroke="#4E4E4E" stroke-width="0.760881"/>
<line x1="128.412" y1="90.3372" x2="232.906" y2="152.563" stroke="#4E4E4E" stroke-width="0.760881"/>
<line x1="126.335" y1="93.824" x2="230.83" y2="156.05" stroke="#4E4E4E" stroke-width="0.760881"/>
<line x1="124.259" y1="97.3108" x2="228.753" y2="159.537" stroke="#4E4E4E" stroke-width="0.760881"/>
<line x1="122.183" y1="100.797" x2="226.677" y2="163.023" stroke="#4E4E4E" stroke-width="0.760881"/>
<line x1="120.107" y1="104.284" x2="224.601" y2="166.51" stroke="#4E4E4E" stroke-width="0.760881"/>
<line x1="118.03" y1="107.771" x2="222.525" y2="169.997" stroke="#4E4E4E" stroke-width="0.760881"/>
<line x1="115.954" y1="111.257" x2="220.448" y2="173.483" stroke="#4E4E4E" stroke-width="0.760881"/>
<line x1="113.878" y1="114.744" x2="218.372" y2="176.97" stroke="#4E4E4E" stroke-width="0.760881"/>
<line x1="111.801" y1="118.231" x2="216.296" y2="180.457" stroke="#4E4E4E" stroke-width="0.760881"/>
<line x1="109.725" y1="121.717" x2="214.219" y2="183.943" stroke="#4E4E4E" stroke-width="0.760881"/>
<line x1="107.649" y1="125.204" x2="212.143" y2="187.43" stroke="#4E4E4E" stroke-width="0.760881"/>
<line x1="105.573" y1="128.691" x2="210.067" y2="190.917" stroke="#4E4E4E" stroke-width="0.760881"/>
<line x1="103.496" y1="132.177" x2="207.991" y2="194.403" stroke="#4E4E4E" stroke-width="0.760881"/>
<line x1="101.42" y1="135.664" x2="205.914" y2="197.89" stroke="#4E4E4E" stroke-width="0.760881"/>
<line x1="99.3437" y1="139.15" x2="203.838" y2="201.376" stroke="#4E4E4E" stroke-width="0.760881"/>
<line x1="97.2675" y1="142.637" x2="201.762" y2="204.863" stroke="#4E4E4E" stroke-width="0.760881"/>
<line x1="95.1912" y1="146.124" x2="199.685" y2="208.35" stroke="#4E4E4E" stroke-width="0.760881"/>
<line x1="93.1149" y1="149.61" x2="197.609" y2="211.836" stroke="#4E4E4E" stroke-width="0.760881"/>
<line x1="91.0386" y1="153.097" x2="195.533" y2="215.323" stroke="#4E4E4E" stroke-width="0.760881"/>
</g>
<rect x="165.11" y="135.183" width="26.3772" height="20.2902" rx="6.84793" stroke="url(#paint13_linear_6421_6136)" stroke-width="0.507254"/>
<mask id="mask5_6421_6136" style="mask-type:alpha" maskUnits="userSpaceOnUse" x="195" y="116" width="29" height="40">
<rect x="195.803" y="116.668" width="27.3917" height="39.0586" rx="7.10156" fill="#D9D9D9"/>
</mask>
<g mask="url(#mask5_6421_6136)">
<line x1="160.846" y1="57.5003" x2="265.34" y2="119.726" stroke="#4E4E4E" stroke-width="0.760881"/>
<line x1="158.769" y1="60.9871" x2="263.263" y2="123.213" stroke="#4E4E4E" stroke-width="0.760881"/>
<line x1="156.693" y1="64.4734" x2="261.187" y2="126.699" stroke="#4E4E4E" stroke-width="0.760881"/>
<line x1="154.617" y1="67.9602" x2="259.111" y2="130.186" stroke="#4E4E4E" stroke-width="0.760881"/>
<line x1="152.54" y1="71.4471" x2="257.035" y2="133.673" stroke="#4E4E4E" stroke-width="0.760881"/>
<line x1="150.464" y1="74.9334" x2="254.958" y2="137.159" stroke="#4E4E4E" stroke-width="0.760881"/>
<line x1="148.388" y1="78.4202" x2="252.882" y2="140.646" stroke="#4E4E4E" stroke-width="0.760881"/>
<line x1="146.312" y1="81.907" x2="250.806" y2="144.133" stroke="#4E4E4E" stroke-width="0.760881"/>
<line x1="144.235" y1="85.3933" x2="248.729" y2="147.619" stroke="#4E4E4E" stroke-width="0.760881"/>
<line x1="142.159" y1="88.8802" x2="246.653" y2="151.106" stroke="#4E4E4E" stroke-width="0.760881"/>
<line x1="140.083" y1="92.3665" x2="244.577" y2="154.592" stroke="#4E4E4E" stroke-width="0.760881"/>
<line x1="138.006" y1="95.8533" x2="242.5" y2="158.079" stroke="#4E4E4E" stroke-width="0.760881"/>
<line x1="135.93" y1="99.3401" x2="240.424" y2="161.566" stroke="#4E4E4E" stroke-width="0.760881"/>
<line x1="133.854" y1="102.826" x2="238.348" y2="165.052" stroke="#4E4E4E" stroke-width="0.760881"/>
<line x1="131.778" y1="106.313" x2="236.272" y2="168.539" stroke="#4E4E4E" stroke-width="0.760881"/>
<line x1="129.701" y1="109.8" x2="234.195" y2="172.026" stroke="#4E4E4E" stroke-width="0.760881"/>
<line x1="127.625" y1="113.286" x2="232.119" y2="175.512" stroke="#4E4E4E" stroke-width="0.760881"/>
<line x1="125.549" y1="116.773" x2="230.043" y2="178.999" stroke="#4E4E4E" stroke-width="0.760881"/>
<line x1="123.472" y1="120.26" x2="227.967" y2="182.486" stroke="#4E4E4E" stroke-width="0.760881"/>
<line x1="121.396" y1="123.746" x2="225.89" y2="185.972" stroke="#4E4E4E" stroke-width="0.760881"/>
<line x1="119.32" y1="127.233" x2="223.814" y2="189.459" stroke="#4E4E4E" stroke-width="0.760881"/>
<line x1="117.244" y1="130.72" x2="221.738" y2="192.946" stroke="#4E4E4E" stroke-width="0.760881"/>
<line x1="115.167" y1="134.206" x2="219.661" y2="196.432" stroke="#4E4E4E" stroke-width="0.760881"/>
<line x1="113.091" y1="137.693" x2="217.585" y2="199.919" stroke="#4E4E4E" stroke-width="0.760881"/>
<line x1="111.015" y1="141.179" x2="215.509" y2="203.405" stroke="#4E4E4E" stroke-width="0.760881"/>
<line x1="108.938" y1="144.666" x2="213.433" y2="206.892" stroke="#4E4E4E" stroke-width="0.760881"/>
<line x1="106.862" y1="148.153" x2="211.356" y2="210.379" stroke="#4E4E4E" stroke-width="0.760881"/>
<line x1="104.786" y1="151.639" x2="209.28" y2="213.865" stroke="#4E4E4E" stroke-width="0.760881"/>
<line x1="102.71" y1="155.126" x2="207.204" y2="217.352" stroke="#4E4E4E" stroke-width="0.760881"/>
</g>
<rect x="196.055" y="116.922" width="26.8845" height="38.5513" rx="6.84793" stroke="url(#paint14_linear_6421_6136)" stroke-width="0.507254"/>
<path d="M20.2888 64.9287H26.8832" stroke="white" stroke-opacity="0.3" stroke-width="1.01451" stroke-linecap="round"/>
<path d="M175.004 94.8564H181.599" stroke="white" stroke-opacity="0.3" stroke-width="1.01451" stroke-linecap="round"/>
<path d="M205.945 68.9868H213.047" stroke="white" stroke-opacity="0.3" stroke-width="1.01451" stroke-linecap="round"/>
<path d="M22.5053 163.573V167.785H21.9514V164.644L20.5514 167.785H20.1618L18.7557 164.638V167.785H18.2018V163.573H18.7983L20.3566 167.055L21.9149 163.573H22.5053ZM24.8995 167.84C24.587 167.84 24.303 167.769 24.0473 167.627C23.7957 167.485 23.5969 167.284 23.4508 167.024C23.3088 166.761 23.2378 166.456 23.2378 166.111C23.2378 165.77 23.3108 165.47 23.4569 165.21C23.607 164.947 23.8099 164.746 24.0656 164.608C24.3212 164.466 24.6073 164.395 24.9239 164.395C25.2404 164.395 25.5265 164.466 25.7821 164.608C26.0378 164.746 26.2387 164.945 26.3848 165.204C26.5349 165.464 26.61 165.766 26.61 166.111C26.61 166.456 26.5329 166.761 26.3787 167.024C26.2285 167.284 26.0236 167.485 25.7639 167.627C25.5042 167.769 25.216 167.84 24.8995 167.84ZM24.8995 167.353C25.0984 167.353 25.285 167.306 25.4595 167.213C25.634 167.12 25.774 166.98 25.8795 166.793C25.9891 166.606 26.0439 166.379 26.0439 166.111C26.0439 165.843 25.9911 165.616 25.8856 165.429C25.7801 165.243 25.6421 165.105 25.4717 165.016C25.3013 164.922 25.1166 164.876 24.9178 164.876C24.7149 164.876 24.5282 164.922 24.3578 165.016C24.1914 165.105 24.0575 165.243 23.956 165.429C23.8546 165.616 23.8038 165.843 23.8038 166.111C23.8038 166.383 23.8525 166.612 23.9499 166.799C24.0514 166.986 24.1853 167.126 24.3517 167.219C24.5181 167.308 24.7007 167.353 24.8995 167.353ZM28.9635 164.389C29.3693 164.389 29.698 164.512 29.9496 164.76C30.2012 165.003 30.327 165.356 30.327 165.819V167.785H29.7792V165.898C29.7792 165.565 29.696 165.312 29.5296 165.137C29.3632 164.959 29.136 164.869 28.8479 164.869C28.5557 164.869 28.3224 164.961 28.1479 165.143C27.9774 165.326 27.8922 165.592 27.8922 165.941V167.785H27.3383V164.449H27.8922V164.924C28.0018 164.754 28.1499 164.622 28.3366 164.529C28.5273 164.435 28.7363 164.389 28.9635 164.389Z" fill="#A1A1A6"/>
<path d="M51.7964 163.542V163.993H50.6399V167.785H50.086V163.993H48.9233V163.542H51.7964ZM55.4366 164.449V167.785H54.8827V167.292C54.7772 167.463 54.629 167.596 54.4383 167.694C54.2516 167.787 54.0447 167.834 53.8174 167.834C53.5577 167.834 53.3244 167.781 53.1174 167.676C52.9105 167.566 52.7461 167.404 52.6244 167.189C52.5067 166.974 52.4478 166.712 52.4478 166.403V164.449H52.9957V166.33C52.9957 166.659 53.0789 166.913 53.2453 167.091C53.4116 167.266 53.6389 167.353 53.927 167.353C54.2232 167.353 54.4566 167.262 54.627 167.079C54.7974 166.896 54.8827 166.631 54.8827 166.282V164.449H55.4366ZM59.4154 165.989C59.4154 166.095 59.4093 166.207 59.3971 166.324H56.731C56.7513 166.653 56.8629 166.911 57.0658 167.097C57.2727 167.28 57.5223 167.371 57.8145 167.371C58.0539 167.371 58.2528 167.316 58.411 167.207C58.5733 167.093 58.687 166.943 58.7519 166.756H59.3484C59.2591 167.077 59.0806 167.339 58.8128 167.542C58.5449 167.741 58.2122 167.84 57.8145 167.84C57.498 167.84 57.2139 167.769 56.9623 167.627C56.7148 167.485 56.52 167.284 56.3779 167.024C56.2359 166.761 56.1649 166.456 56.1649 166.111C56.1649 165.766 56.2339 165.464 56.3719 165.204C56.5098 164.945 56.7026 164.746 56.9501 164.608C57.2017 164.466 57.4898 164.395 57.8145 164.395C58.131 164.395 58.411 164.464 58.6545 164.602C58.898 164.74 59.0847 164.93 59.2145 165.174C59.3484 165.413 59.4154 165.685 59.4154 165.989ZM58.8432 165.874C58.8432 165.663 58.7965 165.482 58.7032 165.332C58.6099 165.178 58.482 165.062 58.3197 164.985C58.1614 164.904 57.9849 164.863 57.7901 164.863C57.5101 164.863 57.2707 164.953 57.0719 165.131C56.8771 165.31 56.7655 165.557 56.7371 165.874H58.8432Z" fill="#A1A1A6"/>
<path d="M84.0055 163.542L82.7759 167.785H82.1551L81.169 164.37L80.1463 167.785L79.5315 167.791L78.3446 163.542H78.935L79.8602 167.14L80.8829 163.542H81.5038L82.4777 167.128L83.409 163.542H84.0055ZM87.6552 165.989C87.6552 166.095 87.6492 166.207 87.637 166.324H84.9708C84.9911 166.653 85.1027 166.911 85.3056 167.097C85.5126 167.28 85.7622 167.371 86.0543 167.371C86.2938 167.371 86.4926 167.316 86.6509 167.207C86.8132 167.093 86.9268 166.943 86.9917 166.756H87.5883C87.499 167.077 87.3205 167.339 87.0526 167.542C86.7848 167.741 86.452 167.84 86.0543 167.84C85.7378 167.84 85.4538 167.769 85.2022 167.627C84.9546 167.485 84.7598 167.284 84.6178 167.024C84.4758 166.761 84.4048 166.456 84.4048 166.111C84.4048 165.766 84.4737 165.464 84.6117 165.204C84.7497 164.945 84.9424 164.746 85.19 164.608C85.4416 164.466 85.7297 164.395 86.0543 164.395C86.3709 164.395 86.6509 164.464 86.8944 164.602C87.1378 164.74 87.3245 164.93 87.4544 165.174C87.5883 165.413 87.6552 165.685 87.6552 165.989ZM87.0831 165.874C87.0831 165.663 87.0364 165.482 86.9431 165.332C86.8497 165.178 86.7219 165.062 86.5596 164.985C86.4013 164.904 86.2248 164.863 86.03 164.863C85.75 164.863 85.5106 164.953 85.3117 165.131C85.1169 165.31 85.0053 165.557 84.9769 165.874H87.0831ZM88.1794 166.105C88.1794 165.764 88.2484 165.466 88.3864 165.21C88.5244 164.951 88.7131 164.75 88.9525 164.608C89.196 164.466 89.4679 164.395 89.7682 164.395C90.0279 164.395 90.2693 164.456 90.4925 164.577C90.7157 164.695 90.8861 164.851 91.0038 165.046V163.281H91.5638V167.785H91.0038V167.158C90.8943 167.357 90.7319 167.521 90.5169 167.651C90.3018 167.777 90.0502 167.84 89.7621 167.84C89.4658 167.84 89.196 167.767 88.9525 167.621C88.7131 167.475 88.5244 167.27 88.3864 167.006C88.2484 166.742 88.1794 166.442 88.1794 166.105ZM91.0038 166.111C91.0038 165.86 90.9531 165.64 90.8517 165.454C90.7502 165.267 90.6122 165.125 90.4377 165.028C90.2673 164.926 90.0786 164.876 89.8716 164.876C89.6647 164.876 89.476 164.924 89.3055 165.022C89.1351 165.119 88.9992 165.261 88.8977 165.448C88.7963 165.634 88.7455 165.854 88.7455 166.105C88.7455 166.361 88.7963 166.584 88.8977 166.775C88.9992 166.961 89.1351 167.105 89.3055 167.207C89.476 167.304 89.6647 167.353 89.8716 167.353C90.0786 167.353 90.2673 167.304 90.4377 167.207C90.6122 167.105 90.7502 166.961 90.8517 166.775C90.9531 166.584 91.0038 166.363 91.0038 166.111Z" fill="#A1A1A6"/>
<path d="M114.627 163.542V163.993H113.471V167.785H112.917V163.993H111.754V163.542H114.627ZM116.965 164.389C117.216 164.389 117.444 164.443 117.646 164.553C117.849 164.658 118.008 164.819 118.121 165.034C118.239 165.249 118.298 165.511 118.298 165.819V167.785H117.75V165.898C117.75 165.565 117.667 165.312 117.5 165.137C117.334 164.959 117.107 164.869 116.819 164.869C116.526 164.869 116.293 164.961 116.119 165.143C115.948 165.326 115.863 165.592 115.863 165.941V167.785H115.309V163.281H115.863V164.924C115.972 164.754 116.123 164.622 116.313 164.529C116.508 164.435 116.725 164.389 116.965 164.389ZM122.161 164.449V167.785H121.607V167.292C121.501 167.463 121.353 167.596 121.163 167.694C120.976 167.787 120.769 167.834 120.542 167.834C120.282 167.834 120.049 167.781 119.842 167.676C119.635 167.566 119.47 167.404 119.349 167.189C119.231 166.974 119.172 166.712 119.172 166.403V164.449H119.72V166.33C119.72 166.659 119.803 166.913 119.97 167.091C120.136 167.266 120.363 167.353 120.651 167.353C120.948 167.353 121.181 167.262 121.351 167.079C121.522 166.896 121.607 166.631 121.607 166.282V164.449H122.161Z" fill="#A1A1A6"/>
<path d="M147.009 163.542V163.993H145.164V165.423H146.662V165.874H145.164V167.785H144.611V163.542H147.009ZM148.232 164.991C148.329 164.8 148.467 164.652 148.646 164.547C148.828 164.441 149.049 164.389 149.309 164.389V164.961H149.163C148.542 164.961 148.232 165.298 148.232 165.971V167.785H147.678V164.449H148.232V164.991ZM150.235 163.908C150.129 163.908 150.04 163.871 149.967 163.798C149.894 163.725 149.857 163.636 149.857 163.53C149.857 163.425 149.894 163.336 149.967 163.262C150.04 163.189 150.129 163.153 150.235 163.153C150.336 163.153 150.421 163.189 150.49 163.262C150.563 163.336 150.6 163.425 150.6 163.53C150.6 163.636 150.563 163.725 150.49 163.798C150.421 163.871 150.336 163.908 150.235 163.908ZM150.503 164.449V167.785H149.949V164.449H150.503Z" fill="#A1A1A6"/>
<path d="M175.343 167.828C175.063 167.828 174.811 167.779 174.588 167.682C174.369 167.58 174.197 167.442 174.071 167.268C173.945 167.089 173.88 166.884 173.876 166.653H174.466C174.487 166.852 174.568 167.02 174.71 167.158C174.856 167.292 175.067 167.359 175.343 167.359C175.607 167.359 175.814 167.294 175.964 167.164C176.118 167.03 176.195 166.86 176.195 166.653C176.195 166.491 176.15 166.359 176.061 166.257C175.972 166.156 175.86 166.079 175.726 166.026C175.592 165.973 175.412 165.916 175.185 165.856C174.905 165.783 174.679 165.709 174.509 165.636C174.343 165.563 174.199 165.45 174.077 165.296C173.959 165.137 173.9 164.926 173.9 164.662C173.9 164.431 173.959 164.226 174.077 164.048C174.194 163.869 174.359 163.731 174.57 163.634C174.785 163.536 175.03 163.488 175.306 163.488C175.704 163.488 176.029 163.587 176.28 163.786C176.536 163.985 176.68 164.249 176.713 164.577H176.104C176.084 164.415 175.998 164.273 175.848 164.151C175.698 164.025 175.499 163.962 175.252 163.962C175.02 163.962 174.832 164.023 174.686 164.145C174.539 164.263 174.466 164.429 174.466 164.644C174.466 164.798 174.509 164.924 174.594 165.022C174.683 165.119 174.791 165.194 174.917 165.247C175.047 165.296 175.227 165.352 175.459 165.417C175.739 165.494 175.964 165.571 176.134 165.649C176.305 165.722 176.451 165.837 176.573 165.996C176.694 166.15 176.755 166.361 176.755 166.629C176.755 166.836 176.7 167.03 176.591 167.213C176.481 167.396 176.319 167.544 176.104 167.657C175.889 167.771 175.635 167.828 175.343 167.828ZM177.363 166.105C177.363 165.764 177.432 165.466 177.57 165.21C177.708 164.951 177.897 164.75 178.136 164.608C178.38 164.466 178.65 164.395 178.946 164.395C179.238 164.395 179.492 164.458 179.707 164.583C179.922 164.709 180.082 164.867 180.188 165.058V164.449H180.748V167.785H180.188V167.164C180.078 167.359 179.914 167.521 179.695 167.651C179.48 167.777 179.228 167.84 178.94 167.84C178.644 167.84 178.376 167.767 178.136 167.621C177.897 167.475 177.708 167.27 177.57 167.006C177.432 166.742 177.363 166.442 177.363 166.105ZM180.188 166.111C180.188 165.86 180.137 165.64 180.036 165.454C179.934 165.267 179.796 165.125 179.622 165.028C179.451 164.926 179.262 164.876 179.055 164.876C178.849 164.876 178.66 164.924 178.489 165.022C178.319 165.119 178.183 165.261 178.082 165.448C177.98 165.634 177.929 165.854 177.929 166.105C177.929 166.361 177.98 166.584 178.082 166.775C178.183 166.961 178.319 167.105 178.489 167.207C178.66 167.304 178.849 167.353 179.055 167.353C179.262 167.353 179.451 167.304 179.622 167.207C179.796 167.105 179.934 166.961 180.036 166.775C180.137 166.584 180.188 166.363 180.188 166.111ZM182.359 164.906V166.872C182.359 167.034 182.394 167.15 182.463 167.219C182.532 167.284 182.652 167.316 182.822 167.316H183.23V167.785H182.731C182.422 167.785 182.191 167.714 182.037 167.572C181.883 167.43 181.806 167.197 181.806 166.872V164.906H181.373V164.449H181.806V163.609H182.359V164.449H183.23V164.906H182.359Z" fill="#A1A1A6"/>
<path d="M206.051 167.828C205.771 167.828 205.52 167.779 205.296 167.682C205.077 167.58 204.905 167.442 204.779 167.268C204.653 167.089 204.588 166.884 204.584 166.653H205.175C205.195 166.852 205.276 167.02 205.418 167.158C205.564 167.292 205.775 167.359 206.051 167.359C206.315 167.359 206.522 167.294 206.672 167.164C206.826 167.03 206.903 166.86 206.903 166.653C206.903 166.491 206.859 166.359 206.769 166.257C206.68 166.156 206.569 166.079 206.435 166.026C206.301 165.973 206.12 165.916 205.893 165.856C205.613 165.783 205.388 165.709 205.217 165.636C205.051 165.563 204.907 165.45 204.785 165.296C204.667 165.137 204.609 164.926 204.609 164.662C204.609 164.431 204.667 164.226 204.785 164.048C204.903 163.869 205.067 163.731 205.278 163.634C205.493 163.536 205.739 163.488 206.015 163.488C206.412 163.488 206.737 163.587 206.989 163.786C207.244 163.985 207.388 164.249 207.421 164.577H206.812C206.792 164.415 206.707 164.273 206.556 164.151C206.406 164.025 206.207 163.962 205.96 163.962C205.729 163.962 205.54 164.023 205.394 164.145C205.248 164.263 205.175 164.429 205.175 164.644C205.175 164.798 205.217 164.924 205.303 165.022C205.392 165.119 205.499 165.194 205.625 165.247C205.755 165.296 205.936 165.352 206.167 165.417C206.447 165.494 206.672 165.571 206.843 165.649C207.013 165.722 207.159 165.837 207.281 165.996C207.403 166.15 207.463 166.361 207.463 166.629C207.463 166.836 207.409 167.03 207.299 167.213C207.19 167.396 207.027 167.544 206.812 167.657C206.597 167.771 206.343 167.828 206.051 167.828ZM211.237 164.449V167.785H210.683V167.292C210.577 167.463 210.429 167.596 210.239 167.694C210.052 167.787 209.845 167.834 209.618 167.834C209.358 167.834 209.125 167.781 208.918 167.676C208.711 167.566 208.546 167.404 208.425 167.189C208.307 166.974 208.248 166.712 208.248 166.403V164.449H208.796V166.33C208.796 166.659 208.879 166.913 209.046 167.091C209.212 167.266 209.439 167.353 209.727 167.353C210.024 167.353 210.257 167.262 210.427 167.079C210.598 166.896 210.683 166.631 210.683 166.282V164.449H211.237ZM213.797 164.389C214.203 164.389 214.532 164.512 214.783 164.76C215.035 165.003 215.161 165.356 215.161 165.819V167.785H214.613V165.898C214.613 165.565 214.53 165.312 214.363 165.137C214.197 164.959 213.97 164.869 213.682 164.869C213.39 164.869 213.156 164.961 212.982 165.143C212.811 165.326 212.726 165.592 212.726 165.941V167.785H212.172V164.449H212.726V164.924C212.836 164.754 212.984 164.622 213.17 164.529C213.361 164.435 213.57 164.389 213.797 164.389Z" fill="#A1A1A6"/>
<rect x="135.944" y="46.6675" width="22.8264" height="13.1886" rx="6.08705" fill="white"/>
<path d="M144.545 51.1883H142.052V52.8075C142.161 52.656 142.322 52.5329 142.535 52.4382C142.748 52.3388 142.978 52.2891 143.224 52.2891C143.617 52.2891 143.937 52.3719 144.183 52.5376C144.429 52.6986 144.604 52.9093 144.708 53.1696C144.817 53.4253 144.872 53.6975 144.872 53.9863C144.872 54.3272 144.808 54.6326 144.68 54.9024C144.552 55.1723 144.356 55.3853 144.091 55.5416C143.83 55.6978 143.506 55.7759 143.118 55.7759C142.621 55.7759 142.218 55.6481 141.91 55.3924C141.603 55.1368 141.416 54.7959 141.349 54.3698H141.981C142.043 54.6397 142.173 54.8504 142.372 55.0019C142.571 55.1534 142.822 55.2291 143.125 55.2291C143.499 55.2291 143.78 55.1178 143.97 54.8953C144.159 54.6681 144.254 54.3698 144.254 54.0005C144.254 53.6313 144.159 53.3472 143.97 53.1483C143.78 52.9448 143.501 52.843 143.132 52.843C142.881 52.843 142.661 52.9045 142.471 53.0276C142.287 53.146 142.152 53.3093 142.067 53.5176H141.456V50.6202H144.545V51.1883ZM148.592 51.8488C148.488 51.3232 148.164 51.0605 147.62 51.0605C147.198 51.0605 146.883 51.2238 146.675 51.5505C146.467 51.8724 146.365 52.405 146.37 53.1483C146.479 52.9022 146.658 52.7104 146.909 52.5731C147.165 52.4311 147.449 52.3601 147.762 52.3601C148.249 52.3601 148.637 52.5116 148.926 52.8146C149.22 53.1176 149.367 53.5366 149.367 54.0715C149.367 54.3935 149.303 54.6823 149.175 54.9379C149.052 55.1936 148.862 55.3972 148.607 55.5487C148.356 55.7002 148.05 55.7759 147.691 55.7759C147.203 55.7759 146.822 55.667 146.547 55.4493C146.273 55.2315 146.081 54.9308 145.972 54.5474C145.863 54.1639 145.809 53.6904 145.809 53.127C145.809 51.3895 146.415 50.5208 147.627 50.5208C148.091 50.5208 148.455 50.6462 148.72 50.8972C148.985 51.1481 149.142 51.4653 149.189 51.8488H148.592ZM147.627 52.9069C147.423 52.9069 147.231 52.9495 147.051 53.0347C146.872 53.1152 146.725 53.2407 146.611 53.4111C146.502 53.5768 146.448 53.7804 146.448 54.0218C146.448 54.3816 146.552 54.6752 146.76 54.9024C146.969 55.1249 147.267 55.2362 147.655 55.2362C147.986 55.2362 148.249 55.1344 148.443 54.9308C148.642 54.7225 148.742 54.4432 148.742 54.0929C148.742 53.7236 148.647 53.4348 148.458 53.2265C148.268 53.0134 147.991 52.9069 147.627 52.9069ZM150.16 55.2433C150.762 54.7604 151.233 54.3651 151.573 54.0573C151.914 53.7449 152.201 53.4206 152.433 53.0844C152.669 52.7436 152.788 52.4098 152.788 52.0831C152.788 51.7754 152.712 51.5339 152.561 51.3588C152.414 51.1788 152.175 51.0889 151.843 51.0889C151.521 51.0889 151.27 51.1907 151.091 51.3943C150.915 51.5931 150.821 51.8606 150.807 52.1967H150.182C150.201 51.6665 150.361 51.257 150.664 50.9682C150.967 50.6794 151.358 50.535 151.836 50.535C152.324 50.535 152.71 50.6699 152.994 50.9398C153.283 51.2096 153.427 51.5813 153.427 52.0547C153.427 52.4477 153.309 52.8311 153.072 53.2052C152.84 53.5744 152.575 53.9011 152.277 54.1852C151.978 54.4645 151.597 54.7912 151.133 55.1652H153.576V55.7049H150.16V55.2433Z" fill="black"/>
<rect x="135.944" y="114.132" width="22.8264" height="13.1886" rx="6.08705" fill="white"/>
<path d="M141.183 122.708C141.784 122.225 142.255 121.83 142.596 121.522C142.937 121.21 143.223 120.885 143.455 120.549C143.692 120.208 143.81 119.875 143.81 119.548C143.81 119.24 143.735 118.999 143.583 118.824C143.436 118.644 143.197 118.554 142.866 118.554C142.544 118.554 142.293 118.656 142.113 118.859C141.938 119.058 141.843 119.325 141.829 119.662H141.204C141.223 119.131 141.384 118.722 141.687 118.433C141.99 118.144 142.381 118 142.859 118C143.346 118 143.732 118.135 144.016 118.405C144.305 118.674 144.449 119.046 144.449 119.52C144.449 119.913 144.331 120.296 144.094 120.67C143.862 121.039 143.597 121.366 143.299 121.65C143.001 121.929 142.62 122.256 142.156 122.63H144.599V123.17H141.183V122.708ZM146.283 120.556C146.018 120.452 145.814 120.301 145.672 120.102C145.53 119.903 145.459 119.662 145.459 119.378C145.459 119.122 145.523 118.892 145.651 118.689C145.779 118.48 145.968 118.317 146.219 118.199C146.475 118.076 146.783 118.014 147.142 118.014C147.502 118.014 147.808 118.076 148.058 118.199C148.314 118.317 148.506 118.48 148.634 118.689C148.766 118.892 148.833 119.122 148.833 119.378C148.833 119.652 148.759 119.894 148.612 120.102C148.466 120.305 148.264 120.457 148.009 120.556C148.302 120.646 148.534 120.805 148.705 121.032C148.88 121.255 148.967 121.525 148.967 121.842C148.967 122.149 148.892 122.419 148.74 122.651C148.589 122.879 148.373 123.056 148.094 123.184C147.819 123.307 147.502 123.369 147.142 123.369C146.783 123.369 146.465 123.307 146.191 123.184C145.921 123.056 145.71 122.879 145.559 122.651C145.407 122.419 145.331 122.149 145.331 121.842C145.331 121.525 145.417 121.252 145.587 121.025C145.758 120.798 145.99 120.642 146.283 120.556ZM148.208 119.456C148.208 119.167 148.113 118.944 147.924 118.788C147.734 118.632 147.474 118.554 147.142 118.554C146.816 118.554 146.558 118.632 146.368 118.788C146.179 118.944 146.084 119.169 146.084 119.463C146.084 119.728 146.181 119.941 146.375 120.102C146.574 120.263 146.83 120.343 147.142 120.343C147.46 120.343 147.715 120.263 147.909 120.102C148.108 119.936 148.208 119.721 148.208 119.456ZM147.142 120.84C146.792 120.84 146.506 120.923 146.283 121.089C146.061 121.25 145.949 121.494 145.949 121.82C145.949 122.123 146.056 122.367 146.269 122.552C146.487 122.737 146.778 122.829 147.142 122.829C147.507 122.829 147.796 122.737 148.009 122.552C148.222 122.367 148.328 122.123 148.328 121.82C148.328 121.503 148.219 121.262 148.002 121.096C147.784 120.926 147.497 120.84 147.142 120.84ZM152.688 119.314C152.584 118.788 152.259 118.525 151.715 118.525C151.293 118.525 150.979 118.689 150.77 119.015C150.562 119.337 150.46 119.87 150.465 120.613C150.574 120.367 150.754 120.175 151.005 120.038C151.26 119.896 151.544 119.825 151.857 119.825C152.344 119.825 152.733 119.976 153.021 120.279C153.315 120.582 153.462 121.001 153.462 121.536C153.462 121.858 153.398 122.147 153.27 122.403C153.147 122.658 152.958 122.862 152.702 123.014C152.451 123.165 152.146 123.241 151.786 123.241C151.298 123.241 150.917 123.132 150.642 122.914C150.368 122.696 150.176 122.396 150.067 122.012C149.958 121.629 149.904 121.155 149.904 120.592C149.904 118.854 150.51 117.986 151.722 117.986C152.186 117.986 152.55 118.111 152.815 118.362C153.081 118.613 153.237 118.93 153.284 119.314H152.688ZM151.722 120.372C151.518 120.372 151.327 120.414 151.147 120.5C150.967 120.58 150.82 120.706 150.706 120.876C150.597 121.042 150.543 121.245 150.543 121.487C150.543 121.846 150.647 122.14 150.855 122.367C151.064 122.59 151.362 122.701 151.75 122.701C152.082 122.701 152.344 122.599 152.539 122.396C152.737 122.187 152.837 121.908 152.837 121.558C152.837 121.188 152.742 120.9 152.553 120.691C152.363 120.478 152.086 120.372 151.722 120.372Z" fill="black"/>
<defs>
<linearGradient id="paint0_linear_6421_6136" x1="5.0089e-06" y1="10.0581" x2="150.691" y2="223.884" gradientUnits="userSpaceOnUse">
<stop stop-color="white"/>
<stop offset="1" stop-color="white" stop-opacity="0"/>
</linearGradient>
<linearGradient id="paint1_linear_6421_6136" x1="23.333" y1="134.676" x2="23.333" y2="115.4" gradientUnits="userSpaceOnUse">
<stop stop-color="#161618"/>
<stop offset="1" stop-color="#626262"/>
</linearGradient>
<linearGradient id="paint2_linear_6421_6136" x1="10.509" y1="61.3169" x2="25.8648" y2="78.7282" gradientUnits="userSpaceOnUse">
<stop stop-color="white"/>
<stop offset="1" stop-color="white" stop-opacity="0"/>
</linearGradient>
<linearGradient id="paint3_linear_6421_6136" x1="41.4533" y1="66.8897" x2="50.0974" y2="82.0115" gradientUnits="userSpaceOnUse">
<stop stop-color="white"/>
<stop offset="1" stop-color="white" stop-opacity="0"/>
</linearGradient>
<linearGradient id="paint4_linear_6421_6136" x1="72.3945" y1="97.2982" x2="80.6664" y2="112.195" gradientUnits="userSpaceOnUse">
<stop stop-color="white"/>
<stop offset="1" stop-color="white" stop-opacity="0"/>
</linearGradient>
<linearGradient id="paint5_linear_6421_6136" x1="103.336" y1="81.3364" x2="115.288" y2="97.969" gradientUnits="userSpaceOnUse">
<stop stop-color="white"/>
<stop offset="1" stop-color="white" stop-opacity="0"/>
</linearGradient>
<linearGradient id="paint6_linear_6421_6136" x1="134.28" y1="113.266" x2="145.873" y2="129.774" gradientUnits="userSpaceOnUse">
<stop stop-color="white"/>
<stop offset="1" stop-color="white" stop-opacity="0"/>
</linearGradient>
<linearGradient id="paint7_linear_6421_6136" x1="134.28" y1="46.3831" x2="152.742" y2="63.9083" gradientUnits="userSpaceOnUse">
<stop stop-color="white"/>
<stop offset="1" stop-color="white" stop-opacity="0"/>
</linearGradient>
<linearGradient id="paint8_linear_6421_6136" x1="165.221" y1="90.934" x2="176.633" y2="107.375" gradientUnits="userSpaceOnUse">
<stop stop-color="white"/>
<stop offset="1" stop-color="white" stop-opacity="0"/>
</linearGradient>
<linearGradient id="paint9_linear_6421_6136" x1="196.172" y1="65.2667" x2="210.159" y2="82.7178" gradientUnits="userSpaceOnUse">
<stop stop-color="white"/>
<stop offset="1" stop-color="white" stop-opacity="0"/>
</linearGradient>
<linearGradient id="paint10_linear_6421_6136" x1="54.2774" y1="127.568" x2="54.2774" y2="101.784" gradientUnits="userSpaceOnUse">
<stop stop-color="#161618"/>
<stop offset="1" stop-color="#626262"/>
</linearGradient>
<linearGradient id="paint11_linear_6421_6136" x1="85.2185" y1="143.424" x2="85.2185" y2="132.159" gradientUnits="userSpaceOnUse">
<stop stop-color="#161618"/>
<stop offset="1" stop-color="#626262"/>
</linearGradient>
<linearGradient id="paint12_linear_6421_6136" x1="116.16" y1="140.144" x2="116.16" y2="125.875" gradientUnits="userSpaceOnUse">
<stop stop-color="#161618"/>
<stop offset="1" stop-color="#626262"/>
</linearGradient>
<linearGradient id="paint13_linear_6421_6136" x1="178.045" y1="144.518" x2="178.045" y2="134.254" gradientUnits="userSpaceOnUse">
<stop stop-color="#161618"/>
<stop offset="1" stop-color="#626262"/>
</linearGradient>
<linearGradient id="paint14_linear_6421_6136" x1="209.238" y1="134.676" x2="209.238" y2="115.4" gradientUnits="userSpaceOnUse">
<stop stop-color="#161618"/>
<stop offset="1" stop-color="#626262"/>
</linearGradient>
</defs>
</svg>
