<svg width="277" height="151" viewBox="0 0 277 151" fill="none" xmlns="http://www.w3.org/2000/svg">
<rect width="277" height="150.154" rx="17.4947" fill="#131111"/>
<rect x="0.364474" y="0.364474" width="276.271" height="149.425" rx="17.1303" stroke="url(#paint0_linear_6421_6430)" stroke-opacity="0.25" stroke-width="0.728947"/>
<rect x="154.382" y="12.8984" width="25.7973" height="104.479" rx="6.87929" fill="#444444"/>
<path d="M14.2025 23.9634L12.3555 16.7401H13.248L14.703 22.4413L16.1528 16.7401H16.9319L18.3869 22.4413L19.8367 16.7401H20.7293L18.8925 23.9634H17.8812L16.5449 18.7317L15.2086 23.9634H14.2025ZM21.2613 18.8039H22.128V23.9634H21.2613V18.8039ZM21.705 17.9629C21.5674 17.9629 21.4522 17.9182 21.3593 17.8288C21.2664 17.7393 21.22 17.6276 21.22 17.4934C21.22 17.3593 21.2664 17.2475 21.3593 17.158C21.4522 17.0686 21.5657 17.0239 21.6998 17.0239C21.834 17.0239 21.9475 17.0686 22.0403 17.158C22.1332 17.2475 22.1796 17.3593 22.1796 17.4934C22.1796 17.6276 22.1332 17.7393 22.0403 17.8288C21.9509 17.9182 21.8391 17.9629 21.705 17.9629ZM27.4502 16.2242H28.317V23.9634H27.4502V23.0863C27.2748 23.389 27.0392 23.6332 26.7433 23.8189C26.4475 24.0047 26.1001 24.0975 25.7011 24.0975C25.3262 24.0975 24.9754 24.027 24.6486 23.886C24.3218 23.745 24.0329 23.5506 23.7818 23.303C23.5342 23.0519 23.3398 22.7629 23.1988 22.4362C23.0578 22.1094 22.9873 21.7586 22.9873 21.3836C22.9873 21.0087 23.0578 20.6579 23.1988 20.3311C23.3398 20.0009 23.5342 19.712 23.7818 19.4643C24.0329 19.2132 24.3218 19.0172 24.6486 18.8761C24.9754 18.7351 25.3262 18.6646 25.7011 18.6646C26.1001 18.6646 26.4475 18.7575 26.7433 18.9432C27.0392 19.129 27.2748 19.3732 27.4502 19.6759V16.2242ZM25.7115 23.2565C26.052 23.2565 26.3461 23.174 26.5937 23.0089C26.8448 22.8403 27.0374 22.6133 27.1716 22.3278C27.3092 22.0423 27.378 21.7276 27.378 21.3836C27.378 21.0328 27.3092 20.7164 27.1716 20.4343C27.034 20.1488 26.8397 19.9235 26.5886 19.7584C26.3409 19.5899 26.0485 19.5056 25.7115 19.5056C25.3709 19.5056 25.0614 19.5899 24.7828 19.7584C24.5076 19.927 24.2874 20.154 24.1223 20.4395C23.9572 20.7215 23.8747 21.0362 23.8747 21.3836C23.8747 21.7311 23.959 22.0475 24.1275 22.333C24.296 22.615 24.5196 22.8403 24.7982 23.0089C25.0768 23.174 25.3812 23.2565 25.7115 23.2565ZM33.5338 18.8039H34.4006V24.1285C34.4006 24.469 34.3267 24.7855 34.1788 25.0778C34.0343 25.3736 33.8383 25.6299 33.5906 25.8466C33.3429 26.0667 33.0609 26.237 32.7444 26.3574C32.428 26.4812 32.0978 26.5431 31.7538 26.5431C31.3961 26.5431 31.0504 26.4623 30.7168 26.3006C30.3831 26.1424 30.0908 25.9291 29.8397 25.6608C29.592 25.396 29.4132 25.0985 29.3031 24.7683L30.0976 24.4071C30.163 24.6444 30.2799 24.8577 30.4485 25.0469C30.6205 25.2395 30.82 25.3908 31.047 25.5009C31.2774 25.6144 31.5131 25.6712 31.7538 25.6712C31.9808 25.6712 32.1993 25.6316 32.4091 25.5525C32.6223 25.4734 32.8132 25.3633 32.9818 25.2223C33.1538 25.0847 33.2879 24.9213 33.3842 24.7321C33.484 24.5464 33.5338 24.3452 33.5338 24.1285V23.1017C33.3584 23.3976 33.1262 23.6383 32.8373 23.8241C32.5518 24.0064 32.2182 24.0975 31.8364 24.0975C31.4718 24.0975 31.1295 24.027 30.8096 23.886C30.4898 23.745 30.2094 23.5506 29.9687 23.303C29.7279 23.0519 29.5387 22.7629 29.4011 22.4362C29.2635 22.1094 29.1947 21.7586 29.1947 21.3836C29.1947 21.0087 29.2635 20.6579 29.4011 20.3311C29.5387 20.0009 29.7279 19.712 29.9687 19.4643C30.2094 19.2132 30.4898 19.0172 30.8096 18.8761C31.1295 18.7351 31.4718 18.6646 31.8364 18.6646C32.2182 18.6646 32.5518 18.7558 32.8373 18.9381C33.1262 19.1204 33.3584 19.3611 33.5338 19.6604V18.8039ZM31.8415 23.2565C32.1752 23.2565 32.4641 23.1705 32.7083 22.9986C32.956 22.8266 33.1469 22.5978 33.281 22.3124C33.4152 22.0269 33.4823 21.7173 33.4823 21.3836C33.4823 21.0397 33.4135 20.7267 33.2759 20.4446C33.1417 20.1591 32.9508 19.9321 32.7032 19.7636C32.459 19.5916 32.1717 19.5056 31.8415 19.5056C31.5182 19.5056 31.2224 19.5899 30.9541 19.7584C30.6858 19.927 30.4726 20.154 30.3143 20.4395C30.1596 20.7215 30.0822 21.0362 30.0822 21.3836C30.0822 21.7311 30.1613 22.0475 30.3195 22.333C30.4812 22.615 30.6944 22.8403 30.9593 23.0089C31.2276 23.174 31.5217 23.2565 31.8415 23.2565ZM37.8409 24.0975C37.3662 24.0975 36.9328 23.9754 36.5407 23.7312C36.152 23.487 35.8407 23.1602 35.6068 22.7509C35.3764 22.3381 35.2611 21.8824 35.2611 21.3836C35.2611 21.0053 35.3282 20.6527 35.4624 20.326C35.5965 19.9958 35.7805 19.7068 36.0144 19.4592C36.2518 19.2081 36.5269 19.012 36.8399 18.871C37.1529 18.73 37.4866 18.6595 37.8409 18.6595C38.2295 18.6595 38.5856 18.7386 38.9089 18.8968C39.2356 19.0516 39.5143 19.2683 39.7447 19.5469C39.9786 19.8255 40.1523 20.1488 40.2658 20.5169C40.3828 20.8849 40.4258 21.2787 40.3948 21.6984H36.1847C36.226 21.9907 36.3223 22.2522 36.4736 22.4826C36.625 22.7096 36.8176 22.8902 37.0515 23.0244C37.2888 23.1585 37.5519 23.2273 37.8409 23.2307C38.1504 23.2307 38.4308 23.1516 38.6819 22.9934C38.933 22.8317 39.1359 22.6116 39.2907 22.333L40.1729 22.5394C39.9666 22.9968 39.6553 23.3718 39.2391 23.6641C38.8229 23.9531 38.3568 24.0975 37.8409 24.0975ZM36.1589 21.0173H39.5229C39.4953 20.7284 39.4025 20.4653 39.2442 20.2279C39.086 19.9872 38.8848 19.7945 38.6406 19.6501C38.3964 19.5056 38.1298 19.4334 37.8409 19.4334C37.5519 19.4334 37.2871 19.5039 37.0463 19.6449C36.8055 19.7859 36.606 19.9768 36.4478 20.2176C36.293 20.4549 36.1967 20.7215 36.1589 21.0173ZM43.8764 19.6707H42.7052L42.7 23.9634H41.8332L41.8384 19.6707H40.951V18.8039H41.8384L41.8332 17.1838H42.7L42.7052 18.8039H43.8764V19.6707ZM50.8351 22.6013L51.6091 23.0192C51.3752 23.346 51.0776 23.6074 50.7165 23.8034C50.3587 23.9995 49.9701 24.0975 49.5504 24.0975C49.0758 24.0975 48.6424 23.9754 48.2502 23.7312C47.8616 23.487 47.5503 23.1602 47.3164 22.7509C47.0859 22.3381 46.9707 21.8824 46.9707 21.3836C46.9707 21.0053 47.0378 20.6527 47.1719 20.326C47.3061 19.9958 47.4901 19.7068 47.724 19.4592C47.9613 19.2081 48.2365 19.012 48.5495 18.871C48.8625 18.73 49.1961 18.6595 49.5504 18.6595C49.9701 18.6595 50.3587 18.7575 50.7165 18.9535C51.0776 19.1496 51.3752 19.4127 51.6091 19.7429L50.8351 20.1609C50.67 19.9579 50.474 19.8014 50.247 19.6913C50.0199 19.5813 49.7878 19.5262 49.5504 19.5262C49.2305 19.5262 48.9399 19.6122 48.6785 19.7842C48.4205 19.9528 48.2159 20.1781 48.0645 20.4601C47.9132 20.7422 47.8375 21.05 47.8375 21.3836C47.8375 21.7173 47.9132 22.0251 48.0645 22.3072C48.2193 22.5858 48.4257 22.8094 48.6836 22.9779C48.9451 23.1465 49.234 23.2307 49.5504 23.2307C49.805 23.2307 50.044 23.1723 50.2676 23.0553C50.4912 22.9384 50.6804 22.787 50.8351 22.6013ZM54.72 24.0975C54.2453 24.0975 53.8119 23.9754 53.4198 23.7312C53.0311 23.487 52.7198 23.1602 52.4859 22.7509C52.2555 22.3381 52.1402 21.8824 52.1402 21.3836C52.1402 21.0053 52.2073 20.6527 52.3415 20.326C52.4756 19.9958 52.6596 19.7068 52.8935 19.4592C53.1309 19.2081 53.406 19.012 53.719 18.871C54.032 18.73 54.3657 18.6595 54.72 18.6595C55.1946 18.6595 55.6263 18.7816 56.015 19.0258C56.4071 19.27 56.7184 19.5985 56.9489 20.0112C57.1828 20.424 57.2997 20.8815 57.2997 21.3836C57.2997 21.7586 57.2326 22.1094 57.0985 22.4362C56.9643 22.7629 56.7786 23.0519 56.5413 23.303C56.3074 23.5506 56.0339 23.745 55.7209 23.886C55.4113 24.027 55.0777 24.0975 54.72 24.0975ZM54.72 23.2307C55.0433 23.2307 55.3339 23.1465 55.5919 22.9779C55.8533 22.8059 56.058 22.5806 56.2059 22.302C56.3572 22.02 56.4329 21.7139 56.4329 21.3836C56.4329 21.0466 56.3555 20.737 56.2007 20.4549C56.0494 20.1729 55.8447 19.9476 55.5868 19.7791C55.3288 19.6105 55.0399 19.5262 54.72 19.5262C54.3966 19.5262 54.106 19.6122 53.848 19.7842C53.5901 19.9528 53.3854 20.1781 53.234 20.4601C53.0827 20.7422 53.007 21.05 53.007 21.3836C53.007 21.7276 53.0844 22.0406 53.2392 22.3227C53.394 22.6013 53.6021 22.8231 53.8635 22.9882C54.1249 23.1499 54.4104 23.2307 54.72 23.2307ZM62.7144 20.7542V23.9634H61.8476V20.9451C61.8476 20.6837 61.784 20.4463 61.6567 20.2331C61.5294 20.0198 61.3592 19.8513 61.1459 19.7275C60.9327 19.6002 60.6953 19.5366 60.4339 19.5366C60.1759 19.5366 59.9386 19.6002 59.7219 19.7275C59.5087 19.8513 59.3384 20.0198 59.2111 20.2331C59.0839 20.4463 59.0202 20.6837 59.0202 20.9451V23.9634H58.1534V18.8039H59.0202V19.4488C59.2025 19.2081 59.433 19.0172 59.7116 18.8761C59.9902 18.7317 60.2929 18.6595 60.6197 18.6595C61.0049 18.6595 61.3557 18.754 61.6722 18.9432C61.9921 19.129 62.2449 19.3801 62.4306 19.6965C62.6198 20.0129 62.7144 20.3655 62.7144 20.7542ZM66.4188 19.6707H65.2476L65.2425 23.9634H64.3757L64.3808 19.6707H63.4934V18.8039H64.3808L64.3757 17.1838H65.2425L65.2476 18.8039H66.4188V19.6707ZM67.3437 23.9634V18.8039H68.2105V19.4488C68.3928 19.2081 68.6233 19.0172 68.9019 18.8761C69.1805 18.7317 69.4832 18.6595 69.81 18.6595C70.0095 18.6595 70.2021 18.6852 70.3878 18.7368L70.037 19.6036C69.8959 19.5589 69.7584 19.5366 69.6242 19.5366C69.3662 19.5366 69.1289 19.6002 68.9122 19.7275C68.6989 19.8513 68.5287 20.0198 68.4014 20.2331C68.2742 20.4463 68.2105 20.6837 68.2105 20.9451V23.9634H67.3437ZM73.03 24.0975C72.5554 24.0975 72.122 23.9754 71.7298 23.7312C71.3412 23.487 71.0299 23.1602 70.796 22.7509C70.5655 22.3381 70.4503 21.8824 70.4503 21.3836C70.4503 21.0053 70.5174 20.6527 70.6515 20.326C70.7857 19.9958 70.9697 19.7068 71.2036 19.4592C71.4409 19.2081 71.7161 19.012 72.0291 18.871C72.3421 18.73 72.6757 18.6595 73.03 18.6595C73.5047 18.6595 73.9364 18.7816 74.325 19.0258C74.7172 19.27 75.0285 19.5985 75.2589 20.0112C75.4928 20.424 75.6098 20.8815 75.6098 21.3836C75.6098 21.7586 75.5427 22.1094 75.4085 22.4362C75.2744 22.7629 75.0886 23.0519 74.8513 23.303C74.6174 23.5506 74.344 23.745 74.031 23.886C73.7214 24.027 73.3877 24.0975 73.03 24.0975ZM73.03 23.2307C73.3534 23.2307 73.644 23.1465 73.902 22.9779C74.1634 22.8059 74.368 22.5806 74.5159 22.302C74.6673 22.02 74.743 21.7139 74.743 21.3836C74.743 21.0466 74.6656 20.737 74.5108 20.4549C74.3594 20.1729 74.1548 19.9476 73.8968 19.7791C73.6388 19.6105 73.3499 19.5262 73.03 19.5262C72.7067 19.5262 72.416 19.6122 72.1581 19.7842C71.9001 19.9528 71.6954 20.1781 71.5441 20.4601C71.3928 20.7422 71.3171 21.05 71.3171 21.3836C71.3171 21.7276 71.3945 22.0406 71.5493 22.3227C71.704 22.6013 71.9121 22.8231 72.1736 22.9882C72.435 23.1499 72.7205 23.2307 73.03 23.2307ZM76.4131 23.9634V16.2242H77.2799V23.9634H76.4131Z" fill="white"/>
<path d="M12.6669 128.362C12.5064 128.362 12.3493 128.334 12.1956 128.279C12.042 128.227 11.9021 128.146 11.776 128.039L12.1441 127.591C12.2106 127.649 12.2874 127.696 12.3745 127.732C12.4639 127.767 12.5614 127.784 12.6669 127.784C12.8182 127.784 12.9558 127.744 13.0796 127.664C13.2035 127.583 13.3021 127.478 13.3754 127.347C13.4511 127.216 13.489 127.077 13.489 126.928V123.457H14.0668V126.928C14.0668 127.184 14.0038 127.422 13.8776 127.64C13.7515 127.855 13.583 128.029 13.372 128.162C13.161 128.295 12.926 128.362 12.6669 128.362ZM17.6584 124.833H18.2363V128.272H17.6584L17.6343 127.691C17.5265 127.891 17.3775 128.052 17.1872 128.176C16.9991 128.3 16.7744 128.362 16.513 128.362C16.2608 128.362 16.0246 128.315 15.8044 128.221C15.5843 128.125 15.3894 127.993 15.2197 127.825C15.0523 127.656 14.9216 127.461 14.8276 127.241C14.7336 127.02 14.6865 126.783 14.6865 126.529C14.6865 126.283 14.7324 126.052 14.8241 125.834C14.9159 125.616 15.0431 125.426 15.2059 125.263C15.371 125.098 15.5614 124.969 15.7769 124.878C15.9925 124.784 16.2241 124.737 16.4717 124.737C16.7423 124.737 16.9796 124.801 17.1837 124.929C17.3878 125.055 17.5529 125.219 17.679 125.421L17.6584 124.833ZM16.5027 127.801C16.7297 127.801 16.9257 127.746 17.0909 127.636C17.2582 127.524 17.3867 127.372 17.4761 127.182C17.5678 126.992 17.6137 126.782 17.6137 126.553C17.6137 126.319 17.5678 126.108 17.4761 125.92C17.3844 125.729 17.2548 125.579 17.0874 125.469C16.9223 125.357 16.7274 125.301 16.5027 125.301C16.2757 125.301 16.0693 125.357 15.8835 125.469C15.6978 125.582 15.5499 125.733 15.4398 125.923C15.332 126.111 15.2782 126.321 15.2782 126.553C15.2782 126.784 15.3343 126.995 15.4467 127.186C15.5591 127.374 15.7081 127.524 15.8939 127.636C16.0796 127.746 16.2825 127.801 16.5027 127.801ZM21.9644 126.133V128.272H21.3865V126.26C21.3865 126.086 21.3441 125.928 21.2593 125.786C21.1744 125.643 21.0609 125.531 20.9187 125.449C20.7766 125.364 20.6183 125.321 20.4441 125.321C20.2721 125.321 20.1139 125.364 19.9694 125.449C19.8272 125.531 19.7137 125.643 19.6289 125.786C19.544 125.928 19.5016 126.086 19.5016 126.26V128.272H18.9238V124.833H19.5016V125.263C19.6231 125.102 19.7768 124.975 19.9625 124.881C20.1483 124.785 20.3501 124.737 20.5679 124.737C20.8247 124.737 21.0586 124.8 21.2696 124.926C21.4828 125.05 21.6514 125.217 21.7752 125.428C21.9013 125.639 21.9644 125.874 21.9644 126.133Z" fill="#999999"/>
<path d="M41.757 128.272V123.457H44.581V124.035H42.3349V125.404H44.2508V125.982H42.3349V128.272H41.757ZM46.26 128.362C45.9435 128.362 45.6546 128.28 45.3932 128.118C45.1341 127.955 44.9266 127.737 44.7706 127.464C44.617 127.189 44.5402 126.885 44.5402 126.553C44.5402 126.3 44.5849 126.065 44.6743 125.848C44.7637 125.627 44.8864 125.435 45.0424 125.27C45.2006 125.102 45.384 124.972 45.5927 124.878C45.8014 124.784 46.0238 124.737 46.26 124.737C46.5191 124.737 46.7564 124.789 46.972 124.895C47.1898 124.998 47.3756 125.142 47.5292 125.328C47.6851 125.514 47.8009 125.729 47.8766 125.975C47.9546 126.22 47.9832 126.483 47.9626 126.762H45.1559C45.1834 126.957 45.2476 127.132 45.3485 127.285C45.4494 127.437 45.5778 127.557 45.7337 127.646C45.8919 127.736 46.0674 127.782 46.26 127.784C46.4664 127.784 46.6533 127.731 46.8206 127.626C46.988 127.518 47.1233 127.371 47.2265 127.186L47.8147 127.323C47.6771 127.628 47.4696 127.878 47.1921 128.073C46.9147 128.266 46.604 128.362 46.26 128.362ZM45.1387 126.308H47.3813C47.363 126.116 47.3011 125.94 47.1956 125.782C47.0901 125.622 46.9559 125.493 46.7931 125.397C46.6303 125.301 46.4526 125.252 46.26 125.252C46.0674 125.252 45.8908 125.299 45.7303 125.393C45.5698 125.487 45.4368 125.615 45.3313 125.775C45.2281 125.934 45.1639 126.111 45.1387 126.308ZM50.2491 124.737C50.5839 124.737 50.8877 124.818 51.1606 124.981C51.4358 125.144 51.6548 125.363 51.8176 125.638C51.9804 125.911 52.0618 126.214 52.0618 126.549C52.0618 126.799 52.0148 127.034 51.9208 127.254C51.8268 127.472 51.6961 127.665 51.5287 127.832C51.3636 127.997 51.1709 128.127 50.9508 128.221C50.733 128.315 50.4991 128.362 50.2491 128.362C49.9831 128.362 49.7515 128.3 49.5543 128.176C49.3594 128.05 49.2035 127.886 49.0865 127.684V128.272H48.5087V123.113H49.0865V125.414C49.2035 125.212 49.3594 125.05 49.5543 124.926C49.7515 124.8 49.9831 124.737 50.2491 124.737ZM50.2422 127.798C50.4692 127.798 50.6756 127.742 50.8614 127.629C51.0471 127.517 51.195 127.367 51.3051 127.179C51.4152 126.988 51.4702 126.779 51.4702 126.549C51.4702 126.315 51.414 126.104 51.3016 125.916C51.1893 125.726 51.0402 125.576 50.8545 125.466C50.6687 125.353 50.4647 125.297 50.2422 125.297C50.0175 125.297 49.8215 125.353 49.6541 125.466C49.489 125.578 49.3605 125.729 49.2688 125.92C49.1794 126.11 49.1347 126.32 49.1347 126.549C49.1347 126.781 49.1794 126.992 49.2688 127.182C49.3605 127.37 49.4901 127.52 49.6575 127.633C49.8249 127.743 50.0198 127.798 50.2422 127.798Z" fill="#999999"/>
<path d="M71.6784 128.272L72.6105 123.457H73.0542L74.3544 126.876L75.6511 123.457H76.0949L77.0304 128.272H76.4423L75.7647 124.778L74.5436 128.011H74.1618L72.9407 124.778L72.2665 128.272H71.6784ZM80.3221 124.833H80.9V128.272H80.3221L80.298 127.691C80.1903 127.891 80.0412 128.052 79.8509 128.176C79.6629 128.3 79.4381 128.362 79.1767 128.362C78.9245 128.362 78.6883 128.315 78.4682 128.221C78.248 128.125 78.0531 127.993 77.8834 127.825C77.716 127.656 77.5853 127.461 77.4913 127.241C77.3973 127.02 77.3503 126.783 77.3503 126.529C77.3503 126.283 77.3961 126.052 77.4879 125.834C77.5796 125.616 77.7069 125.426 77.8697 125.263C78.0348 125.098 78.2251 124.969 78.4406 124.878C78.6562 124.784 78.8878 124.737 79.1354 124.737C79.406 124.737 79.6434 124.801 79.8475 124.929C80.0515 125.055 80.2166 125.219 80.3428 125.421L80.3221 124.833ZM79.1664 127.801C79.3934 127.801 79.5895 127.746 79.7546 127.636C79.922 127.524 80.0504 127.372 80.1398 127.182C80.2315 126.992 80.2774 126.782 80.2774 126.553C80.2774 126.319 80.2315 126.108 80.1398 125.92C80.0481 125.729 79.9185 125.579 79.7511 125.469C79.586 125.357 79.3911 125.301 79.1664 125.301C78.9394 125.301 78.733 125.357 78.5473 125.469C78.3615 125.582 78.2136 125.733 78.1036 125.923C77.9958 126.111 77.9419 126.321 77.9419 126.553C77.9419 126.784 77.9981 126.995 78.1104 127.186C78.2228 127.374 78.3718 127.524 78.5576 127.636C78.7433 127.746 78.9463 127.801 79.1664 127.801ZM81.5875 128.272V124.833H82.1653V125.263C82.2869 125.102 82.4405 124.975 82.6263 124.881C82.812 124.785 83.0138 124.737 83.2316 124.737C83.3646 124.737 83.493 124.754 83.6169 124.788L83.383 125.366C83.289 125.336 83.1972 125.321 83.1078 125.321C82.9358 125.321 82.7776 125.364 82.6331 125.449C82.491 125.531 82.3775 125.643 82.2926 125.786C82.2078 125.928 82.1653 126.086 82.1653 126.26V128.272H81.5875Z" fill="#999999"/>
<path d="M103.527 123.457H104.225L105.976 128.272H105.364L105.006 127.289H102.746L102.392 128.272H101.776L103.527 123.457ZM102.96 126.711H104.793L103.875 124.196L102.96 126.711ZM107.107 129.992H106.529V124.833H107.107V125.421C107.224 125.219 107.38 125.056 107.575 124.933C107.77 124.806 108.001 124.743 108.27 124.743C108.52 124.743 108.754 124.79 108.971 124.884C109.192 124.978 109.384 125.109 109.549 125.277C109.714 125.442 109.844 125.633 109.938 125.851C110.032 126.069 110.079 126.303 110.079 126.553C110.079 126.803 110.032 127.038 109.938 127.258C109.844 127.478 109.714 127.672 109.549 127.839C109.384 128.004 109.192 128.134 108.971 128.228C108.754 128.322 108.52 128.369 108.27 128.369C108.001 128.369 107.77 128.307 107.575 128.183C107.38 128.057 107.224 127.893 107.107 127.691V129.992ZM108.263 125.304C108.04 125.304 107.846 125.36 107.678 125.473C107.511 125.585 107.381 125.735 107.289 125.923C107.2 126.111 107.155 126.321 107.155 126.553C107.155 126.782 107.2 126.992 107.289 127.182C107.381 127.372 107.51 127.524 107.675 127.636C107.842 127.748 108.038 127.805 108.263 127.805C108.485 127.805 108.689 127.75 108.875 127.64C109.061 127.527 109.21 127.377 109.322 127.189C109.435 126.999 109.491 126.787 109.491 126.553C109.491 126.323 109.436 126.115 109.326 125.927C109.216 125.736 109.068 125.585 108.882 125.473C108.696 125.36 108.49 125.304 108.263 125.304ZM110.654 128.272V124.833H111.232V125.263C111.354 125.102 111.507 124.975 111.693 124.881C111.879 124.785 112.08 124.737 112.298 124.737C112.431 124.737 112.56 124.754 112.684 124.788L112.45 125.366C112.356 125.336 112.264 125.321 112.174 125.321C112.003 125.321 111.844 125.364 111.7 125.449C111.558 125.531 111.444 125.643 111.359 125.786C111.274 125.928 111.232 126.086 111.232 126.26V128.272H110.654Z" fill="#999999"/>
<path d="M130.722 128.272L131.654 123.457H132.097L133.398 126.876L134.694 123.457H135.138L136.074 128.272H135.486L134.808 124.778L133.587 128.011H133.205L131.984 124.778L131.31 128.272H130.722ZM139.365 124.833H139.943V128.272H139.365L139.341 127.691C139.234 127.891 139.084 128.052 138.894 128.176C138.706 128.3 138.481 128.362 138.22 128.362C137.968 128.362 137.732 128.315 137.511 128.221C137.291 128.125 137.096 127.993 136.927 127.825C136.759 127.656 136.629 127.461 136.535 127.241C136.441 127.02 136.394 126.783 136.394 126.529C136.394 126.283 136.439 126.052 136.531 125.834C136.623 125.616 136.75 125.426 136.913 125.263C137.078 125.098 137.268 124.969 137.484 124.878C137.699 124.784 137.931 124.737 138.179 124.737C138.449 124.737 138.687 124.801 138.891 124.929C139.095 125.055 139.26 125.219 139.386 125.421L139.365 124.833ZM138.21 127.801C138.437 127.801 138.633 127.746 138.798 127.636C138.965 127.524 139.094 127.372 139.183 127.182C139.275 126.992 139.321 126.782 139.321 126.553C139.321 126.319 139.275 126.108 139.183 125.92C139.091 125.729 138.962 125.579 138.794 125.469C138.629 125.357 138.434 125.301 138.21 125.301C137.983 125.301 137.776 125.357 137.591 125.469C137.405 125.582 137.257 125.733 137.147 125.923C137.039 126.111 136.985 126.321 136.985 126.553C136.985 126.784 137.041 126.995 137.154 127.186C137.266 127.374 137.415 127.524 137.601 127.636C137.787 127.746 137.99 127.801 138.21 127.801ZM142.879 124.833H143.492L141.61 129.992H140.998L141.62 128.272L140.386 124.833H141.019L141.909 127.478L142.879 124.833Z" fill="#999999"/>
<path d="M163.155 128.362C162.994 128.362 162.837 128.334 162.683 128.279C162.53 128.227 162.39 128.146 162.264 128.039L162.632 127.591C162.698 127.649 162.775 127.696 162.862 127.732C162.952 127.767 163.049 127.784 163.155 127.784C163.306 127.784 163.444 127.744 163.567 127.664C163.691 127.583 163.79 127.478 163.863 127.347C163.939 127.216 163.977 127.077 163.977 126.928V123.457H164.555V126.928C164.555 127.184 164.492 127.422 164.365 127.64C164.239 127.855 164.071 128.029 163.86 128.162C163.649 128.295 163.414 128.362 163.155 128.362ZM165.243 126.965V124.833H165.821V126.838C165.821 127.012 165.863 127.171 165.948 127.313C166.033 127.455 166.147 127.568 166.289 127.653C166.433 127.736 166.591 127.777 166.763 127.777C166.938 127.777 167.095 127.736 167.235 127.653C167.377 127.568 167.49 127.455 167.575 127.313C167.66 127.171 167.702 127.012 167.702 126.838V124.833H168.28L168.284 128.272H167.706L167.702 127.836C167.581 127.996 167.427 128.125 167.242 128.221C167.056 128.315 166.855 128.362 166.64 128.362C166.383 128.362 166.148 128.3 165.934 128.176C165.724 128.05 165.555 127.881 165.429 127.671C165.305 127.46 165.243 127.225 165.243 126.965ZM172.016 126.133V128.272H171.438V126.26C171.438 126.086 171.395 125.928 171.31 125.786C171.226 125.643 171.112 125.531 170.97 125.449C170.828 125.364 170.669 125.321 170.495 125.321C170.323 125.321 170.165 125.364 170.021 125.449C169.878 125.531 169.765 125.643 169.68 125.786C169.595 125.928 169.553 126.086 169.553 126.26V128.272H168.975V124.833H169.553V125.263C169.674 125.102 169.828 124.975 170.014 124.881C170.199 124.785 170.401 124.737 170.619 124.737C170.876 124.737 171.11 124.8 171.321 124.926C171.534 125.05 171.703 125.217 171.826 125.428C171.952 125.639 172.016 125.874 172.016 126.133Z" fill="#1A1A1A"/>
<path d="M194.542 128.362C194.382 128.362 194.225 128.334 194.071 128.279C193.917 128.227 193.777 128.146 193.651 128.039L194.019 127.591C194.086 127.649 194.163 127.696 194.25 127.732C194.339 127.767 194.437 127.784 194.542 127.784C194.693 127.784 194.831 127.744 194.955 127.664C195.079 127.583 195.177 127.478 195.251 127.347C195.326 127.216 195.364 127.077 195.364 126.928V123.457H195.942V126.928C195.942 127.184 195.879 127.422 195.753 127.64C195.627 127.855 195.458 128.029 195.247 128.162C195.036 128.295 194.801 128.362 194.542 128.362ZM196.631 126.965V124.833H197.208V126.838C197.208 127.012 197.251 127.171 197.336 127.313C197.421 127.455 197.534 127.568 197.676 127.653C197.821 127.736 197.979 127.777 198.151 127.777C198.325 127.777 198.482 127.736 198.622 127.653C198.764 127.568 198.878 127.455 198.963 127.313C199.048 127.171 199.09 127.012 199.09 126.838V124.833H199.668L199.671 128.272H199.093L199.09 127.836C198.968 127.996 198.815 128.125 198.629 128.221C198.443 128.315 198.243 128.362 198.027 128.362C197.77 128.362 197.535 128.3 197.322 128.176C197.111 128.05 196.942 127.881 196.816 127.671C196.692 127.46 196.631 127.225 196.631 126.965ZM200.403 128.272V123.113H200.98V128.272H200.403Z" fill="#999999"/>
<path d="M223.482 123.457H224.18L225.931 128.272H225.318L224.961 127.289H222.701L222.347 128.272H221.731L223.482 123.457ZM222.914 126.711H224.747L223.829 124.196L222.914 126.711ZM226.245 126.965V124.833H226.823V126.838C226.823 127.012 226.866 127.171 226.951 127.313C227.035 127.455 227.149 127.568 227.291 127.653C227.436 127.736 227.594 127.777 227.766 127.777C227.94 127.777 228.097 127.736 228.237 127.653C228.379 127.568 228.493 127.455 228.577 127.313C228.662 127.171 228.705 127.012 228.705 126.838V124.833H229.283L229.286 128.272H228.708L228.705 127.836C228.583 127.996 228.43 128.125 228.244 128.221C228.058 128.315 227.857 128.362 227.642 128.362C227.385 128.362 227.15 128.3 226.937 128.176C226.726 128.05 226.557 127.881 226.431 127.671C226.307 127.46 226.245 127.225 226.245 126.965ZM232.63 124.833H233.208V128.383C233.208 128.61 233.158 128.821 233.06 129.015C232.964 129.213 232.833 129.383 232.668 129.528C232.503 129.675 232.315 129.788 232.104 129.868C231.893 129.951 231.673 129.992 231.443 129.992C231.205 129.992 230.974 129.938 230.752 129.831C230.529 129.725 230.335 129.583 230.167 129.404C230.002 129.228 229.883 129.029 229.809 128.809L230.339 128.568C230.383 128.726 230.461 128.869 230.573 128.995C230.688 129.123 230.821 129.224 230.972 129.297C231.126 129.373 231.283 129.411 231.443 129.411C231.595 129.411 231.74 129.385 231.88 129.332C232.022 129.279 232.15 129.206 232.262 129.112C232.377 129.02 232.466 128.911 232.53 128.785C232.597 128.661 232.63 128.527 232.63 128.383V127.698C232.513 127.895 232.358 128.056 232.166 128.18C231.975 128.301 231.753 128.362 231.498 128.362C231.255 128.362 231.027 128.315 230.814 128.221C230.601 128.127 230.414 127.997 230.253 127.832C230.093 127.665 229.966 127.472 229.875 127.254C229.783 127.036 229.737 126.803 229.737 126.553C229.737 126.303 229.783 126.069 229.875 125.851C229.966 125.631 230.093 125.438 230.253 125.273C230.414 125.106 230.601 124.975 230.814 124.881C231.027 124.787 231.255 124.74 231.498 124.74C231.753 124.74 231.975 124.801 232.166 124.922C232.358 125.044 232.513 125.204 232.63 125.404V124.833ZM231.502 127.801C231.724 127.801 231.917 127.744 232.08 127.629C232.245 127.515 232.372 127.362 232.461 127.172C232.551 126.981 232.596 126.775 232.596 126.553C232.596 126.323 232.55 126.115 232.458 125.927C232.368 125.736 232.241 125.585 232.076 125.473C231.913 125.358 231.722 125.301 231.502 125.301C231.286 125.301 231.089 125.357 230.91 125.469C230.731 125.582 230.589 125.733 230.484 125.923C230.38 126.111 230.329 126.321 230.329 126.553C230.329 126.784 230.382 126.995 230.487 127.186C230.595 127.374 230.737 127.524 230.914 127.636C231.092 127.746 231.288 127.801 231.502 127.801Z" fill="#999999"/>
<line x1="17.014" y1="34.0405" x2="17.014" y2="104.123" stroke="#525252" stroke-width="0.429955" stroke-dasharray="1.72 1.72"/>
<line x1="47.111" y1="34.0405" x2="47.111" y2="104.123" stroke="#525252" stroke-width="0.429955" stroke-dasharray="1.72 1.72"/>
<line x1="77.2078" y1="34.0405" x2="77.2078" y2="104.123" stroke="#525252" stroke-width="0.429955" stroke-dasharray="1.72 1.72"/>
<line x1="107.305" y1="34.0405" x2="107.305" y2="104.123" stroke="#525252" stroke-width="0.429955" stroke-dasharray="1.72 1.72"/>
<line x1="137.402" y1="34.0405" x2="137.402" y2="104.123" stroke="#525252" stroke-width="0.429955" stroke-dasharray="1.72 1.72"/>
<line x1="167.498" y1="34.0405" x2="167.498" y2="104.123" stroke="#525252" stroke-width="0.429955" stroke-dasharray="1.72 1.72"/>
<line x1="197.595" y1="34.0405" x2="197.595" y2="104.123" stroke="#525252" stroke-width="0.429955" stroke-dasharray="1.72 1.72"/>
<line x1="227.692" y1="34.0405" x2="227.692" y2="104.123" stroke="#525252" stroke-width="0.429955" stroke-dasharray="1.72 1.72"/>
<ellipse cx="46.8954" cy="92.944" rx="2.57973" ry="2.57973" fill="#FFDB5B"/>
<path d="M46.8954 97.2435C49.27 97.2435 51.195 95.3186 51.195 92.944C51.195 90.5694 49.27 88.6444 46.8954 88.6444C44.5208 88.6444 42.5959 90.5694 42.5959 92.944C42.5959 95.3186 44.5208 97.2435 46.8954 97.2435Z" stroke="#FFDB5B" stroke-opacity="0.25" stroke-width="3.43964"/>
<ellipse cx="63.6641" cy="68.8663" rx="2.57973" ry="2.57973" fill="#FFDB5B"/>
<path d="M63.6641 72.306C65.5637 72.306 67.1037 70.766 67.1037 68.8664C67.1037 66.9667 65.5637 65.4267 63.6641 65.4267C61.7644 65.4267 60.2244 66.9667 60.2244 68.8664C60.2244 70.766 61.7644 72.306 63.6641 72.306Z" stroke="#FFDB5B" stroke-opacity="0.25" stroke-width="1.71982"/>
<ellipse cx="90.319" cy="67.1466" rx="2.57973" ry="2.57973" fill="#FFDB5B"/>
<path d="M90.319 70.5863C92.2187 70.5863 93.7586 69.0463 93.7586 67.1466C93.7586 65.247 92.2187 63.707 90.319 63.707C88.4193 63.707 86.8793 65.247 86.8793 67.1466C86.8793 69.0463 88.4193 70.5863 90.319 70.5863Z" stroke="#FFDB5B" stroke-opacity="0.25" stroke-width="1.71982"/>
<ellipse cx="107.52" cy="46.5089" rx="2.57973" ry="2.57973" fill="#FFDB5B"/>
<path d="M107.52 50.8085C109.895 50.8085 111.82 48.8835 111.82 46.5089C111.82 44.1344 109.895 42.2094 107.52 42.2094C105.146 42.2094 103.221 44.1344 103.221 46.5089C103.221 48.8835 105.146 50.8085 107.52 50.8085Z" stroke="#FFDB5B" stroke-opacity="0.25" stroke-width="3.43964"/>
<ellipse cx="137.185" cy="58.1178" rx="2.57973" ry="2.57973" fill="#FFDB5B"/>
<path d="M137.185 61.5575C139.085 61.5575 140.625 60.0175 140.625 58.1178C140.625 56.2182 139.085 54.6782 137.185 54.6782C135.286 54.6782 133.746 56.2182 133.746 58.1178C133.746 60.0175 135.286 61.5575 137.185 61.5575Z" stroke="#FFDB5B" stroke-opacity="0.25" stroke-width="1.71982"/>
<ellipse cx="197.161" cy="45.6491" rx="2.57973" ry="2.57973" fill="#FFDB5B"/>
<path d="M197.161 49.0887C199.061 49.0887 200.601 47.5487 200.601 45.6491C200.601 43.7494 199.061 42.2094 197.161 42.2094C195.261 42.2094 193.721 43.7494 193.721 45.6491C193.721 47.5487 195.261 49.0887 197.161 49.0887Z" stroke="#FFDB5B" stroke-opacity="0.25" stroke-width="1.71982"/>
<ellipse cx="167.713" cy="45.2189" rx="2.57973" ry="2.57973" fill="#FFDB5B"/>
<path d="M167.713 49.5184C170.087 49.5184 172.012 47.5935 172.012 45.2189C172.012 42.8443 170.087 40.9193 167.713 40.9193C165.338 40.9193 163.413 42.8443 163.413 45.2189C163.413 47.5935 165.338 49.5184 167.713 49.5184Z" stroke="#FFDB5B" stroke-opacity="0.25" stroke-width="3.43964"/>
<ellipse cx="17.2278" cy="98.1037" rx="2.57973" ry="2.57973" fill="#FFDB5B"/>
<ellipse cx="227.905" cy="34.0402" rx="2.57973" ry="2.57973" fill="#FFDB5B"/>
<path d="M17.225 98.1033L47.0357 93.1542L63.7091 67.8589H90.55L107.383 46.0622L137.281 58.9608L167.561 44.9384L197.802 45.7983L227.903 34.04" stroke="#FFDB5B" stroke-width="1.28987"/>
<g filter="url(#filter0_b_6421_6430)">
<rect x="160.735" y="73.2363" width="99.8701" height="60.4476" rx="10.4228" fill="#1B76FF"/>
<path fill-rule="evenodd" clip-rule="evenodd" d="M245.945 82.2564L248.201 86.165C248.434 86.5682 248.434 87.0646 248.201 87.4678L245.945 91.3764C245.712 91.7796 245.281 92.0278 244.816 92.0278H240.303C239.837 92.0278 239.408 91.7796 239.175 91.3764L236.918 87.4678C236.686 87.0646 236.686 86.5682 236.918 86.165L239.175 82.2564C239.408 81.8532 239.838 81.605 240.303 81.605H244.817C245.282 81.605 245.712 81.8532 245.945 82.2564V82.2564Z" stroke="white" stroke-width="0.781714" stroke-linecap="round" stroke-linejoin="round"/>
<path d="M241.257 84.2109L243.863 89.4224" stroke="white" stroke-width="0.781714" stroke-linecap="round" stroke-linejoin="round"/>
<path d="M173.837 90.6592V83.728H176.273C176.642 83.728 176.976 83.8188 177.273 84.0003C177.573 84.1818 177.811 84.4277 177.986 84.738C178.164 85.0449 178.253 85.3882 178.253 85.7677C178.253 86.1011 178.187 86.4047 178.055 86.6787C177.923 86.9526 177.741 87.182 177.51 87.3669C177.283 87.5484 177.023 87.6738 176.733 87.7431L178.416 90.6592H177.456L175.802 87.8124H174.669V90.6592H173.837ZM174.669 86.9807H176.188C176.413 86.9807 176.619 86.9262 176.807 86.8173C176.995 86.7051 177.144 86.5549 177.253 86.3668C177.365 86.1754 177.421 85.9608 177.421 85.7232C177.421 85.4822 177.365 85.2677 177.253 85.0796C177.144 84.8881 176.995 84.738 176.807 84.629C176.619 84.5168 176.413 84.4607 176.188 84.4607H174.669V86.9807ZM181.411 90.7879C180.955 90.7879 180.539 90.6707 180.163 90.4364C179.79 90.2021 179.492 89.8885 179.267 89.4957C179.046 89.0997 178.935 88.6623 178.935 88.1838C178.935 87.8207 179 87.4824 179.128 87.1688C179.257 86.852 179.434 86.5747 179.658 86.3371C179.886 86.0961 180.15 85.908 180.45 85.7727C180.751 85.6374 181.071 85.5697 181.411 85.5697C181.784 85.5697 182.125 85.6456 182.436 85.7974C182.749 85.946 183.017 86.1539 183.238 86.4212C183.462 86.6886 183.629 86.9988 183.738 87.352C183.85 87.7052 183.891 88.0831 183.861 88.4858H179.822C179.861 88.7663 179.954 89.0171 180.099 89.2383C180.244 89.4561 180.429 89.6294 180.653 89.7581C180.881 89.8868 181.134 89.9529 181.411 89.9562C181.708 89.9562 181.977 89.8802 182.218 89.7284C182.459 89.5733 182.653 89.3621 182.802 89.0947L183.649 89.2927C183.451 89.7317 183.152 90.0915 182.752 90.372C182.353 90.6493 181.906 90.7879 181.411 90.7879ZM179.797 87.8322H183.025C182.998 87.555 182.909 87.3025 182.757 87.0748C182.606 86.8437 182.413 86.6589 182.178 86.5203C181.944 86.3816 181.688 86.3123 181.411 86.3123C181.134 86.3123 180.879 86.38 180.648 86.5153C180.417 86.6506 180.226 86.8338 180.074 87.0649C179.926 87.2926 179.833 87.5484 179.797 87.8322ZM186.225 90.7532C185.958 90.7433 185.697 90.6938 185.443 90.6047C185.192 90.5123 184.971 90.3885 184.779 90.2334C184.591 90.075 184.454 89.8934 184.369 89.6888L185.081 89.3819C185.131 89.4941 185.22 89.5997 185.349 89.6987C185.478 89.7977 185.626 89.8769 185.794 89.9364C185.963 89.9958 186.133 90.0255 186.304 90.0255C186.486 90.0255 186.656 89.9974 186.814 89.9413C186.973 89.8852 187.101 89.8027 187.2 89.6938C187.303 89.5815 187.354 89.4479 187.354 89.2927C187.354 89.1277 187.298 88.999 187.186 88.9066C187.077 88.8109 186.938 88.7366 186.77 88.6838C186.605 88.6277 186.436 88.5749 186.265 88.5254C185.925 88.4395 185.621 88.3372 185.354 88.2184C185.086 88.0963 184.875 87.9428 184.72 87.758C184.568 87.5698 184.492 87.3306 184.492 87.0401C184.492 86.7332 184.576 86.4675 184.745 86.243C184.916 86.0186 185.141 85.8453 185.418 85.7232C185.695 85.6011 185.992 85.54 186.309 85.54C186.709 85.54 187.073 85.6258 187.403 85.7974C187.733 85.9691 187.979 86.2018 188.141 86.4955L187.473 86.8866C187.417 86.7678 187.331 86.6638 187.215 86.5747C187.1 86.4823 186.968 86.4097 186.819 86.3569C186.671 86.3041 186.519 86.276 186.364 86.2727C186.172 86.2661 185.992 86.2909 185.824 86.347C185.659 86.4031 185.525 86.4889 185.423 86.6044C185.324 86.7167 185.275 86.8569 185.275 87.0253C185.275 87.1903 185.327 87.3157 185.433 87.4015C185.542 87.4873 185.682 87.5566 185.854 87.6095C186.029 87.659 186.219 87.7167 186.423 87.7827C186.724 87.8785 187.004 87.989 187.265 88.1144C187.526 88.2399 187.735 88.3966 187.894 88.5848C188.055 88.7729 188.135 89.0056 188.131 89.2828C188.131 89.5865 188.04 89.8522 187.859 90.0799C187.677 90.3044 187.441 90.476 187.151 90.5948C186.864 90.7136 186.555 90.7664 186.225 90.7532ZM188.781 88.7779V85.7083H189.613V88.5947C189.613 88.8455 189.674 89.0733 189.796 89.2779C189.918 89.4825 190.082 89.6459 190.286 89.768C190.494 89.8868 190.722 89.9463 190.97 89.9463C191.221 89.9463 191.447 89.8868 191.648 89.768C191.853 89.6459 192.016 89.4825 192.138 89.2779C192.26 89.0733 192.321 88.8455 192.321 88.5947V85.7083H193.153L193.158 90.6592H192.326L192.321 90.0304C192.146 90.2615 191.925 90.4463 191.658 90.5849C191.39 90.7202 191.102 90.7879 190.791 90.7879C190.422 90.7879 190.083 90.6988 189.777 90.5206C189.473 90.339 189.23 90.0964 189.049 89.7928C188.871 89.4891 188.781 89.1508 188.781 88.7779ZM194.211 90.6592V83.2329H195.042V90.6592H194.211ZM198.796 86.5401H197.672L197.667 90.6592H196.836L196.841 86.5401H195.989V85.7083H196.841L196.836 84.1538H197.667L197.672 85.7083H198.796V86.5401Z" fill="white"/>
<path d="M179.12 121.8V116.64H173.96V114.96H179.12V109.8H180.8V114.96H185.96V116.64H180.8V121.8H179.12ZM199.036 123.312C198.012 123.312 197.08 123.064 196.24 122.568C195.408 122.072 194.748 121.408 194.26 120.576C193.772 119.736 193.528 118.816 193.528 117.816H195.208C195.208 118.512 195.38 119.152 195.724 119.736C196.068 120.312 196.528 120.772 197.104 121.116C197.688 121.46 198.332 121.632 199.036 121.632C199.732 121.632 200.368 121.46 200.944 121.116C201.52 120.772 201.98 120.312 202.324 119.736C202.676 119.152 202.852 118.512 202.852 117.816C202.852 117.112 202.684 116.472 202.348 115.896C202.02 115.312 201.552 114.848 200.944 114.504C200.344 114.152 199.628 113.976 198.796 113.976H194.716L196.3 106.2H204.16V107.88H197.656L196.78 112.296L198.736 112.308C199.88 112.324 200.884 112.568 201.748 113.04C202.62 113.512 203.3 114.16 203.788 114.984C204.284 115.8 204.532 116.744 204.532 117.816C204.532 118.568 204.388 119.276 204.1 119.94C203.82 120.604 203.424 121.192 202.912 121.704C202.408 122.208 201.824 122.604 201.16 122.892C200.504 123.172 199.796 123.312 199.036 123.312ZM212.289 123.312C211.305 123.312 210.405 123.088 209.589 122.64C208.781 122.192 208.137 121.592 207.657 120.84C207.177 120.088 206.937 119.252 206.937 118.332C206.937 117.436 207.185 116.62 207.681 115.884C208.177 115.14 208.821 114.564 209.613 114.156C208.957 113.78 208.417 113.268 207.993 112.62C207.569 111.964 207.357 111.244 207.357 110.46C207.357 109.62 207.577 108.856 208.017 108.168C208.465 107.472 209.061 106.92 209.805 106.512C210.557 106.096 211.385 105.888 212.289 105.888C213.193 105.888 214.017 106.096 214.761 106.512C215.513 106.92 216.109 107.472 216.549 108.168C216.997 108.856 217.221 109.62 217.221 110.46C217.221 111.244 217.009 111.964 216.585 112.62C216.169 113.268 215.629 113.78 214.965 114.156C215.773 114.564 216.421 115.14 216.909 115.884C217.405 116.62 217.653 117.436 217.653 118.332C217.653 119.244 217.409 120.08 216.921 120.84C216.441 121.592 215.797 122.192 214.989 122.64C214.181 123.088 213.281 123.312 212.289 123.312ZM212.289 121.632C212.953 121.632 213.553 121.484 214.089 121.188C214.625 120.892 215.053 120.496 215.373 120C215.693 119.496 215.853 118.94 215.853 118.332C215.853 117.724 215.693 117.172 215.373 116.676C215.053 116.18 214.625 115.784 214.089 115.488C213.553 115.192 212.953 115.044 212.289 115.044C211.641 115.044 211.045 115.192 210.501 115.488C209.965 115.784 209.533 116.18 209.205 116.676C208.885 117.172 208.725 117.724 208.725 118.332C208.725 118.94 208.885 119.496 209.205 120C209.533 120.496 209.965 120.892 210.501 121.188C211.045 121.484 211.641 121.632 212.289 121.632ZM212.289 113.364C212.873 113.364 213.401 113.236 213.873 112.98C214.345 112.716 214.721 112.364 215.001 111.924C215.289 111.484 215.433 110.996 215.433 110.46C215.433 109.924 215.289 109.44 215.001 109.008C214.721 108.568 214.345 108.22 213.873 107.964C213.401 107.7 212.873 107.568 212.289 107.568C211.713 107.568 211.185 107.7 210.705 107.964C210.233 108.22 209.853 108.568 209.565 109.008C209.285 109.44 209.145 109.924 209.145 110.46C209.145 110.996 209.285 111.484 209.565 111.924C209.853 112.364 210.233 112.716 210.705 112.98C211.185 113.236 211.713 113.364 212.289 113.364ZM220.47 123L230.166 106.2H232.11L222.414 123H220.47ZM222.438 112.764C221.91 112.764 221.43 112.636 220.998 112.38C220.566 112.124 220.218 111.78 219.954 111.348C219.698 110.908 219.57 110.424 219.57 109.896C219.57 109.352 219.698 108.864 219.954 108.432C220.218 108 220.566 107.656 220.998 107.4C221.438 107.144 221.918 107.016 222.438 107.016C222.966 107.016 223.446 107.148 223.878 107.412C224.31 107.668 224.654 108.012 224.91 108.444C225.174 108.876 225.306 109.36 225.306 109.896C225.306 110.432 225.174 110.916 224.91 111.348C224.654 111.78 224.306 112.124 223.866 112.38C223.434 112.636 222.958 112.764 222.438 112.764ZM222.438 111.48C222.886 111.48 223.262 111.328 223.566 111.024C223.87 110.712 224.022 110.336 224.022 109.896C224.022 109.448 223.87 109.072 223.566 108.768C223.262 108.456 222.886 108.3 222.438 108.3C221.998 108.3 221.622 108.456 221.31 108.768C221.006 109.072 220.854 109.448 220.854 109.896C220.854 110.336 221.006 110.712 221.31 111.024C221.622 111.328 221.998 111.48 222.438 111.48ZM230.166 122.196C229.638 122.196 229.154 122.064 228.714 121.8C228.282 121.528 227.934 121.176 227.67 120.744C227.414 120.304 227.286 119.828 227.286 119.316C227.286 118.78 227.418 118.296 227.682 117.864C227.946 117.424 228.294 117.076 228.726 116.82C229.166 116.564 229.646 116.436 230.166 116.436C230.702 116.436 231.186 116.568 231.618 116.832C232.05 117.096 232.394 117.448 232.65 117.888C232.906 118.32 233.034 118.796 233.034 119.316C233.034 119.844 232.906 120.328 232.65 120.768C232.394 121.2 232.046 121.548 231.606 121.812C231.174 122.068 230.694 122.196 230.166 122.196ZM230.166 120.912C230.598 120.912 230.97 120.756 231.282 120.444C231.594 120.132 231.75 119.756 231.75 119.316C231.75 118.876 231.594 118.5 231.282 118.188C230.97 117.876 230.598 117.72 230.166 117.72C229.726 117.72 229.346 117.876 229.026 118.188C228.714 118.5 228.558 118.876 228.558 119.316C228.558 119.756 228.714 120.132 229.026 120.444C229.346 120.756 229.726 120.912 230.166 120.912Z" fill="white"/>
</g>
<defs>
<filter id="filter0_b_6421_6430" x="134.678" y="47.1792" width="151.984" height="112.562" filterUnits="userSpaceOnUse" color-interpolation-filters="sRGB">
<feFlood flood-opacity="0" result="BackgroundImageFix"/>
<feGaussianBlur in="BackgroundImageFix" stdDeviation="13.0286"/>
<feComposite in2="SourceAlpha" operator="in" result="effect1_backgroundBlur_6421_6430"/>
<feBlend mode="normal" in="SourceGraphic" in2="effect1_backgroundBlur_6421_6430" result="shape"/>
</filter>
<linearGradient id="paint0_linear_6421_6430" x1="5.95479e-06" y1="4.12924" x2="110.958" y2="222.28" gradientUnits="userSpaceOnUse">
<stop stop-color="white"/>
<stop offset="1" stop-color="white" stop-opacity="0"/>
</linearGradient>
</defs>
</svg>
