<svg width="128" height="128" viewBox="0 0 128 128" fill="none" xmlns="http://www.w3.org/2000/svg">
<path d="M18.3132 0.30522H109.687C119.632 0.30522 127.695 8.36766 127.695 18.3132V109.687C127.695 119.632 119.632 127.695 109.687 127.695H18.3132C8.36766 127.695 0.30522 119.632 0.30522 109.687V18.3132C0.30522 8.36766 8.36766 0.30522 18.3132 0.30522Z" fill="white" fill-opacity="0.06" stroke="url(#paint0_linear_6680_1400)" stroke-width="0.610439"/>
<path d="M72.1402 56.2052L83.1771 45.1684C83.2229 45.1225 83.2487 45.0603 83.2486 44.9954C83.2486 44.9305 83.2227 44.8684 83.1767 44.8226C78.2637 39.9295 71.4801 36.8855 64 36.8855C49.0204 36.8855 36.8855 49.0204 36.8855 64C36.8855 78.9796 49.0204 91.1145 64 91.1145C71.4995 91.1145 78.2637 88.0904 83.1771 83.177C83.2725 83.0817 83.2725 82.927 83.1771 82.8316L72.1402 71.7947H83.3198C85.4776 71.7947 87.411 70.9189 88.8338 69.5165L88.835 69.5152C90.2393 68.1109 91.1145 66.1569 91.1145 64C91.1145 59.7058 87.6345 56.2052 83.3198 56.2052H72.1402ZM70.9411 71.3062H53.0193C48.9753 71.3062 45.7131 68.0252 45.7131 64C45.7131 61.9778 46.5331 60.147 47.8489 58.8308C49.1861 57.5131 50.9981 56.6938 53.0193 56.6938H70.9411L63.8076 63.8273C63.7122 63.9227 63.7122 64.0773 63.8076 64.1727L70.9411 71.3062Z" fill="#0D0D0D" stroke="url(#paint1_linear_6680_1400)" stroke-width="0.48855" stroke-linejoin="round"/>
<defs>
<linearGradient id="paint0_linear_6680_1400" x1="64" y1="0" x2="64" y2="128" gradientUnits="userSpaceOnUse">
<stop stop-color="#565656" stop-opacity="0.21"/>
<stop offset="1" stop-color="#111111"/>
</linearGradient>
<linearGradient id="paint1_linear_6680_1400" x1="34.6715" y1="28.173" x2="88.014" y2="90.7406" gradientUnits="userSpaceOnUse">
<stop stop-color="#555454"/>
<stop offset="1" stop-color="#1C1C1C" stop-opacity="0.42"/>
</linearGradient>
</defs>
</svg>
