<svg width="128" height="128" viewBox="0 0 128 128" fill="none" xmlns="http://www.w3.org/2000/svg">
<path d="M18.3132 0.244275H109.687C119.666 0.244275 127.756 8.334 127.756 18.3132V109.687C127.756 119.666 119.666 127.756 109.687 127.756H18.3132C8.334 127.756 0.244275 119.666 0.244275 109.687V18.3132C0.244275 8.334 8.334 0.244275 18.3132 0.244275Z" fill="#FE4A23" stroke="url(#paint0_linear_6681_1427)" stroke-width="0.48855"/>
<path d="M86.7363 63.5114C86.7363 56.5447 87.7417 49.6344 89.7015 42.9838C90.7182 39.5231 87.5214 36.322 84.0591 37.3325C77.4056 39.2859 70.4867 40.2796 63.517 40.2796C56.5416 40.2796 49.6226 39.2746 42.9635 37.3213C39.5069 36.305 36.3044 39.5005 37.3211 42.9613C39.2753 49.6175 40.275 56.5391 40.275 63.5114C40.275 70.4838 39.2753 77.4054 37.3211 84.0673C36.3044 87.5224 39.5069 90.7178 42.9635 89.7016C49.6226 87.7482 56.5472 86.7489 63.517 86.7489C70.4867 86.7489 77.4056 87.7369 84.0591 89.6903C87.5214 90.7009 90.7182 87.5055 89.7015 84.0447C87.7417 77.3884 86.7363 70.4782 86.7363 63.5114ZM84.0252 65.9842C80.2466 68.0449 76.773 70.6419 73.7174 73.7018C70.6618 76.7618 68.0637 80.2339 65.9965 84.0108C64.9233 85.9755 62.1162 85.9755 61.0431 84.0108C58.9815 80.2339 56.3834 76.7618 53.3222 73.7018C50.2552 70.6419 46.7817 68.0449 43.0031 65.9786C41.0375 64.9059 41.0375 62.1 43.0031 61.0273C46.7817 58.9667 50.2552 56.3697 53.3222 53.3097C56.3778 50.2554 58.9759 46.7834 61.0431 43.0064C62.1162 41.0474 64.9233 41.0474 65.9908 43.0121C68.0524 46.7947 70.6449 50.2667 73.7061 53.321C76.7618 56.3753 80.241 58.9723 84.0196 61.033C85.9851 62.1 85.9851 64.9059 84.0252 65.9842Z" fill="white"/>
<defs>
<linearGradient id="paint0_linear_6681_1427" x1="64" y1="0" x2="64" y2="128" gradientUnits="userSpaceOnUse">
<stop stop-color="white" stop-opacity="0.49"/>
<stop offset="1" stop-color="white" stop-opacity="0"/>
</linearGradient>
</defs>
</svg>
