<svg width="128" height="128" viewBox="0 0 128 128" fill="none" xmlns="http://www.w3.org/2000/svg">
<path d="M18.3132 0.30522H109.687C119.632 0.30522 127.695 8.36766 127.695 18.3132V109.687C127.695 119.632 119.632 127.695 109.687 127.695H18.3132C8.36766 127.695 0.30522 119.632 0.30522 109.687V18.3132C0.30522 8.36766 8.36766 0.30522 18.3132 0.30522Z" fill="white" fill-opacity="0.06" stroke="url(#paint0_linear_6680_1387)" stroke-width="0.610439"/>
<path d="M54.2351 71.4627C53.0558 71.0239 51.7875 70.8767 50.5388 71.0338C49.29 71.1909 48.0981 71.6476 47.0649 72.3647C46.0318 73.0818 45.1883 74.038 44.6066 75.1515C44.0249 76.2649 43.7224 77.5023 43.725 78.7579V90.8702H41.6953C40.4857 90.8661 39.3268 90.385 38.4715 89.5318C37.6162 88.6785 37.1338 87.5225 37.1298 86.3159V41.679C37.1339 40.4728 37.6163 39.3173 38.4718 38.4649C39.3273 37.6125 40.4862 37.1325 41.6953 37.1298H43.725V49.3142C43.725 51.3638 44.5412 53.3295 45.994 54.7787C47.4469 56.228 49.4174 57.0422 51.472 57.0422H51.5598C53.4228 57.025 55.2202 56.3537 56.6366 55.1463C58.3275 53.7314 60.388 52.8274 62.5761 52.5403C64.7641 52.2532 66.9889 52.595 68.989 53.5255C70.9891 54.4561 72.6814 55.9368 73.8671 57.7936C75.0528 59.6504 75.6827 61.8062 75.6827 64.0077C75.6827 66.2092 75.0528 68.3651 73.8671 70.2219C72.6814 72.0787 70.9891 73.5593 68.989 74.4899C66.9889 75.4205 64.7641 75.7623 62.5761 75.4752C60.388 75.1881 58.3275 74.284 56.6366 72.8692C55.9232 72.2659 55.1108 71.7901 54.2351 71.4627Z" fill="#0D0D0D"/>
<path d="M90.8701 41.679V86.3159C90.866 87.5225 90.3834 88.6785 89.5277 89.5318C88.6719 90.385 87.5124 90.8661 86.3022 90.8702H52.3171V80.6641C55.4036 82.7997 59.0228 84.0416 62.7738 84.2523C66.5247 84.463 70.2609 83.6342 73.5684 81.8578C76.876 80.0815 79.6257 77.4268 81.513 74.188C83.4003 70.9492 84.3515 67.2527 84.2611 63.508C84.174 59.8456 83.0936 56.2752 81.1348 53.1758C79.1761 50.0765 76.412 47.5639 73.1361 45.9049C69.8602 44.2459 66.1949 43.5025 62.5293 43.7535C58.8637 44.0046 55.3347 45.2407 52.3171 47.3307V37.1298H86.3022C87.512 37.1325 88.6714 37.6125 89.5273 38.4649C90.3833 39.3173 90.866 40.4728 90.8701 41.679Z" fill="#0D0D0D"/>
<mask id="path-4-outside-1_6680_1387" maskUnits="userSpaceOnUse" x="36.1298" y="36.1298" width="56" height="56" fill="black">
<rect fill="white" x="36.1298" y="36.1298" width="56" height="56"/>
<path fill-rule="evenodd" clip-rule="evenodd" d="M90.8701 86.3159V41.679C90.866 40.4728 90.3833 39.3173 89.5273 38.4649C88.6714 37.6125 87.512 37.1325 86.3022 37.1298H52.3171V47.3307C55.3347 45.2407 58.8637 44.0046 62.5293 43.7535C66.1949 43.5025 69.8602 44.2459 73.1361 45.9049C76.412 47.5639 79.1761 50.0765 81.1348 53.1758C83.0936 56.2752 84.174 59.8456 84.2611 63.508C84.3515 67.2527 83.4003 70.9492 81.513 74.188C79.6257 77.4268 76.876 80.0815 73.5684 81.8578C70.2609 83.6342 66.5247 84.463 62.7738 84.2523C59.0228 84.0416 55.4036 82.7997 52.3171 80.6641V90.8702H86.3022C87.5124 90.8661 88.6719 90.385 89.5277 89.5318C90.3834 88.6786 90.866 87.5225 90.8701 86.3159ZM50.5388 71.0338C51.7875 70.8767 53.0558 71.0239 54.2351 71.4627C55.1108 71.7901 55.9232 72.2659 56.6366 72.8692C58.3275 74.284 60.388 75.1881 62.576 75.4752C64.7641 75.7623 66.9889 75.4205 68.989 74.4899C70.9891 73.5593 72.6814 72.0787 73.8671 70.2219C75.0528 68.3651 75.6827 66.2093 75.6827 64.0077C75.6827 61.8062 75.0528 59.6504 73.8671 57.7936C72.6814 55.9368 70.9891 54.4561 68.989 53.5255C66.9889 52.595 64.7641 52.2532 62.576 52.5403C60.388 52.8274 58.3275 53.7314 56.6366 55.1463C55.2202 56.3537 53.4228 57.025 51.5598 57.0422H51.472C49.4173 57.0422 47.4469 56.228 45.994 54.7788C44.5412 53.3295 43.725 51.3638 43.725 49.3142V37.1298H41.6953C40.4862 37.1325 39.3273 37.6125 38.4718 38.4649C37.6163 39.3173 37.1339 40.4728 37.1298 41.679V86.3159C37.1338 87.5225 37.6162 88.6786 38.4715 89.5318C39.3268 90.385 40.4857 90.8661 41.6953 90.8702H43.725V78.7579C43.7224 77.5023 44.0249 76.2649 44.6066 75.1515C45.1883 74.038 46.0318 73.0818 47.0649 72.3647C48.0981 71.6476 49.29 71.1909 50.5388 71.0338Z"/>
</mask>
<path d="M90.8701 41.679L91.3586 41.679L91.3586 41.6773L90.8701 41.679ZM90.8701 86.3159L91.3586 86.3175V86.3159H90.8701ZM89.5273 38.4649L89.1826 38.811L89.1826 38.811L89.5273 38.4649ZM86.3022 37.1298L86.3033 36.6412H86.3022V37.1298ZM52.3171 37.1298V36.6412C52.0473 36.6412 51.8286 36.8599 51.8286 37.1298H52.3171ZM52.3171 47.3307H51.8286C51.8286 47.5124 51.9295 47.6792 52.0904 47.7635C52.2514 47.8478 52.4459 47.8358 52.5953 47.7323L52.3171 47.3307ZM62.5293 43.7535L62.5627 44.2409L62.5627 44.2409L62.5293 43.7535ZM73.1361 45.9049L72.9154 46.3408L72.9154 46.3408L73.1361 45.9049ZM81.1348 53.1758L81.5478 52.9148L81.5478 52.9148L81.1348 53.1758ZM84.2611 63.508L83.7727 63.5196L83.7727 63.5198L84.2611 63.508ZM81.513 74.188L81.9351 74.434L81.9351 74.434L81.513 74.188ZM62.7738 84.2523L62.8012 83.7645L62.8012 83.7645L62.7738 84.2523ZM52.3171 80.6641L52.5951 80.2624C52.4457 80.159 52.2513 80.1471 52.0903 80.2314C51.9294 80.3157 51.8286 80.4824 51.8286 80.6641H52.3171ZM52.3171 90.8702H51.8286C51.8286 91.14 52.0473 91.3588 52.3171 91.3588V90.8702ZM86.3022 90.8702L86.3022 91.3588L86.3039 91.3588L86.3022 90.8702ZM54.2351 71.4627L54.4062 71.0051L54.4054 71.0048L54.2351 71.4627ZM50.5388 71.0338L50.5997 71.5186L50.5997 71.5186L50.5388 71.0338ZM56.6366 72.8692L56.3212 73.2422L56.3231 73.2438L56.6366 72.8692ZM68.989 74.4899L68.7829 74.0469L68.7829 74.0469L68.989 74.4899ZM73.8671 70.2219L74.2789 70.4848L74.2789 70.4848L73.8671 70.2219ZM73.8671 57.7936L74.2789 57.5306L74.2789 57.5306L73.8671 57.7936ZM68.989 53.5255L68.7829 53.9685L68.7829 53.9685L68.989 53.5255ZM62.576 52.5403L62.5125 52.0559L62.5125 52.0559L62.576 52.5403ZM56.6366 55.1463L56.3231 54.7716L56.3197 54.7745L56.6366 55.1463ZM51.5598 57.0422L51.5598 57.5308L51.5643 57.5308L51.5598 57.0422ZM45.994 54.7788L46.3391 54.4329L46.3391 54.4329L45.994 54.7788ZM43.725 37.1298H44.2136C44.2136 36.8599 43.9948 36.6412 43.725 36.6412V37.1298ZM41.6953 37.1298V36.6412L41.6942 36.6412L41.6953 37.1298ZM38.4718 38.4649L38.8166 38.811L38.8166 38.811L38.4718 38.4649ZM37.1298 41.679L36.6412 41.6773V41.679H37.1298ZM37.1298 86.3159H36.6412L36.6412 86.3175L37.1298 86.3159ZM38.4715 89.5318L38.8165 89.1859L38.8165 89.1859L38.4715 89.5318ZM41.6953 90.8702L41.6937 91.3588H41.6953V90.8702ZM43.725 90.8702V91.3588C43.9948 91.3588 44.2136 91.14 44.2136 90.8702H43.725ZM43.725 78.7579H44.2136L44.2136 78.7569L43.725 78.7579ZM44.6066 75.1515L44.1736 74.9252L44.1736 74.9252L44.6066 75.1515ZM47.0649 72.3647L46.7863 71.9634L46.7863 71.9634L47.0649 72.3647ZM90.3815 41.679V86.3159H91.3586V41.679H90.3815ZM89.1826 38.811C89.947 39.5723 90.3779 40.604 90.3815 41.6806L91.3586 41.6773C91.3541 40.3416 90.8195 39.0622 89.8721 38.1187L89.1826 38.811ZM86.3011 37.6183C87.3822 37.6207 88.4181 38.0497 89.1826 38.811L89.8721 38.1187C88.9248 37.1752 87.6417 36.6442 86.3033 36.6412L86.3011 37.6183ZM52.3171 37.6183H86.3022V36.6412H52.3171V37.6183ZM52.8057 47.3307V37.1298H51.8286V47.3307H52.8057ZM62.4959 43.2661C58.7426 43.5232 55.129 44.7889 52.039 46.9291L52.5953 47.7323C55.5405 45.6925 58.9848 44.486 62.5627 44.2409L62.4959 43.2661ZM73.3568 45.4691C70.0024 43.7703 66.2492 43.0091 62.4959 43.2661L62.5627 44.2409C66.1405 43.9959 69.7181 44.7216 72.9154 46.3408L73.3568 45.4691ZM81.5478 52.9148C79.5418 49.7408 76.7113 47.1678 73.3568 45.4691L72.9154 46.3408C76.1127 47.96 78.8103 50.4122 80.7219 53.4369L81.5478 52.9148ZM84.7496 63.4963C84.6603 59.7455 83.5538 56.0889 81.5478 52.9148L80.7219 53.4369C82.6334 56.4615 83.6877 59.9458 83.7727 63.5196L84.7496 63.4963ZM81.9351 74.434C83.8679 71.1171 84.8421 67.3313 84.7496 63.4962L83.7727 63.5198C83.8609 67.174 82.9327 70.7813 81.0909 73.942L81.9351 74.434ZM73.7996 82.2882C77.1864 80.4693 80.0023 77.7508 81.9351 74.434L81.0909 73.942C79.2491 77.1028 76.5655 79.6937 73.3373 81.4274L73.7996 82.2882ZM62.7464 84.7401C66.587 84.9558 70.4127 84.1072 73.7996 82.2882L73.3373 81.4274C70.109 83.1612 66.4623 83.9702 62.8012 83.7645L62.7464 84.7401ZM52.0392 81.0659C55.1997 83.2527 58.9057 84.5243 62.7464 84.7401L62.8012 83.7645C59.14 83.5588 55.6075 82.3466 52.5951 80.2624L52.0392 81.0659ZM52.8057 90.8702V80.6641H51.8286V90.8702H52.8057ZM86.3022 90.3817H52.3171V91.3588H86.3022V90.3817ZM89.1827 89.1858C88.4183 89.948 87.3823 90.378 86.3006 90.3817L86.3039 91.3588C87.6426 91.3543 88.9255 90.822 89.8726 89.8777L89.1827 89.1858ZM90.3815 86.3142C90.3779 87.3914 89.9471 88.4237 89.1827 89.1858L89.8726 89.8777C90.8197 88.9334 91.3541 87.6536 91.3586 86.3175L90.3815 86.3142ZM54.4054 71.0048C53.1523 70.5385 51.8046 70.3822 50.4778 70.5491L50.5997 71.5186C51.7703 71.3713 52.9593 71.5092 54.0647 71.9205L54.4054 71.0048ZM56.9521 72.4961C56.1957 71.8566 55.3344 71.3522 54.4062 71.0051L54.0639 71.9203C54.8871 72.2281 55.6507 72.6753 56.3212 73.2422L56.9521 72.4961ZM62.6396 74.9908C60.5435 74.7158 58.5697 73.8497 56.9501 72.4945L56.3231 73.2438C58.0852 74.7183 60.2324 75.6604 62.5125 75.9596L62.6396 74.9908ZM68.7829 74.0469C66.867 74.9384 64.7357 75.2658 62.6396 74.9908L62.5125 75.9596C64.7925 76.2587 67.1109 75.9026 69.1951 74.9328L68.7829 74.0469ZM73.4554 69.9589C72.3198 71.7373 70.6988 73.1555 68.7829 74.0469L69.1951 74.9328C71.2794 73.9631 73.0431 72.4201 74.2789 70.4848L73.4554 69.9589ZM75.1941 64.0077C75.1941 66.116 74.591 68.1806 73.4554 69.9589L74.2789 70.4848C75.5147 68.5495 76.1712 66.3025 76.1712 64.0077H75.1941ZM73.4554 58.0565C74.591 59.8349 75.1941 61.8994 75.1941 64.0077H76.1712C76.1712 61.7129 75.5147 59.4659 74.2789 57.5306L73.4554 58.0565ZM68.7829 53.9685C70.6988 54.8599 72.3198 56.2782 73.4554 58.0565L74.2789 57.5306C73.0431 55.5954 71.2794 54.0523 69.1951 53.0826L68.7829 53.9685ZM62.6396 53.0247C64.7357 52.7496 66.867 53.0771 68.7829 53.9685L69.1951 53.0826C67.1109 52.1129 64.7925 51.7567 62.5125 52.0559L62.6396 53.0247ZM56.9501 55.521C58.5697 54.1658 60.5435 53.2997 62.6396 53.0247L62.5125 52.0559C60.2324 52.355 58.0852 53.2971 56.3231 54.7716L56.9501 55.521ZM51.5643 57.5308C53.5418 57.5125 55.4499 56.8 56.9536 55.5181L56.3197 54.7745C54.9906 55.9075 53.3038 56.5375 51.5553 56.5537L51.5643 57.5308ZM51.472 57.5308H51.5598V56.5537H51.472V57.5308ZM45.649 55.1246C47.1936 56.6654 49.2882 57.5308 51.472 57.5308V56.5537C49.5465 56.5537 47.7002 55.7907 46.3391 54.4329L45.649 55.1246ZM43.2365 49.3142C43.2365 51.4938 44.1044 53.5838 45.649 55.1246L46.3391 54.4329C44.978 53.0751 44.2136 51.2339 44.2136 49.3142H43.2365ZM43.2365 37.1298V49.3142H44.2136V37.1298H43.2365ZM41.6953 37.6183H43.725V36.6412H41.6953V37.6183ZM38.8166 38.811C39.5807 38.0497 40.616 37.6207 41.6964 37.6183L41.6942 36.6412C40.3564 36.6442 39.0739 37.1753 38.127 38.1188L38.8166 38.811ZM37.6183 41.6806C37.622 40.604 38.0526 39.5722 38.8166 38.811L38.127 38.1188C37.18 39.0624 36.6457 40.3417 36.6412 41.6773L37.6183 41.6806ZM37.6183 86.3159V41.679H36.6412V86.3159H37.6183ZM38.8165 89.1859C38.0525 88.4238 37.622 87.3915 37.6183 86.3142L36.6412 86.3175C36.6457 87.6535 37.1798 88.9333 38.1265 89.8777L38.8165 89.1859ZM41.697 90.3817C40.616 90.378 39.5805 89.948 38.8165 89.1859L38.1265 89.8777C39.0731 90.822 40.3554 91.3543 41.6937 91.3588L41.697 90.3817ZM43.725 90.3817H41.6953V91.3588H43.725V90.3817ZM43.2365 78.7579V90.8702H44.2136V78.7579H43.2365ZM44.1736 74.9252C43.5553 76.1088 43.2337 77.4242 43.2365 78.7589L44.2136 78.7569C44.2111 77.5805 44.4946 76.421 45.0396 75.3777L44.1736 74.9252ZM46.7863 71.9634C45.6884 72.7255 44.7919 73.7417 44.1736 74.9252L45.0396 75.3777C45.5847 74.3343 46.3752 73.4382 47.3435 72.7661L46.7863 71.9634ZM50.4778 70.5491C49.1509 70.7161 47.8843 71.2013 46.7863 71.9634L47.3435 72.7661C48.3118 72.0939 49.4291 71.6658 50.5997 71.5186L50.4778 70.5491Z" fill="url(#paint1_linear_6680_1387)" mask="url(#path-4-outside-1_6680_1387)"/>
<defs>
<linearGradient id="paint0_linear_6680_1387" x1="64" y1="0" x2="64" y2="128" gradientUnits="userSpaceOnUse">
<stop stop-color="#7B7B7B" stop-opacity="0.21"/>
<stop offset="1" stop-color="#111111"/>
</linearGradient>
<linearGradient id="paint1_linear_6680_1387" x1="27.3118" y1="23.1779" x2="97.071" y2="97.5878" gradientUnits="userSpaceOnUse">
<stop stop-color="#424141"/>
<stop offset="1" stop-color="#212121" stop-opacity="0"/>
</linearGradient>
</defs>
</svg>
