<svg width="128" height="128" viewBox="0 0 128 128" fill="none" xmlns="http://www.w3.org/2000/svg">
<path d="M18.3132 0.30522H109.687C119.632 0.30522 127.695 8.36766 127.695 18.3132V109.687C127.695 119.632 119.632 127.695 109.687 127.695H18.3132C8.36766 127.695 0.30522 119.632 0.30522 109.687V18.3132C0.30522 8.36766 8.36766 0.30522 18.3132 0.30522Z" fill="white" fill-opacity="0.06" stroke="url(#paint0_linear_6680_1403)" stroke-width="0.610439"/>
<path d="M46.7267 72.2799C46.6331 72.375 46.6331 72.5275 46.7267 72.6225C56.543 82.6006 72.4071 82.6006 82.2234 72.6225C82.3169 72.5275 82.3169 72.375 82.2234 72.2799L73.5971 63.5115L82.2234 54.743C82.317 54.6479 82.3169 54.4951 82.2231 54.4001C72.4068 44.4538 56.5432 44.4538 46.7269 54.4001C46.6331 54.4951 46.633 54.6479 46.7267 54.743L55.3529 63.5115L46.7267 72.2799ZM72.9084 63.5115C68.2046 68.1105 60.7454 68.1105 56.0416 63.5115C60.7454 58.9125 68.2046 58.9125 72.9084 63.5115ZM55.8703 81.1888C55.8244 81.1419 55.7616 81.1154 55.696 81.1153C55.6304 81.1152 55.5675 81.1415 55.5215 81.1883L46.7267 90.128C46.6331 90.2231 46.6331 90.3756 46.7267 90.4707C56.543 100.449 72.4071 100.449 82.2234 90.4707C82.3169 90.3756 82.3169 90.2231 82.2234 90.128L73.4285 81.1883C73.3825 81.1415 73.3196 81.1152 73.254 81.1153C73.1884 81.1154 73.1256 81.1419 73.0797 81.1888C68.3307 86.0469 60.6193 86.0469 55.8703 81.1888ZM73.0797 45.8341C73.1256 45.881 73.1884 45.9075 73.254 45.9076C73.3196 45.9077 73.3825 45.8814 73.4285 45.8346L82.2234 36.8949C82.3169 36.7998 82.3169 36.6473 82.2234 36.5523C72.4071 26.5742 56.543 26.5742 46.7267 36.5523C46.6331 36.6473 46.6331 36.7998 46.7267 36.8949L55.5215 45.8346C55.5675 45.8814 55.6304 45.9077 55.696 45.9076C55.7616 45.9075 55.8244 45.881 55.8703 45.8341C60.6193 40.976 68.3307 40.976 73.0797 45.8341Z" fill="#0D0D0D" stroke="url(#paint1_linear_6680_1403)" stroke-width="0.48855" stroke-linejoin="round"/>
<defs>
<linearGradient id="paint0_linear_6680_1403" x1="64" y1="0" x2="64" y2="128" gradientUnits="userSpaceOnUse">
<stop stop-color="#565656" stop-opacity="0.21"/>
<stop offset="1" stop-color="#111111"/>
</linearGradient>
<linearGradient id="paint1_linear_6680_1403" x1="45.2929" y1="17.9135" x2="106.091" y2="54.5601" gradientUnits="userSpaceOnUse">
<stop stop-color="#555454"/>
<stop offset="1" stop-color="#1C1C1C" stop-opacity="0.42"/>
</linearGradient>
</defs>
</svg>
