<svg width="128" height="128" viewBox="0 0 128 128" fill="none" xmlns="http://www.w3.org/2000/svg">
<path d="M18.3132 0.244275H109.687C119.666 0.244275 127.756 8.334 127.756 18.3132V109.687C127.756 119.666 119.666 127.756 109.687 127.756H18.3132C8.334 127.756 0.244275 119.666 0.244275 109.687V18.3132C0.244275 8.334 8.334 0.244275 18.3132 0.244275Z" fill="white" fill-opacity="0.06" stroke="url(#paint0_linear_6680_1378)" stroke-width="0.48855"/>
<path d="M42.8946 37.5556L42.8948 37.5557C49.576 39.5155 56.5181 40.5239 63.517 40.5239C70.5099 40.5239 77.4519 39.5269 84.1277 37.567C87.4046 36.6107 90.4292 39.6395 89.4672 42.9148C87.5008 49.5877 86.492 56.5212 86.492 63.5114C86.492 70.5017 87.5008 77.4352 89.4672 84.1137C90.4292 87.3886 87.4049 90.4124 84.1275 89.4558C77.4516 87.4959 70.5097 86.5047 63.517 86.5047C56.5239 86.5047 49.5762 87.5073 42.8948 89.4672L42.8946 89.4673C39.6229 90.4291 36.5935 87.4052 37.5554 84.1362L37.5555 84.136C39.5163 77.4519 40.5193 70.5072 40.5193 63.5114C40.5193 56.5157 39.5163 49.571 37.5555 42.8924L37.5555 42.8924C36.5934 39.6174 39.6232 36.5938 42.8946 37.5556ZM84.1422 66.1987L84.143 66.1982C86.2707 65.0276 86.2726 61.9786 84.1365 60.8185C80.3783 58.769 76.9179 56.186 73.8788 53.1483L73.8787 53.1481C70.8342 50.1105 68.2558 46.6574 66.2054 42.8953C65.0452 40.7603 61.9945 40.7611 60.8289 42.8891L60.8288 42.8891C58.7727 46.6458 56.1886 50.0992 53.1495 53.137C50.099 56.1805 46.6441 58.7634 42.8861 60.8129L42.8861 60.8129C40.7508 61.9782 40.7508 65.0277 42.8861 66.193C46.6442 68.2481 50.099 70.8311 53.1495 73.8746C56.1943 76.9181 58.7783 80.3714 60.8287 84.1278L60.8287 84.1279C61.9945 86.2621 65.0451 86.2621 66.2109 84.1279C68.2669 80.3713 70.8511 76.9179 73.8903 73.8744C76.9293 70.8311 80.3841 68.2482 84.1422 66.1987Z" fill="black" stroke="url(#paint1_linear_6680_1378)" stroke-width="0.48855"/>
<defs>
<linearGradient id="paint0_linear_6680_1378" x1="64" y1="0" x2="64" y2="128" gradientUnits="userSpaceOnUse">
<stop stop-color="#080808" stop-opacity="0"/>
<stop offset="1" stop-color="#080808" stop-opacity="0.85"/>
</linearGradient>
<linearGradient id="paint1_linear_6680_1378" x1="63.5114" y1="37.1298" x2="63.5114" y2="89.8931" gradientUnits="userSpaceOnUse">
<stop stop-color="#080808" stop-opacity="0"/>
<stop offset="1" stop-color="#080808" stop-opacity="0.85"/>
</linearGradient>
</defs>
</svg>
