<svg width="128" height="128" viewBox="0 0 128 128" fill="none" xmlns="http://www.w3.org/2000/svg">
<path d="M18.3132 0.30522H109.687C119.632 0.30522 127.695 8.36766 127.695 18.3132V109.687C127.695 119.632 119.632 127.695 109.687 127.695H18.3132C8.36766 127.695 0.30522 119.632 0.30522 109.687V18.3132C0.30522 8.36766 8.36766 0.30522 18.3132 0.30522Z" fill="white" fill-opacity="0.06" stroke="url(#paint0_linear_6680_1406)" stroke-width="0.610439"/>
<mask id="path-2-outside-1_6680_1406" maskUnits="userSpaceOnUse" x="36.1298" y="36.1298" width="55" height="56" fill="black">
<rect fill="white" x="36.1298" y="36.1298" width="55" height="56"/>
<path fill-rule="evenodd" clip-rule="evenodd" d="M37.1298 90.8702H48.4911L58.2693 81.3524C59.9124 79.7494 60.8542 77.5453 60.8542 75.241V52.759C60.8542 50.4547 59.9124 48.2506 58.2693 46.6476L48.4911 37.1298H37.1298V41.1974L47.7697 51.5367C48.8718 52.6187 49.4929 54.0814 49.4929 55.6243V72.3756C49.4929 73.9185 48.8718 75.4013 47.7697 76.4633L37.1298 86.8026V90.8702ZM89.9286 37.1298H78.5674L68.7891 46.6476C67.146 48.2506 66.2043 50.4547 66.2043 52.759V75.241C66.2043 77.5453 67.146 79.7494 68.7891 81.3524L78.5674 90.8702H89.9286V86.8026L79.2887 76.4633C78.1867 75.3813 77.5655 73.9185 77.5655 72.3757V55.6243C77.5655 54.0815 78.1867 52.5987 79.2887 51.5367L89.9286 41.1974V37.1298Z"/>
</mask>
<path fill-rule="evenodd" clip-rule="evenodd" d="M37.1298 90.8702H48.4911L58.2693 81.3524C59.9124 79.7494 60.8542 77.5453 60.8542 75.241V52.759C60.8542 50.4547 59.9124 48.2506 58.2693 46.6476L48.4911 37.1298H37.1298V41.1974L47.7697 51.5367C48.8718 52.6187 49.4929 54.0814 49.4929 55.6243V72.3756C49.4929 73.9185 48.8718 75.4013 47.7697 76.4633L37.1298 86.8026V90.8702ZM89.9286 37.1298H78.5674L68.7891 46.6476C67.146 48.2506 66.2043 50.4547 66.2043 52.759V75.241C66.2043 77.5453 67.146 79.7494 68.7891 81.3524L78.5674 90.8702H89.9286V86.8026L79.2887 76.4633C78.1867 75.3813 77.5655 73.9185 77.5655 72.3757V55.6243C77.5655 54.0815 78.1867 52.5987 79.2887 51.5367L89.9286 41.1974V37.1298Z" fill="#0D0D0D"/>
<path d="M48.4911 90.8702V91.3588C48.6183 91.3588 48.7406 91.3091 48.8318 91.2203L48.4911 90.8702ZM37.1298 90.8702H36.6413C36.6413 91.14 36.86 91.3588 37.1298 91.3588V90.8702ZM58.2693 81.3524L58.6101 81.7025L58.6105 81.7021L58.2693 81.3524ZM58.2693 46.6476L58.6105 46.2979L58.6101 46.2975L58.2693 46.6476ZM48.4911 37.1298L48.8318 36.7797C48.7406 36.6909 48.6183 36.6412 48.4911 36.6412V37.1298ZM37.1298 37.1298V36.6412C36.86 36.6412 36.6413 36.8599 36.6413 37.1298H37.1298ZM37.1298 41.1974H36.6413C36.6413 41.3294 36.6947 41.4557 36.7893 41.5477L37.1298 41.1974ZM47.7697 51.5367L48.112 51.1881L48.1102 51.1863L47.7697 51.5367ZM47.7697 76.4633L47.4307 76.1115L47.4292 76.1129L47.7697 76.4633ZM37.1298 86.8026L36.7893 86.4522C36.6947 86.5442 36.6413 86.6706 36.6413 86.8026H37.1298ZM78.5674 37.1298V36.6412C78.4401 36.6412 78.3178 36.6909 78.2266 36.7797L78.5674 37.1298ZM89.9286 37.1298H90.4171C90.4171 36.8599 90.1984 36.6412 89.9286 36.6412V37.1298ZM68.7891 46.6476L68.4483 46.2975L68.4479 46.2979L68.7891 46.6476ZM68.7891 81.3524L68.4479 81.7021L68.4483 81.7025L68.7891 81.3524ZM78.5674 90.8702L78.2266 91.2203C78.3178 91.3091 78.4401 91.3588 78.5674 91.3588V90.8702ZM89.9286 90.8702V91.3588C90.1984 91.3588 90.4171 91.14 90.4171 90.8702H89.9286ZM89.9286 86.8026H90.4171C90.4171 86.6706 90.3637 86.5442 90.2691 86.4523L89.9286 86.8026ZM79.2887 76.4633L78.9464 76.8119L78.9482 76.8137L79.2887 76.4633ZM79.2887 51.5367L79.6277 51.8885L79.6292 51.8871L79.2887 51.5367ZM89.9286 41.1974L90.2691 41.5477C90.3637 41.4557 90.4171 41.3294 90.4171 41.1974H89.9286ZM48.4911 90.3817H37.1298V91.3588H48.4911V90.3817ZM57.9286 81.0023L48.1503 90.5201L48.8318 91.2203L58.6101 81.7025L57.9286 81.0023ZM60.3656 75.241C60.3656 77.4121 59.4781 79.4906 57.9282 81.0027L58.6105 81.7021C60.3467 80.0083 61.3427 77.6786 61.3427 75.241H60.3656ZM60.3656 52.759V75.241H61.3427V52.759H60.3656ZM57.9282 46.9972C59.4781 48.5094 60.3656 50.5879 60.3656 52.759H61.3427C61.3427 50.3214 60.3467 47.9917 58.6105 46.2979L57.9282 46.9972ZM48.1503 37.4798L57.9286 46.9976L58.6101 46.2975L48.8318 36.7797L48.1503 37.4798ZM37.1298 37.6183H48.4911V36.6412H37.1298V37.6183ZM37.6184 41.1974V37.1298H36.6413V41.1974H37.6184ZM48.1102 51.1863L37.4703 40.847L36.7893 41.5477L47.4292 51.8871L48.1102 51.1863ZM49.9815 55.6243C49.9815 53.9487 49.3064 52.3608 48.112 51.1881L47.4274 51.8853C48.4371 52.8766 49.0044 54.2142 49.0044 55.6243H49.9815ZM49.9815 72.3756V55.6243H49.0044V72.3756H49.9815ZM48.1087 76.8151C49.3082 75.6593 49.9815 74.0487 49.9815 72.3756H49.0044C49.0044 73.7884 48.4354 75.1434 47.4307 76.1115L48.1087 76.8151ZM37.4703 87.153L48.1102 76.8137L47.4292 76.1129L36.7893 86.4522L37.4703 87.153ZM37.6184 90.8702V86.8026H36.6413V90.8702H37.6184ZM78.5674 37.6183H89.9286V36.6412H78.5674V37.6183ZM69.1298 46.9976L78.9081 37.4798L78.2266 36.7797L68.4483 46.2975L69.1298 46.9976ZM66.6928 52.759C66.6928 50.5879 67.5803 48.5094 69.1302 46.9973L68.4479 46.2979C66.7117 47.9917 65.7157 50.3214 65.7157 52.759H66.6928ZM66.6928 75.241V52.759H65.7157V75.241H66.6928ZM69.1302 81.0027C67.5803 79.4906 66.6928 77.4121 66.6928 75.241H65.7157C65.7157 77.6786 66.7117 80.0083 68.4479 81.7021L69.1302 81.0027ZM78.9081 90.5201L69.1298 81.0023L68.4483 81.7025L78.2266 91.2203L78.9081 90.5201ZM89.9286 90.3817H78.5674V91.3588H89.9286V90.3817ZM89.4401 86.8026V90.8702H90.4171V86.8026H89.4401ZM78.9482 76.8137L89.5881 87.153L90.2691 86.4523L79.6292 76.1129L78.9482 76.8137ZM77.0769 72.3757C77.0769 74.0513 77.752 75.6392 78.9464 76.8119L79.631 76.1147C78.6213 75.1233 78.054 73.7857 78.054 72.3757H77.0769ZM77.0769 55.6243V72.3757H78.054V55.6243H77.0769ZM78.9497 51.1849C77.7503 52.3407 77.0769 53.9513 77.0769 55.6243H78.054C78.054 54.2116 78.623 52.8566 79.6277 51.8885L78.9497 51.1849ZM89.5881 40.847L78.9482 51.1863L79.6292 51.8871L90.2691 41.5477L89.5881 40.847ZM89.4401 37.1298V41.1974H90.4171V37.1298H89.4401Z" fill="url(#paint1_linear_6680_1406)" mask="url(#path-2-outside-1_6680_1406)"/>
<defs>
<linearGradient id="paint0_linear_6680_1406" x1="64" y1="0" x2="64" y2="128" gradientUnits="userSpaceOnUse">
<stop stop-color="#565656" stop-opacity="0.21"/>
<stop offset="1" stop-color="#111111"/>
</linearGradient>
<linearGradient id="paint1_linear_6680_1406" x1="34.7146" y1="28.173" x2="88.1983" y2="89.807" gradientUnits="userSpaceOnUse">
<stop stop-color="#555454"/>
<stop offset="1" stop-color="#1C1C1C" stop-opacity="0.42"/>
</linearGradient>
</defs>
</svg>
