<svg width="1310" height="700" viewBox="0 0 1310 700" fill="none" xmlns="http://www.w3.org/2000/svg">
<g opacity="0.4">
<g filter="url(#filter0_f_6721_55528)">
<path d="M798.683 -253.863L1110.49 -591.941L842.087 -218.472L226.283 536.705L-52.6846 834.506L182.883 501.315L798.683 -253.863Z" fill="url(#paint0_linear_6721_55528)" fill-opacity="0.12"/>
</g>
<g filter="url(#filter1_f_6721_55528)">
<path d="M924.129 -130.597L1213.78 -441.502L967.531 -95.207L398.762 602.291L139.445 875.995L355.362 566.902L924.129 -130.597Z" fill="url(#paint1_linear_6721_55528)" fill-opacity="0.12"/>
</g>
<g filter="url(#filter2_f_6721_55528)">
<path d="M865.996 -196.458L1195.98 -556.828L909.389 -161.069L255.009 641.426L-40.0786 958.996L211.608 606.036L865.996 -196.458Z" fill="url(#paint2_linear_6721_55528)" fill-opacity="0.2"/>
</g>
<g filter="url(#filter3_f_6721_55528)">
<path d="M670.684 128.732L960.338 -182.173L714.087 164.122L145.317 861.621L-114 1135.32L101.918 826.231L670.684 128.732Z" fill="url(#paint3_linear_6721_55528)" fill-opacity="0.2"/>
</g>
</g>
<defs>
<filter id="filter0_f_6721_55528" x="-148.685" y="-687.94" width="1355.18" height="1618.45" filterUnits="userSpaceOnUse" color-interpolation-filters="sRGB">
<feFlood flood-opacity="0" result="BackgroundImageFix"/>
<feBlend mode="normal" in="SourceGraphic" in2="BackgroundImageFix" result="shape"/>
<feGaussianBlur stdDeviation="48" result="effect1_foregroundBlur_6721_55528"/>
</filter>
<filter id="filter1_f_6721_55528" x="43.4446" y="-537.502" width="1266.34" height="1509.5" filterUnits="userSpaceOnUse" color-interpolation-filters="sRGB">
<feFlood flood-opacity="0" result="BackgroundImageFix"/>
<feBlend mode="normal" in="SourceGraphic" in2="BackgroundImageFix" result="shape"/>
<feGaussianBlur stdDeviation="48" result="effect1_foregroundBlur_6721_55528"/>
</filter>
<filter id="filter2_f_6721_55528" x="-136.079" y="-652.828" width="1428.06" height="1707.82" filterUnits="userSpaceOnUse" color-interpolation-filters="sRGB">
<feFlood flood-opacity="0" result="BackgroundImageFix"/>
<feBlend mode="normal" in="SourceGraphic" in2="BackgroundImageFix" result="shape"/>
<feGaussianBlur stdDeviation="48" result="effect1_foregroundBlur_6721_55528"/>
</filter>
<filter id="filter3_f_6721_55528" x="-210" y="-278.173" width="1266.34" height="1509.5" filterUnits="userSpaceOnUse" color-interpolation-filters="sRGB">
<feFlood flood-opacity="0" result="BackgroundImageFix"/>
<feBlend mode="normal" in="SourceGraphic" in2="BackgroundImageFix" result="shape"/>
<feGaussianBlur stdDeviation="48" result="effect1_foregroundBlur_6721_55528"/>
</filter>
<linearGradient id="paint0_linear_6721_55528" x1="1110.49" y1="-591.941" x2="-52.6845" y2="834.506" gradientUnits="userSpaceOnUse">
<stop stop-color="white"/>
<stop offset="1" stop-color="white" stop-opacity="0.54"/>
</linearGradient>
<linearGradient id="paint1_linear_6721_55528" x1="611.98" y1="295.807" x2="324.52" y2="682.338" gradientUnits="userSpaceOnUse">
<stop stop-color="white"/>
<stop offset="1" stop-color="white" stop-opacity="0"/>
</linearGradient>
<linearGradient id="paint2_linear_6721_55528" x1="503.641" y1="291.512" x2="176.005" y2="738.294" gradientUnits="userSpaceOnUse">
<stop stop-color="white"/>
<stop offset="1" stop-color="white" stop-opacity="0"/>
</linearGradient>
<linearGradient id="paint3_linear_6721_55528" x1="358.535" y1="555.136" x2="71.075" y2="941.667" gradientUnits="userSpaceOnUse">
<stop stop-color="white"/>
<stop offset="1" stop-color="white" stop-opacity="0"/>
</linearGradient>
</defs>
</svg>
