<svg width="151" height="151" viewBox="0 0 151 151" fill="none" xmlns="http://www.w3.org/2000/svg">
<rect width="151" height="151" rx="75.5" fill="#1B76FF"/>
<path d="M50.0917 67.9244V62.6092H44.7765V59.8174H50.0917V54.5022H52.8835V59.8174H58.1987V62.6092H52.8835V67.9244H50.0917ZM66.0394 69.6156C64.903 69.6156 63.8829 69.3516 62.9791 68.8237C62.0843 68.2957 61.3774 67.5888 60.8584 66.703C60.3394 65.8171 60.0799 64.8328 60.0799 63.7501H62.8717C62.8717 64.3138 63.006 64.8283 63.2744 65.2936C63.5429 65.7589 63.9142 66.1303 64.3885 66.4077C64.8627 66.6851 65.413 66.8238 66.0394 66.8238C66.6031 66.8238 67.1266 66.6851 67.6098 66.4077C68.093 66.1303 68.4822 65.7589 68.7775 65.2936C69.0728 64.8283 69.2205 64.3138 69.2205 63.7501C69.2205 63.0342 69.0325 62.4347 68.6567 61.9515C68.2809 61.4683 67.7574 61.1104 67.0863 60.8777C66.4242 60.6361 65.6591 60.5153 64.7911 60.5153V58.3141C65.9723 58.3141 66.9163 58.0814 67.6232 57.6161C68.3301 57.1508 68.6836 56.4573 68.6836 55.5357C68.6836 55.0525 68.5538 54.614 68.2943 54.2203C68.0438 53.8176 67.7082 53.5 67.2877 53.2673C66.876 53.0257 66.4331 52.9049 65.9589 52.9049C65.4667 52.9049 64.9925 53.0257 64.5361 53.2673C64.0887 53.5 63.7218 53.8176 63.4355 54.2203C63.1491 54.614 63.006 55.0525 63.006 55.5357H60.2141C60.2141 54.793 60.3663 54.095 60.6705 53.4418C60.9837 52.7796 61.4042 52.2025 61.9322 51.7103C62.4691 51.2092 63.0775 50.82 63.7576 50.5426C64.4466 50.2563 65.1669 50.1131 65.9186 50.1131C66.9029 50.1131 67.8156 50.3592 68.6567 50.8513C69.5068 51.3345 70.1869 51.9877 70.6969 52.811C71.2159 53.6252 71.4754 54.5335 71.4754 55.5357C71.4754 56.3321 71.2785 57.0882 70.8848 57.804C70.5 58.5109 69.9631 59.012 69.2741 59.3073C69.8737 59.5221 70.3748 59.8621 70.7774 60.3274C71.189 60.7838 71.4978 61.3117 71.7036 61.9112C71.9094 62.5018 72.0123 63.1147 72.0123 63.7501C72.0123 64.8238 71.7394 65.8081 71.1935 66.703C70.6477 67.5888 69.9184 68.2957 69.0057 68.8237C68.1019 69.3516 67.1132 69.6156 66.0394 69.6156ZM80.9215 69.6156C79.8119 69.6156 78.8097 69.365 77.9149 68.8639C77.029 68.3539 76.264 67.6515 75.6197 66.7566C74.9754 65.8618 74.4833 64.8283 74.1433 63.6561C73.8032 62.475 73.6332 61.2133 73.6332 59.871C73.6332 58.5288 73.8032 57.2671 74.1433 56.086C74.4833 54.9048 74.9754 53.8713 75.6197 52.9854C76.264 52.0906 77.029 51.3927 77.9149 50.8916C78.8097 50.3815 79.8119 50.1265 80.9215 50.1265C82.0132 50.1265 83.0064 50.3815 83.9012 50.8916C84.796 51.3927 85.5566 52.0906 86.183 52.9854C86.8183 53.8713 87.306 54.9048 87.646 56.086C87.986 57.2671 88.1561 58.5288 88.1561 59.871C88.1561 61.2133 87.986 62.475 87.646 63.6561C87.306 64.8283 86.8183 65.8618 86.183 66.7566C85.5566 67.6515 84.796 68.3539 83.9012 68.8639C83.0064 69.365 82.0132 69.6156 80.9215 69.6156ZM80.9215 66.8238C81.9505 66.8238 82.8051 66.5016 83.4851 65.8574C84.1741 65.2041 84.6887 64.3496 85.0287 63.2937C85.3687 62.2378 85.5387 61.0969 85.5387 59.871C85.5387 58.5825 85.3598 57.4148 85.0018 56.3678C84.6529 55.312 84.1339 54.4753 83.4449 53.8579C82.7648 53.2315 81.9237 52.9183 80.9215 52.9183C80.1251 52.9183 79.4316 53.1062 78.841 53.4821C78.2594 53.8579 77.7762 54.3724 77.3914 55.0256C77.0156 55.6788 76.7293 56.4215 76.5324 57.2537C76.3445 58.0859 76.2505 58.9583 76.2505 59.871C76.2505 61.0969 76.425 62.2378 76.774 63.2937C77.123 64.3496 77.642 65.2041 78.331 65.8574C79.0289 66.5016 79.8924 66.8238 80.9215 66.8238ZM91.5005 69.2666L102.346 50.4755H105.567L94.7218 69.2666H91.5005ZM93.7689 58.3543C93.0888 58.3543 92.4624 58.1888 91.8897 57.8577C91.326 57.5177 90.8741 57.0658 90.5341 56.5021C90.1941 55.9294 90.0241 55.2985 90.0241 54.6095C90.0241 53.8937 90.1941 53.2539 90.5341 52.6902C90.8831 52.1264 91.3394 51.6835 91.9032 51.3614C92.4758 51.0303 93.0977 50.8647 93.7689 50.8647C94.4579 50.8647 95.0842 51.0347 95.648 51.3748C96.2117 51.7059 96.6636 52.1533 97.0036 52.717C97.3436 53.2807 97.5137 53.9116 97.5137 54.6095C97.5137 55.3164 97.3392 55.9518 96.9902 56.5155C96.6502 57.0792 96.1938 57.5266 95.6211 57.8577C95.0574 58.1888 94.44 58.3543 93.7689 58.3543ZM93.7689 56.3813C94.27 56.3813 94.6905 56.2113 95.0305 55.8712C95.3706 55.5222 95.5406 55.1017 95.5406 54.6095C95.5406 54.1084 95.3706 53.6879 95.0305 53.3478C94.6905 52.9989 94.27 52.8244 93.7689 52.8244C93.2767 52.8244 92.8561 52.9989 92.5072 53.3478C92.1671 53.6879 91.9971 54.1084 91.9971 54.6095C91.9971 55.1017 92.1671 55.5222 92.5072 55.8712C92.8561 56.2113 93.2767 56.3813 93.7689 56.3813ZM103.325 68.9042C102.628 68.9042 101.992 68.7297 101.42 68.3807C100.856 68.0228 100.404 67.562 100.064 66.9982C99.7328 66.4256 99.5673 65.8081 99.5673 65.146C99.5673 64.448 99.7417 63.8172 100.091 63.2534C100.44 62.6808 100.896 62.2289 101.46 61.8978C102.032 61.5578 102.654 61.3878 103.325 61.3878C104.032 61.3878 104.668 61.5622 105.231 61.9112C105.795 62.2602 106.243 62.721 106.574 63.2937C106.905 63.8664 107.07 64.4838 107.07 65.146C107.07 65.835 106.9 66.4658 106.56 67.0385C106.229 67.6022 105.777 68.0541 105.205 68.3942C104.641 68.7342 104.014 68.9042 103.325 68.9042ZM103.325 66.9311C103.809 66.9311 104.225 66.7566 104.574 66.4077C104.923 66.0587 105.097 65.6381 105.097 65.146C105.097 64.6538 104.923 64.2333 104.574 63.8843C104.225 63.5353 103.809 63.3608 103.325 63.3608C102.833 63.3608 102.408 63.5353 102.05 63.8843C101.701 64.2333 101.527 64.6538 101.527 65.146C101.527 65.6381 101.701 66.0587 102.05 66.4077C102.408 66.7566 102.833 66.9311 103.325 66.9311Z" fill="white"/>
<path d="M47.235 91.6641C46.8591 91.6641 46.4951 91.6053 46.1427 91.4879C45.7938 91.3705 45.4884 91.2027 45.2267 90.9846C44.9649 90.7665 44.7804 90.5064 44.673 90.2044L45.3324 89.9578C45.4062 90.1658 45.5404 90.3453 45.735 90.4963C45.933 90.644 46.1629 90.7581 46.4246 90.8386C46.6897 90.9191 46.9598 90.9594 47.235 90.9594C47.5571 90.9594 47.8574 90.9057 48.1359 90.7983C48.4144 90.691 48.6393 90.5416 48.8104 90.3504C48.9815 90.1557 49.0671 89.9276 49.0671 89.6658C49.0671 89.4007 48.9782 89.1826 48.8003 89.0115C48.6225 88.8404 48.3926 88.7061 48.1108 88.6088C47.8323 88.5082 47.5403 88.431 47.235 88.3773C46.7551 88.2934 46.3239 88.1793 45.9414 88.035C45.5622 87.8907 45.2619 87.6877 45.0404 87.426C44.819 87.1609 44.7082 86.8119 44.7082 86.3791C44.7082 85.973 44.8257 85.6207 45.0606 85.3221C45.2955 85.0234 45.6042 84.7919 45.9867 84.6275C46.3726 84.463 46.7887 84.3808 47.235 84.3808C47.6007 84.3808 47.9581 84.4379 48.3071 84.552C48.656 84.6661 48.9631 84.8322 49.2282 85.0503C49.4966 85.2684 49.6896 85.5351 49.807 85.8506L49.1376 86.0922C49.0637 85.8808 48.9278 85.7012 48.7299 85.5536C48.5352 85.4026 48.3071 85.2885 48.0453 85.2113C47.7836 85.1308 47.5135 85.0905 47.235 85.0905C46.9162 85.0872 46.6175 85.1409 46.339 85.2516C46.0639 85.359 45.8407 85.51 45.6696 85.7046C45.4985 85.8959 45.4129 86.1207 45.4129 86.3791C45.4129 86.6811 45.4918 86.9143 45.6495 87.0787C45.8105 87.2398 46.0286 87.3606 46.3038 87.4411C46.579 87.5216 46.8893 87.5938 47.235 87.6575C47.6846 87.7347 48.1024 87.8555 48.4883 88.0199C48.8742 88.181 49.1845 88.3974 49.4194 88.6692C49.6543 88.9377 49.7718 89.2699 49.7718 89.6658C49.7718 90.0685 49.6543 90.4208 49.4194 90.7228C49.1845 91.0215 48.8742 91.253 48.4883 91.4174C48.1057 91.5819 47.688 91.6641 47.235 91.6641ZM51.5734 94.0499H50.8687V86.4999H51.5734V87.4411C51.7479 87.1223 51.9861 86.8639 52.2881 86.666C52.5901 86.468 52.9492 86.369 53.3653 86.369C53.731 86.369 54.0733 86.4378 54.3921 86.5754C54.7142 86.7129 54.9961 86.9042 55.2377 87.1492C55.4793 87.3908 55.6688 87.671 55.8064 87.9897C55.944 88.3085 56.0128 88.6508 56.0128 89.0165C56.0128 89.3823 55.944 89.7262 55.8064 90.0484C55.6688 90.3705 55.4793 90.654 55.2377 90.899C54.9961 91.1406 54.7142 91.3302 54.3921 91.4678C54.0733 91.6053 53.731 91.6741 53.3653 91.6741C52.9492 91.6741 52.5901 91.5751 52.2881 91.3772C51.9861 91.1792 51.7479 90.9208 51.5734 90.602V94.0499ZM53.3602 87.0535C53.0079 87.0535 52.7009 87.1425 52.4391 87.3203C52.1807 87.4948 51.9811 87.7297 51.8402 88.025C51.6992 88.3203 51.6288 88.6508 51.6288 89.0165C51.6288 89.3756 51.6975 89.7044 51.8351 90.0031C51.9761 90.3017 52.1757 90.54 52.4341 90.7178C52.6958 90.8956 53.0045 90.9846 53.3602 90.9846C53.7092 90.9846 54.0297 90.8973 54.3216 90.7228C54.6169 90.5483 54.8534 90.3135 55.0313 90.0182C55.2091 89.7195 55.2981 89.3856 55.2981 89.0165C55.2981 88.6575 55.2108 88.3303 55.0363 88.035C54.8618 87.7364 54.6286 87.4981 54.3367 87.3203C54.0448 87.1425 53.7193 87.0535 53.3602 87.0535ZM59.031 91.6641C58.5679 91.6641 58.1451 91.5449 57.7626 91.3067C57.3834 91.0685 57.0797 90.7497 56.8515 90.3504C56.6267 89.9477 56.5143 89.5031 56.5143 89.0165C56.5143 88.6474 56.5797 88.3035 56.7106 87.9847C56.8415 87.6626 57.021 87.3807 57.2492 87.1391C57.4807 86.8941 57.7492 86.7029 58.0545 86.5653C58.3599 86.4277 58.6854 86.3589 59.031 86.3589C59.4034 86.3589 59.7457 86.4328 60.0578 86.5804C60.3732 86.728 60.6433 86.9344 60.8681 87.1995C61.0963 87.4646 61.2675 87.775 61.3815 88.1307C61.499 88.4864 61.5476 88.8706 61.5275 89.2833H57.2592C57.2995 89.6021 57.4002 89.8873 57.5612 90.139C57.7257 90.3906 57.9337 90.5903 58.1854 90.7379C58.4404 90.8822 58.7223 90.956 59.031 90.9594C59.3665 90.9594 59.6685 90.8722 59.937 90.6977C60.2088 90.5232 60.4269 90.2833 60.5913 89.9779L61.306 90.144C61.1047 90.5903 60.801 90.956 60.395 91.2413C59.989 91.5231 59.5343 91.6641 59.031 91.6641ZM57.2391 88.7145H60.8178C60.7943 88.4025 60.6987 88.1172 60.5309 87.8589C60.3665 87.5971 60.1534 87.3891 59.8917 87.2347C59.6299 87.077 59.343 86.9982 59.031 86.9982C58.7189 86.9982 58.4337 87.0753 58.1753 87.2297C57.9169 87.3807 57.7055 87.5871 57.5411 87.8488C57.3767 88.1072 57.276 88.3958 57.2391 88.7145ZM64.5558 91.6641C64.0928 91.6641 63.67 91.5449 63.2874 91.3067C62.9083 91.0685 62.6046 90.7497 62.3764 90.3504C62.1516 89.9477 62.0392 89.5031 62.0392 89.0165C62.0392 88.6474 62.1046 88.3035 62.2355 87.9847C62.3663 87.6626 62.5459 87.3807 62.774 87.1391C63.0056 86.8941 63.274 86.7029 63.5794 86.5653C63.8847 86.4277 64.2102 86.3589 64.5558 86.3589C64.9283 86.3589 65.2706 86.4328 65.5826 86.5804C65.8981 86.728 66.1682 86.9344 66.393 87.1995C66.6212 87.4646 66.7923 87.775 66.9064 88.1307C67.0239 88.4864 67.0725 88.8706 67.0524 89.2833H62.7841C62.8244 89.6021 62.925 89.8873 63.0861 90.139C63.2505 90.3906 63.4586 90.5903 63.7102 90.7379C63.9653 90.8822 64.2471 90.956 64.5558 90.9594C64.8914 90.9594 65.1934 90.8722 65.4618 90.6977C65.7336 90.5232 65.9518 90.2833 66.1162 89.9779L66.8309 90.144C66.6296 90.5903 66.3259 90.956 65.9199 91.2413C65.5139 91.5231 65.0592 91.6641 64.5558 91.6641ZM62.764 88.7145H66.3427C66.3192 88.4025 66.2236 88.1172 66.0558 87.8589C65.8914 87.5971 65.6783 87.3891 65.4165 87.2347C65.1548 87.077 64.8679 86.9982 64.5558 86.9982C64.2438 86.9982 63.9586 87.0753 63.7002 87.2297C63.4418 87.3807 63.2304 87.5871 63.066 87.8488C62.9016 88.1072 62.8009 88.3958 62.764 88.7145ZM72.0085 83.9832H72.7132V91.5332H72.0085V90.592C71.834 90.9141 71.5941 91.1742 71.2887 91.3721C70.9867 91.5668 70.6277 91.6641 70.2116 91.6641C69.8458 91.6641 69.5036 91.5953 69.1848 91.4577C68.866 91.3201 68.5841 91.1305 68.3392 90.8889C68.0976 90.644 67.908 90.3621 67.7704 90.0433C67.6328 89.7246 67.5641 89.3823 67.5641 89.0165C67.5641 88.6508 67.6328 88.3085 67.7704 87.9897C67.908 87.6676 68.0976 87.3857 68.3392 87.1441C68.5841 86.8992 68.866 86.7079 69.1848 86.5703C69.5036 86.4328 69.8458 86.364 70.2116 86.364C70.6277 86.364 70.9867 86.463 71.2887 86.6609C71.5941 86.8556 71.834 87.1123 72.0085 87.431V83.9832ZM70.2166 90.9795C70.5757 90.9795 70.8844 90.8923 71.1428 90.7178C71.4011 90.54 71.5991 90.3017 71.7367 90.0031C71.8776 89.7044 71.9481 89.3756 71.9481 89.0165C71.9481 88.6474 71.8776 88.3152 71.7367 88.0199C71.5958 87.7213 71.3961 87.4847 71.1377 87.3102C70.8793 87.1357 70.5723 87.0485 70.2166 87.0485C69.8609 87.0485 69.5371 87.1374 69.2452 87.3153C68.9533 87.4898 68.72 87.7263 68.5456 88.025C68.3711 88.3236 68.2838 88.6541 68.2838 89.0165C68.2838 89.3823 68.3727 89.7145 68.5506 90.0131C68.7284 90.3084 68.9633 90.5433 69.2553 90.7178C69.5505 90.8923 69.871 90.9795 70.2166 90.9795ZM76.1388 89.6054V86.4999H76.8435V89.4645C76.8435 89.7397 76.9106 89.9896 77.0448 90.2145C77.179 90.4393 77.3586 90.6188 77.5834 90.753C77.8116 90.8873 78.0615 90.9544 78.3333 90.9544C78.6085 90.9544 78.8568 90.8873 79.0783 90.753C79.3031 90.6188 79.4826 90.4393 79.6168 90.2145C79.7511 89.9896 79.8182 89.7397 79.8182 89.4645V86.4999H80.5228L80.5279 91.5332H79.8232L79.8182 90.8285C79.6403 91.0836 79.4088 91.2866 79.1236 91.4376C78.8417 91.5886 78.533 91.6641 78.1974 91.6641C77.8183 91.6641 77.4726 91.5718 77.1606 91.3872C76.8485 91.2027 76.6002 90.9544 76.4156 90.6423C76.2311 90.3302 76.1388 89.9846 76.1388 89.6054ZM82.1371 94.0499H81.4325V86.4999H82.1371V87.4411C82.3116 87.1223 82.5499 86.8639 82.8519 86.666C83.1539 86.468 83.5129 86.369 83.929 86.369C84.2947 86.369 84.637 86.4378 84.9558 86.5754C85.2779 86.7129 85.5598 86.9042 85.8014 87.1492C86.043 87.3908 86.2326 87.671 86.3702 87.9897C86.5077 88.3085 86.5765 88.6508 86.5765 89.0165C86.5765 89.3823 86.5077 89.7262 86.3702 90.0484C86.2326 90.3705 86.043 90.654 85.8014 90.899C85.5598 91.1406 85.2779 91.3302 84.9558 91.4678C84.637 91.6053 84.2947 91.6741 83.929 91.6741C83.5129 91.6741 83.1539 91.5751 82.8519 91.3772C82.5499 91.1792 82.3116 90.9208 82.1371 90.602V94.0499ZM83.924 87.0535C83.5716 87.0535 83.2646 87.1425 83.0029 87.3203C82.7445 87.4948 82.5448 87.7297 82.4039 88.025C82.263 88.3203 82.1925 88.6508 82.1925 89.0165C82.1925 89.3756 82.2613 89.7044 82.3989 90.0031C82.5398 90.3017 82.7394 90.54 82.9978 90.7178C83.2596 90.8956 83.5683 90.9846 83.924 90.9846C84.2729 90.9846 84.5934 90.8973 84.8853 90.7228C85.1806 90.5483 85.4172 90.3135 85.595 90.0182C85.7729 89.7195 85.8618 89.3856 85.8618 89.0165C85.8618 88.6575 85.7745 88.3303 85.6001 88.035C85.4256 87.7364 85.1924 87.4981 84.9004 87.3203C84.6085 87.1425 84.283 87.0535 83.924 87.0535ZM93.3446 86.4999H94.0895L91.3363 94.0499H90.5863L91.5024 91.5332L89.6954 86.4999H90.4655L91.8547 90.5618L93.3446 86.4999ZM97.0071 91.6641C96.544 91.6641 96.1212 91.5449 95.7387 91.3067C95.3595 91.0685 95.0558 90.7497 94.8277 90.3504C94.6028 89.9477 94.4904 89.5031 94.4904 89.0165C94.4904 88.6474 94.5559 88.3035 94.6867 87.9847C94.8176 87.6626 94.9971 87.3807 95.2253 87.1391C95.4568 86.8941 95.7253 86.7029 96.0306 86.5653C96.336 86.4277 96.6615 86.3589 97.0071 86.3589C97.4702 86.3589 97.8913 86.4781 98.2705 86.7163C98.653 86.9545 98.9567 87.275 99.1815 87.6777C99.4097 88.0803 99.5238 88.5266 99.5238 89.0165C99.5238 89.3823 99.4583 89.7246 99.3275 90.0433C99.1966 90.3621 99.0154 90.644 98.7839 90.8889C98.5557 91.1305 98.2889 91.3201 97.9836 91.4577C97.6816 91.5953 97.3561 91.6641 97.0071 91.6641ZM97.0071 90.9594C97.3494 90.9594 97.6564 90.8705 97.9282 90.6926C98.2033 90.5114 98.4198 90.2732 98.5775 89.9779C98.7386 89.6826 98.8191 89.3622 98.8191 89.0165C98.8191 88.6642 98.7386 88.3404 98.5775 88.0451C98.4164 87.7465 98.1983 87.5082 97.9232 87.3304C97.6514 87.1525 97.346 87.0636 97.0071 87.0636C96.6648 87.0636 96.3561 87.1542 96.081 87.3354C95.8092 87.5132 95.5927 87.7498 95.4317 88.0451C95.2739 88.3404 95.1951 88.6642 95.1951 89.0165C95.1951 89.3789 95.2773 89.7078 95.4417 90.0031C95.6061 90.295 95.8259 90.5282 96.1011 90.7027C96.3762 90.8738 96.6782 90.9594 97.0071 90.9594ZM100.126 89.6054V86.4999H100.83V89.4645C100.83 89.7397 100.898 89.9896 101.032 90.2145C101.166 90.4393 101.346 90.6188 101.57 90.753C101.799 90.8873 102.049 90.9544 102.32 90.9544C102.595 90.9544 102.844 90.8873 103.065 90.753C103.29 90.6188 103.47 90.4393 103.604 90.2145C103.738 89.9896 103.805 89.7397 103.805 89.4645V86.4999H104.51L104.515 91.5332H103.81L103.805 90.8285C103.627 91.0836 103.396 91.2866 103.111 91.4376C102.829 91.5886 102.52 91.6641 102.184 91.6641C101.805 91.6641 101.46 91.5718 101.148 91.3872C100.835 91.2027 100.587 90.9544 100.403 90.6423C100.218 90.3302 100.126 89.9846 100.126 89.6054ZM105.518 91.5332V86.4999H106.222V87.1945C106.4 86.9394 106.632 86.7364 106.917 86.5854C107.202 86.4344 107.513 86.3589 107.848 86.3589C108.043 86.3589 108.231 86.3841 108.412 86.4344L108.125 87.1341C107.984 87.0904 107.847 87.0686 107.712 87.0686C107.44 87.0686 107.19 87.1357 106.962 87.27C106.737 87.4042 106.558 87.5837 106.424 87.8085C106.29 88.0334 106.222 88.2833 106.222 88.5585V91.5332H105.518ZM51.6422 109.05H50.9375V101.5H51.6422V102.441C51.8167 102.122 52.0549 101.864 52.3569 101.666C52.6589 101.468 53.018 101.369 53.4341 101.369C53.7998 101.369 54.1421 101.438 54.4609 101.575C54.783 101.713 55.0649 101.904 55.3065 102.149C55.5481 102.391 55.7377 102.671 55.8752 102.99C56.0128 103.309 56.0816 103.651 56.0816 104.017C56.0816 104.382 56.0128 104.726 55.8752 105.048C55.7377 105.371 55.5481 105.654 55.3065 105.899C55.0649 106.141 54.783 106.33 54.4609 106.468C54.1421 106.605 53.7998 106.674 53.4341 106.674C53.018 106.674 52.6589 106.575 52.3569 106.377C52.0549 106.179 51.8167 105.921 51.6422 105.602V109.05ZM53.429 102.054C53.0767 102.054 52.7697 102.142 52.5079 102.32C52.2496 102.495 52.0499 102.73 51.909 103.025C51.768 103.32 51.6976 103.651 51.6976 104.017C51.6976 104.376 51.7664 104.704 51.9039 105.003C52.0449 105.302 52.2445 105.54 52.5029 105.718C52.7646 105.896 53.0734 105.985 53.429 105.985C53.778 105.985 54.0985 105.897 54.3904 105.723C54.6857 105.548 54.9223 105.313 55.1001 105.018C55.278 104.72 55.3669 104.386 55.3669 104.017C55.3669 103.657 55.2796 103.33 55.1051 103.035C54.9307 102.736 54.6974 102.498 54.4055 102.32C54.1136 102.142 53.7881 102.054 53.429 102.054ZM56.9343 106.533V101.5H57.639V102.194C57.8168 101.939 58.0483 101.736 58.3336 101.585C58.6188 101.434 58.9292 101.359 59.2647 101.359C59.4593 101.359 59.6473 101.384 59.8285 101.434L59.5416 102.134C59.4006 102.09 59.263 102.069 59.1288 102.069C58.857 102.069 58.607 102.136 58.3789 102.27C58.154 102.404 57.9745 102.584 57.8403 102.809C57.7061 103.033 57.639 103.283 57.639 103.559V106.533H56.9343ZM62.4128 106.664C61.9497 106.664 61.5269 106.545 61.1444 106.307C60.7652 106.068 60.4615 105.75 60.2333 105.35C60.0085 104.948 59.8961 104.503 59.8961 104.017C59.8961 103.647 59.9615 103.303 60.0924 102.985C60.2233 102.663 60.4028 102.381 60.631 102.139C60.8625 101.894 61.1309 101.703 61.4363 101.565C61.7416 101.428 62.0671 101.359 62.4128 101.359C62.8758 101.359 63.2969 101.478 63.6761 101.716C64.0587 101.955 64.3623 102.275 64.5872 102.678C64.8153 103.08 64.9294 103.527 64.9294 104.017C64.9294 104.382 64.864 104.725 64.7331 105.043C64.6023 105.362 64.4211 105.644 64.1895 105.889C63.9613 106.131 63.6946 106.32 63.3892 106.458C63.0872 106.595 62.7617 106.664 62.4128 106.664ZM62.4128 105.959C62.755 105.959 63.0621 105.87 63.3339 105.693C63.609 105.511 63.8254 105.273 63.9832 104.978C64.1442 104.683 64.2248 104.362 64.2248 104.017C64.2248 103.664 64.1442 103.34 63.9832 103.045C63.8221 102.746 63.604 102.508 63.3288 102.33C63.057 102.153 62.7517 102.064 62.4128 102.064C62.0705 102.064 61.7618 102.154 61.4866 102.335C61.2148 102.513 60.9984 102.75 60.8373 103.045C60.6796 103.34 60.6008 103.664 60.6008 104.017C60.6008 104.379 60.683 104.708 60.8474 105.003C61.0118 105.295 61.2316 105.528 61.5068 105.703C61.7819 105.874 62.0839 105.959 62.4128 105.959ZM69.8752 98.9832H70.5799V106.533H69.8752V105.592C69.7007 105.914 69.4608 106.174 69.1555 106.372C68.8535 106.567 68.4944 106.664 68.0783 106.664C67.7126 106.664 67.3703 106.595 67.0515 106.458C66.7327 106.32 66.4509 106.131 66.2059 105.889C65.9643 105.644 65.7747 105.362 65.6372 105.043C65.4996 104.725 65.4308 104.382 65.4308 104.017C65.4308 103.651 65.4996 103.309 65.6372 102.99C65.7747 102.668 65.9643 102.386 66.2059 102.144C66.4509 101.899 66.7327 101.708 67.0515 101.57C67.3703 101.433 67.7126 101.364 68.0783 101.364C68.4944 101.364 68.8535 101.463 69.1555 101.661C69.4608 101.856 69.7007 102.112 69.8752 102.431V98.9832ZM68.0834 105.98C68.4424 105.98 68.7511 105.892 69.0095 105.718C69.2679 105.54 69.4658 105.302 69.6034 105.003C69.7444 104.704 69.8148 104.376 69.8148 104.017C69.8148 103.647 69.7444 103.315 69.6034 103.02C69.4625 102.721 69.2628 102.485 69.0045 102.31C68.7461 102.136 68.439 102.049 68.0834 102.049C67.7277 102.049 67.4039 102.137 67.1119 102.315C66.82 102.49 66.5868 102.726 66.4123 103.025C66.2378 103.324 66.1506 103.654 66.1506 104.017C66.1506 104.382 66.2395 104.714 66.4173 105.013C66.5952 105.308 66.8301 105.543 67.122 105.718C67.4173 105.892 67.7377 105.98 68.0834 105.98ZM71.5872 104.605V101.5H72.2918V104.465C72.2918 104.74 72.359 104.99 72.4932 105.214C72.6274 105.439 72.8069 105.619 73.0317 105.753C73.2599 105.887 73.5099 105.954 73.7817 105.954C74.0569 105.954 74.3052 105.887 74.5266 105.753C74.7515 105.619 74.931 105.439 75.0652 105.214C75.1994 104.99 75.2665 104.74 75.2665 104.465V101.5H75.9712L75.9762 106.533H75.2716L75.2665 105.829C75.0887 106.084 74.8572 106.287 74.5719 106.438C74.2901 106.589 73.9814 106.664 73.6458 106.664C73.2666 106.664 72.921 106.572 72.6089 106.387C72.2969 106.203 72.0486 105.954 71.864 105.642C71.6795 105.33 71.5872 104.985 71.5872 104.605ZM80.5336 105.27L81.1628 105.612C80.9346 105.931 80.6443 106.186 80.292 106.377C79.943 106.568 79.5639 106.664 79.1545 106.664C78.6914 106.664 78.2686 106.545 77.8861 106.307C77.5069 106.068 77.2032 105.75 76.975 105.35C76.7502 104.948 76.6378 104.503 76.6378 104.017C76.6378 103.647 76.7032 103.303 76.8341 102.985C76.965 102.663 77.1445 102.381 77.3727 102.139C77.6042 101.894 77.8727 101.703 78.178 101.565C78.4834 101.428 78.8089 101.359 79.1545 101.359C79.5639 101.359 79.943 101.455 80.292 101.646C80.6443 101.837 80.9346 102.094 81.1628 102.416L80.5336 102.753C80.3591 102.532 80.1494 102.362 79.9044 102.245C79.6595 102.124 79.4095 102.064 79.1545 102.064C78.8156 102.064 78.5085 102.154 78.2334 102.335C77.9582 102.513 77.7401 102.75 77.579 103.045C77.4213 103.34 77.3425 103.664 77.3425 104.017C77.3425 104.369 77.423 104.693 77.5841 104.988C77.7485 105.283 77.9683 105.52 78.2434 105.698C78.5186 105.872 78.8223 105.959 79.1545 105.959C79.4296 105.959 79.688 105.896 79.9296 105.768C80.1712 105.641 80.3725 105.475 80.5336 105.27ZM84.6435 102.205H83.4405L83.4355 106.533H82.7308L82.7359 102.205H81.8248V101.5H82.7359L82.7308 99.9194H83.4355L83.4405 101.5H84.6435V102.205ZM85.5024 101.5H86.2071V106.533H85.5024V101.5ZM85.8598 100.619C85.7457 100.619 85.6484 100.582 85.5678 100.508C85.4906 100.431 85.4521 100.335 85.4521 100.221C85.4521 100.107 85.4906 100.013 85.5678 99.9395C85.6484 99.8624 85.7457 99.8238 85.8598 99.8238C85.9705 99.8238 86.0644 99.8624 86.1416 99.9395C86.2222 100.013 86.2624 100.107 86.2624 100.221C86.2624 100.335 86.2238 100.431 86.1467 100.508C86.0695 100.582 85.9738 100.619 85.8598 100.619ZM89.7817 106.533H88.8857L87.0486 101.485H87.7985L89.3337 105.708L90.8689 101.485H91.6188L89.7817 106.533ZM92.4527 101.5H93.1574V106.533H92.4527V101.5ZM92.8101 100.619C92.696 100.619 92.5987 100.582 92.5181 100.508C92.441 100.431 92.4024 100.335 92.4024 100.221C92.4024 100.107 92.441 100.013 92.5181 99.9395C92.5987 99.8624 92.696 99.8238 92.8101 99.8238C92.9208 99.8238 93.0148 99.8624 93.0919 99.9395C93.1725 100.013 93.2127 100.107 93.2127 100.221C93.2127 100.335 93.1742 100.431 93.097 100.508C93.0198 100.582 92.9242 100.619 92.8101 100.619ZM96.9417 102.205H95.7388L95.7337 106.533H95.0291L95.0341 102.205H94.1231V101.5H95.0341L95.0291 99.9194H95.7337L95.7388 101.5H96.9417V102.205ZM101.199 101.5H101.944L99.191 109.05H98.441L99.3571 106.533L97.5501 101.5H98.3202L99.7094 105.562L101.199 101.5Z" fill="white"/>
</svg>
