<svg width="704" height="390" viewBox="0 0 704 390" fill="none" xmlns="http://www.w3.org/2000/svg">
<path d="M247.453 214.815C243.821 212.541 241.148 204.692 241.148 195.368C241.148 195.026 241.149 194.688 241.158 194.352L241.162 194.356C231.064 192.769 223.767 188.421 223.581 183.279L223.55 183.338C221.078 186.409 219.668 189.96 219.668 193.742C219.668 204.874 231.887 213.995 247.386 214.802L247.453 214.815ZM215 194.555C215 182.1 230.501 172 249.623 172C268.745 172 284.245 182.1 284.245 194.555C284.245 207.011 268.745 217.111 249.623 217.111C230.501 217.111 215 207.011 215 194.555ZM249.623 175.254C253.315 175.254 256.453 180.853 257.617 188.667L257.621 188.656C264.803 187.538 269.832 184.958 269.832 181.958C269.832 177.93 260.783 174.67 249.623 174.67C238.462 174.67 229.414 177.931 229.414 181.958C229.414 184.958 234.441 187.537 241.624 188.656L241.628 188.667C242.792 180.855 245.932 175.254 249.623 175.254ZM251.858 214.802C267.357 213.995 279.578 204.874 279.578 193.742C279.578 189.96 278.166 186.409 275.695 183.338L275.665 183.279C275.479 188.421 268.183 192.769 258.084 194.356L258.088 194.352C258.095 194.688 258.098 195.026 258.098 195.368C258.098 204.692 255.421 212.541 251.793 214.815L251.858 214.802ZM249.623 189.248C251.277 189.248 252.884 189.177 254.422 189.041L254.421 189.043C253.655 184.034 251.796 180.5 249.623 180.5C247.45 180.5 245.592 184.034 244.825 189.043L244.823 189.041C246.361 189.177 247.968 189.248 249.623 189.248ZM249.623 207.795C252.402 207.795 254.669 202.011 254.79 194.757L254.805 194.762C253.13 194.916 251.397 194.999 249.623 194.999C247.848 194.999 246.116 194.918 244.441 194.762L244.457 194.757C244.577 202.013 246.843 207.795 249.623 207.795ZM391.668 194.555C391.668 185.035 399.387 177.318 408.906 177.318C418.43 177.318 426.147 185.036 426.147 194.555C426.147 204.077 418.428 211.793 408.906 211.793C399.387 211.793 391.668 204.076 391.668 194.555ZM408.906 205.472C414.224 205.472 418.533 200.583 418.533 194.554C418.533 188.526 414.224 183.636 408.906 183.636C403.591 183.636 399.283 188.524 399.283 194.554C399.283 200.583 403.593 205.472 408.906 205.472ZM445.708 184.499V211.011H438.445V184.499H438.47H428.312V178.504H455.84V184.498L445.708 184.499ZM464.626 203.698L464.619 203.705L461.832 211.012H453.35L466.76 178.506H475.8L489.211 211.012H480.727L477.941 203.705L477.934 203.698H471.282H464.626ZM471.282 198.211H475.852L475.849 198.213L471.312 186.315H471.249L466.709 198.213L466.708 198.211H471.282ZM311.818 184.499V211.011H304.554V184.499H304.579H294.42V178.504H321.949V184.498L311.818 184.499ZM323.809 194.555C323.809 185.035 331.528 177.318 341.05 177.318C350.57 177.318 358.289 185.036 358.289 194.555C358.289 204.077 350.57 211.793 341.05 211.793C331.528 211.793 323.809 204.076 323.809 194.555ZM341.05 205.472C346.364 205.472 350.676 200.583 350.676 194.554C350.676 188.526 346.366 183.636 341.05 183.636C335.733 183.636 331.424 188.524 331.424 194.554C331.424 200.583 335.733 205.472 341.05 205.472ZM374.978 211.011H378.661V198.667L391.332 178.504H382.851L374.978 192.167L367.106 178.504H358.622L371.295 198.667V211.009L374.978 211.011Z" fill="#080808"/>
</svg>
