<svg width="388" height="390" viewBox="0 0 388 390" fill="none" xmlns="http://www.w3.org/2000/svg">
<path fill-rule="evenodd" clip-rule="evenodd" d="M171.347 163.045V204.933L281.933 204.976V163.045H171.347ZM279.044 202.041H174.237V166.025H279.044V202.041ZM99 163.09V204.933H130.393V163.09H99ZM125.146 183.943C125.146 191.28 120.967 197.417 115.319 199.15C114.275 199.507 113.177 199.688 112.073 199.684H105.537V168.246H112.074C113.178 168.242 114.275 168.422 115.32 168.779C120.967 170.515 125.146 176.651 125.146 183.943ZM131.95 163.09V204.933H163.387V163.09H131.95ZM150.314 168.379H156.85V199.773H150.314C149.158 199.773 148.091 199.595 147.024 199.284C141.376 197.55 137.24 191.37 137.24 184.077C137.24 176.74 141.376 170.605 147.024 168.871C148.091 168.549 149.199 168.383 150.314 168.379Z" fill="#080808"/>
<path fill-rule="evenodd" clip-rule="evenodd" d="M194.158 174.695H184.642V193.548H194.87C200.118 193.548 201.762 191.104 201.762 185.946V181.988C201.762 176.651 199.404 174.695 194.158 174.695ZM196.603 185.945C196.603 187.946 195.892 189.147 194.069 189.147H189.666V179.053H194.069C195.803 179.053 196.603 179.541 196.603 181.987V185.945ZM211.323 174.517C206.208 174.517 202.606 175.627 202.606 181.453V186.79C202.606 192.57 206.208 193.682 211.323 193.682C216.436 193.682 220.038 192.571 220.038 186.79V181.453C220.037 175.628 216.435 174.517 211.323 174.517ZM214.879 186.212C214.879 189.013 213.945 189.324 211.323 189.324C208.699 189.324 207.855 189.012 207.811 186.212V181.987C207.855 179.185 208.699 178.919 211.323 178.919C213.945 178.919 214.879 179.185 214.879 181.987V186.212ZM226.353 174.695H221.327V193.548H234.177V189.147H226.353V174.695ZM247.917 183.855C250.408 183.454 250.852 181.899 250.852 179.497C250.852 175.406 248.674 174.696 244.893 174.696H235.023V193.549H245.028C249.03 193.549 251.165 192.883 251.165 188.259C251.165 185.901 250.675 184.211 247.917 183.855ZM240.046 178.787H244.272C245.65 178.874 245.826 179.275 245.826 180.431C245.826 181.899 245.428 182.21 243.648 182.21H240.046V178.787ZM243.827 189.414H240.046V185.722H243.915C245.559 185.722 246.139 185.946 246.139 187.502C246.139 189.012 245.473 189.414 243.827 189.414ZM263.394 174.695L259.923 181.943H259.745L256.411 174.695H250.631L257.299 186.923V193.548H262.324V186.923L269.216 174.695H263.394ZM108.295 210.267H100.557V227.031H108.294C113.052 226.809 115.986 223.874 115.986 218.583C115.987 213.558 113.096 210.491 108.295 210.267ZM108.295 223.163C107.894 223.208 107.45 223.251 107.005 223.251H104.96V214.047H107.005C107.45 214.047 107.894 214.047 108.295 214.136C110.429 214.537 111.63 215.96 111.63 218.538C111.63 221.429 110.651 222.808 108.295 223.163ZM132.662 227.031H137.064V210.267H132.662V227.031ZM162.81 221.073H165.834C165.61 222.629 164.144 223.607 162.009 223.607C159.164 223.607 158.096 221.118 158.096 218.627C158.096 216.182 159.164 213.692 162.009 213.692C163.744 213.692 165.167 214.536 165.301 215.96H169.657C169.257 211.779 165.567 209.912 162.099 209.912C157.029 209.912 153.739 213.779 153.739 218.627C153.739 223.518 157.029 227.387 162.099 227.387C163.654 227.387 165.61 226.81 166.767 225.209L167.035 227.031H169.836V217.826H162.81V221.073ZM186.911 227.031H191.267V210.267H186.911V227.031ZM207.542 214.047H212.523V227.031H216.88V214.047H221.904V210.267H207.542V214.047ZM244.449 210.267H242.271L236.001 227.031H240.493L241.56 224.007H247.384L248.407 227.031H252.989L246.717 210.267H244.449ZM244.449 220.761H242.582L244.449 215.071L244.495 214.936L246.363 220.761H244.449ZM273.709 223.251V210.267H269.35V227.031H281.534V223.251H273.709ZM288.783 163.889C288.497 163.603 288.157 163.377 287.783 163.224C287.409 163.071 287.008 162.995 286.604 163C285.714 163 285.004 163.312 284.38 163.889C283.757 164.512 283.444 165.268 283.444 166.112C283.444 167.003 283.757 167.713 284.38 168.336C284.957 168.96 285.714 169.271 286.604 169.271C287.448 169.271 288.205 168.96 288.783 168.336C289.403 167.713 289.716 166.959 289.716 166.112C289.716 165.267 289.403 164.512 288.783 163.889ZM288.47 168.025C287.981 168.559 287.315 168.826 286.604 168.826C285.848 168.826 285.181 168.559 284.691 168.025C284.158 167.492 283.89 166.869 283.89 166.113C283.89 165.358 284.158 164.736 284.691 164.202C285.224 163.669 285.848 163.402 286.604 163.402C287.315 163.402 287.982 163.668 288.47 164.202C289.003 164.736 289.272 165.358 289.272 166.113C289.272 166.869 289.004 167.491 288.47 168.025Z" fill="#080808"/>
<path fill-rule="evenodd" clip-rule="evenodd" d="M287.982 165.357C287.982 164.956 287.803 164.645 287.449 164.511C287.271 164.423 286.959 164.379 286.605 164.379H285.314V167.802H285.937V166.468H286.605C286.826 166.468 286.96 166.512 287.093 166.556C287.316 166.69 287.404 166.957 287.404 167.356V167.801H287.983V167.756C287.983 167.756 287.939 167.668 287.939 167.579V167.09C287.941 166.898 287.878 166.71 287.76 166.557C287.626 166.379 287.449 166.246 287.137 166.202C287.36 166.202 287.54 166.113 287.672 166.068C287.892 165.89 287.982 165.668 287.982 165.357ZM287.046 165.979C286.958 166.024 286.781 166.024 286.604 166.024H285.937V164.777H286.425C286.515 164.777 286.559 164.777 286.605 164.822C286.826 164.822 287.047 164.867 287.182 164.911C287.315 165 287.403 165.178 287.403 165.444C287.409 165.56 287.378 165.675 287.313 165.771C287.249 165.868 287.155 165.941 287.046 165.979Z" fill="#080808"/>
</svg>
