<svg width="388" height="390" viewBox="0 0 388 390" fill="none" xmlns="http://www.w3.org/2000/svg">
<g clip-path="url(#clip0_8062_3725)">
<path d="M192.385 196.924C192.506 196.947 192.626 196.968 192.746 196.99L192.385 196.924ZM193.371 197.088C193.511 197.109 193.651 197.128 193.792 197.146L193.371 197.088ZM194.413 197.213C194.55 197.226 194.686 197.237 194.823 197.248L194.413 197.213ZM194.97 197.258C195.086 197.266 195.201 197.273 195.317 197.279L194.97 197.258ZM195.486 197.288C195.623 197.294 195.76 197.299 195.897 197.304L195.486 197.288ZM196.033 197.305C196.34 197.314 196.646 197.314 196.952 197.306L196.033 197.305ZM197.099 197.304C197.242 197.3 197.384 197.294 197.527 197.287L197.099 197.304ZM197.662 197.281C197.786 197.274 197.907 197.266 198.03 197.258L197.662 197.281ZM198.158 197.249C198.292 197.239 198.426 197.228 198.559 197.215L198.158 197.249ZM199.246 197.138C199.349 197.126 199.452 197.113 199.554 197.097L199.246 197.138ZM218.061 162.531C217.95 162.471 217.837 162.417 217.72 162.368L218.061 162.531ZM216.944 162.129C216.801 162.1 216.657 162.078 216.512 162.063L216.944 162.129ZM143.753 176.967C143.257 176.511 142.88 175.941 142.655 175.306C142.472 174.776 142.235 174.113 142.235 173.551C142.246 171.014 143.727 169.13 145.32 168.258C146.045 167.862 146.314 167.59 146.424 167.45C146.371 167.427 146.315 167.412 146.257 167.408C144.088 167.408 142.975 166.565 142.429 165.851C141.912 165.183 141.648 164.322 141.648 163.38C141.648 162.922 141.712 162.443 141.839 161.953C142.451 160.943 143.031 161.221 143.387 161.737C143.614 162.061 145.167 163.162 147.08 163.336C148.473 163.468 149.223 164.15 149.614 164.694C150.064 165.323 150.236 166.082 150.236 166.728C150.236 166.992 150.206 167.24 150.15 167.461C149.94 168.312 149.043 169.079 147.795 170.056L147.087 170.643C146.05 171.55 145.479 172.56 145.479 173.416C145.479 173.63 145.517 173.838 145.589 174.03C145.619 174.109 145.655 174.186 145.697 174.258C146.16 175.042 147.47 175.534 149.369 174.87C150.247 174.565 151.937 173.501 152.969 172.478C154.183 171.267 155.804 170.976 157.365 170.853C158.718 170.751 159.551 170.419 160.138 169.759C161.872 167.805 163.541 167.531 165.103 167.414C165.7 167.368 165.733 167.326 165.81 167.22C166.671 166.074 167.556 165.467 168.349 165.114C168.954 164.845 169.507 164.722 169.959 164.623L170.509 164.488L170.646 164.44C171.515 164.16 172.188 163.928 173.957 162.732L174.032 162.685L174.033 162.684L174.107 162.638L174.108 162.637L174.182 162.593L174.184 162.593L174.258 162.55L174.259 162.55L174.334 162.51L174.337 162.509L174.411 162.471L174.413 162.47L174.488 162.434L174.491 162.433L174.566 162.398L174.569 162.397L174.644 162.365L174.648 162.364L174.723 162.333L174.727 162.332L174.802 162.304L174.806 162.302L174.88 162.275L174.96 162.249L174.965 162.247L175.039 162.224L175.044 162.222L175.12 162.201L175.125 162.199L175.199 162.179L175.205 162.177L175.28 162.159L175.287 162.158L175.361 162.141L175.367 162.139L175.442 162.124L175.449 162.122L175.523 162.109L175.53 162.107L175.605 162.095L175.611 162.094L175.685 162.083L175.693 162.082L175.767 162.073L175.775 162.072L175.848 162.063L175.856 162.063L175.93 162.056L175.938 162.055L176.012 162.05L176.02 162.049L176.092 162.045L176.101 162.045L176.174 162.041L176.255 162.039H176.264L176.336 162.038H176.426L176.498 162.039L176.507 162.039H176.515C176.567 162.04 176.618 162.044 176.67 162.047L176.741 162.051L176.751 162.052L176.821 162.057L176.831 162.058L176.901 162.065L176.912 162.066L176.981 162.073L176.993 162.074L177.062 162.082L177.073 162.084L177.141 162.092L177.153 162.094L177.221 162.104L177.232 162.106L177.3 162.117L177.312 162.119L177.379 162.131L177.391 162.133L177.457 162.145L177.469 162.148C177.575 162.168 177.679 162.191 177.781 162.216L177.845 162.232L177.858 162.236C177.961 162.262 178.063 162.291 178.163 162.32L178.222 162.339L178.236 162.343C178.435 162.406 178.627 162.476 178.813 162.551L178.866 162.573L178.934 162.601C182.717 157.462 188.698 154.043 195.495 153.734V153.732C195.829 153.717 196.164 153.709 196.499 153.709C196.721 153.709 196.942 153.712 197.163 153.719C197.273 153.723 197.384 153.727 197.493 153.732H197.494C197.603 153.737 197.713 153.742 197.823 153.749C204.4 154.144 210.192 157.457 213.923 162.409C214.456 162.224 215.036 162.09 215.629 162.049L215.644 162.049L215.7 162.045L215.759 162.042L215.773 162.041L215.788 162.041L215.845 162.039L215.861 162.038L215.918 162.038L215.933 162.038L215.992 162.037H216.006L216.064 162.038H216.079L216.151 162.039L216.21 162.041L216.223 162.042L216.282 162.045L216.296 162.045L216.355 162.049L216.366 162.05L216.426 162.055L216.438 162.056L216.498 162.062L216.509 162.063C216.654 162.078 216.798 162.1 216.941 162.129L217.004 162.142L217.013 162.144L217.075 162.159L217.084 162.161L217.147 162.177L217.155 162.179L217.219 162.196L217.226 162.198L217.291 162.216L217.297 162.218L217.361 162.238L217.368 162.24L217.433 162.261L217.439 162.263L217.509 162.287L217.575 162.311L217.579 162.313L217.644 162.338L217.648 162.34L217.715 162.366L217.719 162.368C217.834 162.417 217.947 162.47 218.06 162.531L218.062 162.532L218.128 162.568L218.129 162.569L218.196 162.607L218.197 162.607L218.263 162.648L218.264 162.648L218.33 162.69L218.397 162.733C219.615 163.561 220.319 163.926 220.92 164.165C221.19 164.272 221.441 164.353 221.707 164.44L221.847 164.488L222.402 164.623C222.703 164.69 223.047 164.766 223.419 164.888C224.35 165.191 225.463 165.78 226.542 167.221C226.62 167.326 226.655 167.369 227.256 167.415C228.816 167.531 230.482 167.806 232.223 169.759C232.805 170.419 233.634 170.751 234.987 170.853C236.557 170.976 238.173 171.267 239.385 172.479C240.418 173.502 242.106 174.566 242.986 174.87C244.885 175.535 246.201 175.043 246.653 174.258C246.752 174.093 246.819 173.911 246.853 173.719C246.87 173.619 246.88 173.518 246.88 173.416C246.88 172.561 246.308 171.551 245.274 170.643L245.146 170.537L244.559 170.056C243.316 169.079 242.419 168.312 242.203 167.461C242.146 167.241 242.121 166.993 242.121 166.728C242.121 166.082 242.298 165.324 242.739 164.694C243.132 164.15 243.891 163.469 245.274 163.337C247.198 163.162 248.742 162.061 248.968 161.738C249.33 161.221 249.905 160.944 250.514 161.953C250.643 162.443 250.708 162.922 250.708 163.38C250.708 164.327 250.443 165.184 249.926 165.852C249.377 166.565 248.268 167.408 246.095 167.408C246.049 167.408 245.985 167.429 245.932 167.451C246.039 167.591 246.308 167.862 247.034 168.258C248.628 169.131 250.11 171.015 250.123 173.551C250.123 174.114 249.889 174.776 249.7 175.306C249.502 175.863 249.189 176.371 248.78 176.798C248.725 176.855 248.667 176.912 248.607 176.967C247.709 177.801 246.214 178.455 243.722 178.307C243.46 178.291 243.198 178.267 242.937 178.236C242.872 179.493 242.528 180.987 242.043 181.741C241.895 181.977 241.866 182.136 241.866 182.214C241.866 182.247 241.869 182.266 241.869 182.279C241.884 182.285 242.975 182.928 242.975 182.928L243.15 183.017C243.15 183.017 243.253 183.065 243.266 183.076C243.282 183.07 243.643 183.054 243.643 183.054L243.714 183.044L243.721 183.043C244.403 182.979 245.444 182.645 245.886 183.881C246.002 184.209 246.072 184.494 246.139 184.747C246.274 185.264 246.39 185.648 246.842 185.997C246.842 185.997 247.066 185.805 247.32 185.579C247.516 185.406 247.709 185.228 247.897 185.046C248.213 184.723 248.796 184.887 249.217 185.046C249.642 185.207 250.169 185.574 250.541 185.786C250.916 185.996 251.122 186.263 251.23 186.581C251.342 186.898 251.602 187.108 251.999 187.319C252.382 187.536 252.932 188.234 252.932 189.176C252.932 189.32 252.948 189.443 252.988 189.574C253.016 189.661 253.054 189.751 253.106 189.854C253.642 190.934 253.212 191.477 252.902 191.706C252.485 192.019 251.749 192.148 251.058 192.035L251.064 192.212L250.054 192.077C249.663 192.029 249.147 192.129 248.839 192.193L248.767 192.212C248.048 192.355 247.108 192.112 246.581 191.254C246.561 191.223 246.542 191.191 246.524 191.157C246.254 190.684 245.835 190.245 245.63 190.123C245.333 190.205 244.865 190.315 244.308 190.258C243.791 190.206 243.194 190.008 242.588 189.505C242.487 189.422 242.386 189.33 242.286 189.23C241.395 188.336 240.219 188.152 239.479 188.266L239.039 188.344C238.129 188.509 236.992 188.718 235.943 188.078C235.681 187.919 235.305 187.754 234.935 187.598C233.982 187.183 232.997 186.756 232.863 185.853C232.84 185.693 232.666 185.399 232.523 185.165C232.397 184.958 232.26 184.732 232.154 184.489C232.052 184.258 231.979 184.011 231.972 183.754C231.66 183.834 231.337 183.867 231.016 183.852C230.902 183.846 230.789 183.835 230.676 183.818L230.262 183.754C229.565 183.635 228.105 183.395 227.64 183.565C226.714 183.899 223.8 184.06 223.001 183.877C223.001 183.877 222.707 183.813 222.43 183.754C222.164 184.029 221.867 184.286 221.555 184.516C222.14 184.548 222.654 184.475 223.008 184.566L223.741 184.76C223.976 184.69 224.549 184.698 224.874 184.728L225.734 184.792L226.715 184.887C227.187 184.982 227.689 185.186 227.603 186.112C227.57 186.397 227.41 186.801 227.17 187.038C227.038 187.183 226.525 187.926 226.413 188.16L226.376 188.233C226.176 188.659 225.88 189.049 225.019 189.049C224.909 189.048 224.8 189.052 224.691 189.062C224.665 189.132 224.594 189.261 224.594 189.261C224.4 189.703 224.12 190.317 223.584 190.672L223.441 190.775C223.011 191.082 222.295 191.588 221.198 191.189L220.821 191.054C219.865 190.71 218.42 190.193 217.69 189.795L217.588 189.738C216.909 189.366 216.758 189.292 216.511 189.326L216.374 189.348C215.853 189.421 214.871 189.553 214.192 188.427L214.13 188.329C210.909 192.749 206.069 195.913 200.483 196.945L200.459 196.951C200.268 196.985 200.077 197.018 199.885 197.048L199.813 197.058L199.551 197.097C199.449 197.112 199.346 197.126 199.243 197.139L199.056 197.162L198.761 197.194L198.556 197.216C198.423 197.228 198.289 197.239 198.155 197.249L198.028 197.258C197.905 197.266 197.783 197.274 197.659 197.281L197.525 197.288C197.382 197.295 197.24 197.3 197.096 197.305L196.951 197.307C196.644 197.315 196.338 197.314 196.032 197.306L195.895 197.305C195.757 197.3 195.62 197.295 195.483 197.289L195.316 197.28C195.2 197.273 195.084 197.267 194.968 197.258L194.821 197.249C194.684 197.238 194.547 197.226 194.411 197.214L194.208 197.193L193.94 197.164L193.79 197.147C193.65 197.129 193.509 197.11 193.369 197.088L193.199 197.063L192.899 197.016L192.745 196.99C192.624 196.969 192.504 196.948 192.383 196.925L192.123 196.873L191.99 196.846C191.812 196.807 191.633 196.769 191.457 196.726L191.41 196.715L191.132 196.647L190.989 196.611C190.824 196.568 190.659 196.522 190.494 196.476L190.435 196.459C185.537 195.046 181.352 191.961 178.53 187.864L178.159 188.429C177.486 189.555 176.506 189.423 175.978 189.35L175.841 189.329C175.595 189.294 175.439 189.369 174.766 189.741L174.658 189.797C173.931 190.196 172.491 190.712 171.53 191.057L171.152 191.192C170.056 191.59 169.337 191.083 168.916 190.777L168.768 190.675C168.232 190.32 167.954 189.705 167.757 189.264C167.757 189.264 167.693 189.134 167.661 189.065C167.552 189.055 167.443 189.05 167.333 189.052C166.479 189.052 166.175 188.661 165.978 188.236L165.944 188.163C165.828 187.929 165.322 187.185 165.182 187.04C164.945 186.804 164.777 186.399 164.75 186.114C164.662 185.188 165.17 184.984 165.638 184.889L166.619 184.795L167.481 184.73C167.801 184.701 168.374 184.693 168.608 184.762L169.343 184.569C169.693 184.477 170.212 184.55 170.792 184.518C170.484 184.285 170.192 184.03 169.919 183.756C169.639 183.815 169.348 183.88 169.348 183.88C168.547 184.063 165.638 183.901 164.718 183.567C164.25 183.398 162.791 183.637 162.091 183.756L161.671 183.821C161.242 183.886 160.804 183.865 160.384 183.756C160.362 184.284 160.076 184.762 159.832 185.167C159.689 185.401 159.509 185.695 159.487 185.856C159.361 186.758 158.364 187.186 157.414 187.601C157.045 187.757 156.674 187.921 156.411 188.08C155.369 188.721 154.227 188.511 153.314 188.346L152.872 188.268C152.137 188.155 150.961 188.338 150.067 189.232C148.701 190.595 147.342 190.295 146.723 190.126C146.519 190.247 146.096 190.686 145.829 191.159C145.313 192.096 144.327 192.363 143.584 192.215L143.509 192.195C143.204 192.131 142.695 192.031 142.305 192.08L141.29 192.215L141.301 192.037C140.606 192.15 139.868 192.021 139.449 191.709C139.142 191.48 138.71 190.936 139.255 189.857C139.381 189.598 139.424 189.418 139.424 189.178C139.424 188.236 139.969 187.539 140.351 187.321C140.752 187.111 141.016 186.901 141.123 186.583C141.228 186.265 141.435 185.999 141.81 185.789C142.181 185.576 142.709 185.21 143.132 185.049C143.554 184.89 144.138 184.726 144.456 185.049C144.776 185.361 145.511 185.999 145.511 185.999C146.185 185.478 146.12 184.879 146.469 183.882C146.906 182.647 147.951 182.98 148.629 183.045L148.707 183.056C148.707 183.056 149.073 183.072 149.084 183.078C149.103 183.067 149.205 183.018 149.205 183.018L149.375 182.929C149.375 182.929 150.47 182.286 150.481 182.281C150.486 182.268 150.486 182.248 150.486 182.216C150.486 182.138 150.459 181.979 150.311 181.742C149.824 180.988 149.48 179.494 149.417 178.237C149.241 178.258 149.072 178.276 148.905 178.289C146.252 178.502 144.676 177.831 143.753 176.967Z" fill="#080808"/>
<path d="M150.284 177.318C150.284 177.318 150.063 179.458 151.026 181.343C151.026 181.343 151.741 182.355 150.999 183.005L149.523 183.863C149.523 183.863 149.324 184.011 148.666 183.961C148.666 183.961 147.755 183.736 147.451 184.138C147.451 184.138 147.187 184.911 146.857 185.548C146.857 185.548 146.184 187.092 145.072 187.587C145.072 187.587 144.185 187.79 143.916 188.559C143.916 188.559 143.63 189.099 143.057 189.123C143.057 189.123 142.63 189.258 142.348 190.21C142.348 190.21 142.194 190.825 142.202 191.297C142.202 191.297 142.93 191.201 143.405 191.373C143.405 191.373 144.572 191.765 145.094 190.804C145.094 190.804 146.102 189.077 146.849 189.337C146.849 189.337 148.351 189.839 149.412 188.743C149.412 188.743 150.869 187.152 152.927 187.479C152.927 187.479 155.245 187.948 155.968 187.414C155.968 187.414 157.429 186.65 157.978 186.46C157.978 186.46 158.649 186.263 158.718 185.528C158.718 185.528 159.126 184.494 159.423 184.15L158.317 184.138C158.317 184.138 157.316 185.822 155.615 186.329C155.615 186.329 154.684 186.701 152.817 186.399C152.817 186.399 150.136 185.792 147.78 188.335C147.78 188.335 147.459 188.8 146.999 188.614C146.999 188.614 148.301 186.395 151.158 185.869C151.158 185.869 152.093 185.67 152.873 185.797C152.873 185.797 156.721 185.91 158.506 182.121C158.506 182.121 158.313 178.891 159.165 178.126C159.165 178.126 159.494 178.025 159.428 178.65C159.428 178.65 158.843 182.034 159.942 182.689C159.942 182.689 160.581 183.191 161.762 183.005C161.762 183.005 163.552 182.577 165.008 182.827C165.008 182.827 167.246 183.358 169.169 183.112C169.169 183.112 168.67 182.347 168.768 181.433C168.768 181.433 169.043 180.779 169.359 181.2C169.359 181.2 170.099 183.644 172.121 184.378C172.121 184.378 173.928 185.036 173.898 187.327C173.898 187.327 173.621 187.641 171.226 188.492C171.226 188.492 170.332 188.774 170.043 188.106C170.043 188.106 168.888 185.634 167.883 185.71L165.995 185.863C165.995 185.863 165.351 186.028 165.825 186.544C165.825 186.544 166.472 187.404 166.736 187.917C166.736 187.917 166.813 188.355 167.42 188.262C167.42 188.262 168.263 187.844 168.738 189.412C168.738 189.412 169.173 190.195 169.909 190.446C169.909 190.446 170.597 190.675 171.243 190.313C171.243 190.313 174.361 189.168 174.903 188.763C174.903 188.763 175.578 188.385 176.112 188.567C176.112 188.567 177.048 188.79 177.433 188.052L178.399 186.557C178.399 186.557 178.611 186.189 178.582 185.726C178.582 185.726 178.669 185.268 178.283 184.802C178.283 184.802 177.918 184.416 177.86 184.137L177.171 182.518C177.171 182.518 176.892 182.086 176.586 181.908L175.666 181.975C175.666 181.975 176.299 183.592 176.763 184.251C176.763 184.251 177.39 185.21 177.358 185.82C177.358 185.82 177.316 186.247 177.148 186.426C177.148 186.426 176.936 186.765 176.85 186.93C176.85 186.93 176.571 187.535 176.345 187.669C176.345 187.669 175.954 187.901 175.859 187.91C175.859 187.91 175.689 187.957 175.815 187.652C175.815 187.652 176.33 186.568 176.296 185.988C176.296 185.988 176.396 185.384 175.969 185.03C175.969 185.03 174.967 183.449 174.824 182.977C174.824 182.977 174.509 182.344 174.342 182.236C174.342 182.236 173.992 181.776 174.557 181.56C174.557 181.56 175.964 181.243 176.216 181.07C176.216 181.07 176.893 180.865 177.333 179.456C177.333 179.456 177.938 177.812 177.929 176.797C177.929 176.797 179.116 179.085 177.223 181.411C177.223 181.411 178.721 181.852 179.34 181.411C179.34 181.411 181.205 181.138 181.565 181.039C181.565 181.039 182.034 180.926 181.767 181.258C181.767 181.258 181.204 182.058 181.157 182.583C181.157 182.583 181.12 183 180.778 183.244C180.778 183.244 179.718 183.987 179.625 184.698C179.625 184.698 179.398 185.382 179.866 185.218C179.866 185.218 180.501 184.924 180.725 185.22C180.725 185.22 180.791 185.251 180.546 185.526C180.546 185.526 179.91 186.08 179.862 186.824C179.862 186.824 179.98 187.682 180.205 187.958C180.205 187.958 180.492 188.355 180.945 188.229C180.945 188.229 181.065 188.132 181.282 188.197C181.282 188.197 181.506 188.196 182.092 187.994C182.092 187.994 182.979 187.75 183.276 187.645C183.276 187.645 184.406 187.241 184.963 187.269C184.963 187.269 185.326 187.229 185.788 187.322C185.788 187.322 187.201 187.482 188.143 186.441C188.143 186.441 188.859 185.873 189.103 186.425C189.103 186.425 190.822 188.732 193.604 188.124C193.604 188.124 191.39 187.213 190.816 185.973C190.816 185.973 190.739 184.92 189.58 183.458C189.58 183.458 189.225 182.973 189.567 182.847C189.567 182.847 189.765 182.699 190.197 183.132C190.197 183.132 191.299 184.189 191.697 185.157C191.697 185.157 193.065 187.224 195.037 186.529C195.037 186.529 193.489 185.932 192.761 184.818C192.761 184.818 192.312 183.311 190.8 182.189C190.8 182.189 190.741 180.495 190.036 179.543C190.036 179.543 189.677 177.952 189.58 177.58C189.58 177.58 189.2 176.183 189.202 175.797C189.202 175.797 189.328 173.972 188.151 172.551C188.151 172.551 187.363 171.031 186.135 169.972C186.135 169.972 185.202 168.819 184.508 168.113C184.508 168.113 183.595 167.043 181.604 165.647C181.604 165.647 180.703 164.991 180.043 164.287C180.043 164.287 176.531 161.759 173.995 163.787C173.995 163.787 172.243 164.978 170.78 165.347C170.78 165.347 167.773 165.697 166.491 167.784C166.491 167.784 166.382 168.17 165.17 168.317C165.17 168.317 162.508 167.995 160.548 170.613C160.548 170.613 159.637 171.502 157.835 171.718C157.835 171.718 154.895 171.417 152.981 173.671C152.981 173.671 148.151 177.884 145.272 175.152C145.272 175.152 143.78 173.739 145.485 171.181C145.485 171.181 146.567 169.876 148.413 168.511C148.413 168.511 149.911 167.456 149.224 165.816C149.224 165.816 148.862 164.232 146.617 164.19C146.617 164.19 143.801 163.646 142.663 162.224C142.663 162.224 141.391 166.702 146.382 166.627C146.382 166.627 147.682 166.82 147.228 167.852C147.228 167.852 146.59 168.735 145.735 169.057C145.735 169.057 144.229 169.715 143.549 171.907C143.549 171.907 142.029 175.745 145.738 177.226C147.165 177.719 148.814 177.574 150.284 177.318ZM143.142 186.361C143.343 186.193 143.638 186.098 143.9 186.16C144.49 186.287 144.133 186.798 144.133 186.798C143.894 187.245 143.113 188 143.113 188C142.419 188.519 141.87 187.9 141.87 187.9C141.356 187.394 142.025 187.148 142.025 187.148C142.414 186.99 143.142 186.361 143.142 186.361ZM141.654 188.76C141.654 188.76 141.87 188.919 141.754 189.234C141.754 189.234 141.204 190.742 141.229 191.248C141.229 191.248 140.01 191.465 139.841 190.864C139.841 190.864 139.809 190.631 140.008 190.295C140.008 190.295 140.214 189.981 140.268 189.406C140.268 189.406 140.25 187.96 141.187 188.343C141.373 188.447 141.519 188.598 141.654 188.76ZM184.622 185.7C184.408 185.695 184.353 185.616 184.379 185.38C184.523 184.723 185.05 184.439 185.05 184.439C186.038 183.849 186.158 184.44 186.158 184.44C186.339 185.495 185.505 185.627 185.505 185.627C185.339 185.685 184.622 185.7 184.622 185.7ZM187.603 180.99C187.621 180.496 187.663 179.396 187.16 179.003C186.974 178.856 186.241 178.052 186.241 178.052C186.129 177.857 186.043 177.845 186.043 177.845C185.892 177.83 185.697 178.182 185.697 178.182C185.174 179.191 184.652 179.068 184.652 179.068C184.648 178.884 184.771 178.679 184.771 178.679C185.023 178.189 185.273 177.697 185.521 177.205C185.597 177.03 185.667 176.797 185.667 176.797C186.172 176.015 186.647 176.61 186.647 176.61C186.859 177.024 187.99 178.374 187.99 178.374C188.241 178.672 188.265 178.993 188.265 178.993C188.527 180.841 187.603 180.99 187.603 180.99ZM177.184 169.834C177.03 169.556 177.094 169.272 177.249 169.002C177.599 168.466 177.926 169.051 177.926 169.051C179.135 170.736 178.242 173.258 178.242 173.258C178.118 170.937 177.184 169.834 177.184 169.834ZM242.075 177.318C242.075 177.318 242.296 179.458 241.333 181.343C241.333 181.343 240.618 182.355 241.36 183.005L242.837 183.863C242.837 183.863 243.035 184.011 243.694 183.961C243.694 183.961 244.603 183.736 244.907 184.138C244.907 184.138 245.172 184.911 245.502 185.548C245.502 185.548 246.175 187.092 247.288 187.587C247.288 187.587 248.174 187.79 248.443 188.559C248.443 188.559 248.729 189.099 249.301 189.123C249.301 189.123 249.729 189.258 250.011 190.21C250.011 190.21 250.166 190.825 250.158 191.297C250.158 191.297 249.429 191.201 248.954 191.373C248.954 191.373 247.788 191.765 247.266 190.804C247.266 190.804 246.258 189.077 245.51 189.337C245.51 189.337 244.009 189.839 242.948 188.743C242.948 188.743 241.491 187.152 239.433 187.479C239.433 187.479 237.116 187.948 236.392 187.414C236.392 187.414 234.93 186.65 234.382 186.46C234.382 186.46 233.71 186.263 233.642 185.528C233.642 185.528 233.233 184.494 232.936 184.15L234.042 184.138C234.042 184.138 235.043 185.822 236.744 186.329C236.744 186.329 237.675 186.701 239.542 186.399C239.542 186.399 242.224 185.792 244.579 188.335C244.579 188.335 244.901 188.8 245.36 188.614C245.36 188.614 244.059 186.395 241.201 185.869C241.201 185.869 240.267 185.67 239.486 185.797C239.486 185.797 235.638 185.91 233.852 182.121C233.852 182.121 234.046 178.891 233.194 178.126C233.194 178.126 232.866 178.025 232.93 178.65C232.93 178.65 233.516 182.034 232.417 182.689C232.417 182.689 231.778 183.191 230.597 183.005C230.597 183.005 228.807 182.577 227.352 182.827C227.352 182.827 225.113 183.358 223.189 183.112C223.189 183.112 223.689 182.347 223.591 181.433C223.591 181.433 223.315 180.779 223 181.2C223 181.2 222.26 183.644 220.237 184.378C220.237 184.378 218.431 185.036 218.46 187.327C218.46 187.327 218.737 187.641 221.133 188.492C221.133 188.492 222.028 188.774 222.316 188.106C222.316 188.106 223.47 185.634 224.476 185.71L226.364 185.863C226.364 185.863 227.008 186.028 226.533 186.544C226.533 186.544 225.888 187.404 225.623 187.917C225.623 187.917 225.547 188.355 224.939 188.262C224.939 188.262 224.096 187.844 223.621 189.412C223.621 189.412 223.187 190.195 222.451 190.446C222.451 190.446 221.762 190.675 221.116 190.313C221.116 190.313 217.999 189.168 217.456 188.763C217.456 188.763 216.782 188.385 216.247 188.567C216.247 188.567 215.313 188.79 214.928 188.052L213.962 186.557C213.962 186.557 213.749 186.189 213.778 185.726C213.778 185.726 213.691 185.268 214.077 184.802C214.077 184.802 214.443 184.416 214.5 184.137L215.189 182.518C215.189 182.518 215.468 182.086 215.774 181.908L216.694 181.975C216.694 181.975 216.061 183.592 215.597 184.251C215.597 184.251 214.97 185.21 215.002 185.82C215.002 185.82 215.044 186.247 215.212 186.426C215.212 186.426 215.424 186.765 215.51 186.93C215.51 186.93 215.788 187.535 216.015 187.669C216.015 187.669 216.405 187.901 216.501 187.91C216.501 187.91 216.671 187.957 216.544 187.652C216.544 187.652 216.03 186.568 216.063 185.988C216.063 185.988 215.963 185.384 216.39 185.03C216.39 185.03 217.393 183.449 217.537 182.977C217.537 182.977 217.85 182.344 218.018 182.236C218.018 182.236 218.368 181.776 217.803 181.56C217.803 181.56 216.396 181.243 216.144 181.07C216.144 181.07 215.467 180.865 215.027 179.456C215.027 179.456 214.422 177.812 214.431 176.797C214.431 176.797 213.244 179.085 215.137 181.411C215.137 181.411 213.639 181.852 213.02 181.411C213.02 181.411 211.155 181.138 210.794 181.039C210.794 181.039 210.326 180.926 210.593 181.258C210.593 181.258 211.155 182.058 211.204 182.583C211.204 182.583 211.239 183 211.582 183.244C211.582 183.244 212.642 183.987 212.734 184.698C212.734 184.698 212.961 185.382 212.493 185.218C212.493 185.218 211.858 184.924 211.634 185.22C211.634 185.22 211.569 185.251 211.813 185.526C211.813 185.526 212.45 186.08 212.497 186.824C212.497 186.824 212.38 187.682 212.154 187.958C212.154 187.958 211.868 188.355 211.414 188.229C211.414 188.229 211.295 188.132 211.077 188.197C211.077 188.197 210.853 188.196 210.267 187.994C210.267 187.994 209.38 187.75 209.083 187.645C209.083 187.645 207.953 187.241 207.395 187.269C207.395 187.269 207.033 187.229 206.57 187.322C206.57 187.322 205.157 187.482 204.215 186.441C204.215 186.441 203.499 185.873 203.256 186.425C203.256 186.425 201.537 188.732 198.754 188.124C198.754 188.124 200.969 187.213 201.543 185.973C201.543 185.973 201.619 184.92 202.779 183.458C202.779 183.458 203.133 182.973 202.791 182.847C202.791 182.847 202.593 182.699 202.161 183.132C202.161 183.132 201.06 184.189 200.662 185.157C200.662 185.157 199.293 187.224 197.321 186.529C197.321 186.529 198.869 185.932 199.596 184.818C199.596 184.818 200.046 183.311 201.559 182.189C201.559 182.189 201.618 180.495 202.323 179.543C202.323 179.543 202.683 177.952 202.779 177.58C202.779 177.58 203.158 176.183 203.156 175.797C203.156 175.797 203.03 173.972 204.207 172.551C204.207 172.551 204.995 171.031 206.224 169.972C206.224 169.972 207.157 168.819 207.851 168.113C207.851 168.113 208.764 167.043 210.755 165.647C210.755 165.647 211.656 164.991 212.315 164.287C212.315 164.287 215.826 161.759 218.364 163.787C218.364 163.787 220.115 164.978 221.579 165.347C221.579 165.347 224.585 165.697 225.866 167.784C225.866 167.784 225.976 168.17 227.188 168.317C227.188 168.317 229.85 167.995 231.81 170.613C231.81 170.613 232.721 171.502 234.524 171.718C234.524 171.718 237.462 171.417 239.376 173.671C239.376 173.671 244.206 177.884 247.086 175.152C247.086 175.152 248.577 173.739 246.872 171.181C246.872 171.181 245.79 169.876 243.945 168.511C243.945 168.511 242.446 167.456 243.133 165.816C243.133 165.816 243.496 164.232 245.74 164.19C245.74 164.19 248.556 163.646 249.695 162.224C249.695 162.224 250.967 166.702 245.976 166.627C245.976 166.627 244.675 166.82 245.129 167.852C245.129 167.852 245.767 168.735 246.623 169.057C246.623 169.057 248.128 169.715 248.809 171.907C248.809 171.907 250.329 175.745 246.619 177.226C245.193 177.719 243.544 177.574 242.075 177.318ZM249.217 186.361C249.016 186.193 248.721 186.098 248.46 186.16C247.869 186.287 248.226 186.798 248.226 186.798C248.466 187.245 249.246 188 249.246 188C249.941 188.519 250.49 187.9 250.49 187.9C251.003 187.394 250.334 187.148 250.334 187.148C249.945 186.99 249.217 186.361 249.217 186.361ZM250.704 188.76C250.704 188.76 250.49 188.919 250.604 189.234C250.604 189.234 251.155 190.742 251.129 191.248C251.129 191.248 252.349 191.465 252.517 190.864C252.517 190.864 252.55 190.631 252.351 190.295C252.351 190.295 252.145 189.981 252.091 189.406C252.091 189.406 252.109 187.96 251.173 188.343C250.986 188.447 250.84 188.598 250.704 188.76ZM207.736 185.7C207.951 185.695 208.006 185.616 207.98 185.38C207.835 184.723 207.31 184.439 207.31 184.439C206.322 183.849 206.201 184.44 206.201 184.44C206.021 185.495 206.854 185.627 206.854 185.627C207.02 185.685 207.736 185.7 207.736 185.7ZM204.757 180.99C204.738 180.496 204.696 179.396 205.199 179.003C205.386 178.856 206.119 178.052 206.119 178.052C206.23 177.857 206.316 177.845 206.316 177.845C206.467 177.83 206.663 178.182 206.663 178.182C207.185 179.191 207.707 179.068 207.707 179.068C207.711 178.884 207.587 178.679 207.587 178.679C207.335 178.189 207.086 177.697 206.838 177.205C206.783 177.071 206.734 176.935 206.692 176.797C206.187 176.015 205.712 176.61 205.712 176.61C205.5 177.024 204.369 178.374 204.369 178.374C204.22 178.549 204.124 178.764 204.093 178.993C203.832 180.841 204.757 180.99 204.757 180.99ZM215.175 169.834C215.329 169.556 215.265 169.272 215.11 169.002C214.76 168.466 214.434 169.051 214.434 169.051C213.225 170.736 214.117 173.258 214.117 173.258C214.241 170.937 215.175 169.834 215.175 169.834Z" fill="#F5F8FA"/>
<path d="M126 204.748V235.655H132.237V210.647H135.175C135.175 210.647 139.762 210.44 139.762 214.616C139.762 218.791 135.689 218.687 135.689 218.687H134.194V225.801L140.432 235.656H147.75L139.04 223.019C139.04 223.019 146.205 222.4 146.205 214.617C146.205 206.834 140.792 204.75 133.577 204.75L126 204.748ZM217.181 219.205C217.181 219.205 219.912 217.08 219.912 213.054C219.912 209.027 216.987 205.396 210.758 205.396H200.326V235.656H213.175C213.175 235.656 222.385 235.551 222.385 227.229C222.385 222.398 220.509 220.548 217.181 219.205ZM212.155 230.389H206.564V210.672H209.552C209.552 210.672 213.614 210.367 213.614 213.911C213.614 217.454 210.383 217.142 210.383 217.142H208.522V222.453H212.154C213.106 222.453 216.14 222.915 216.14 226.406C216.139 229.896 212.155 230.389 212.155 230.389ZM256.509 204.141H262.333V235.656H256.509V204.141ZM246.484 204.141H252.386V235.656H246.484V204.141ZM224.14 217.194H230.118V227.76C230.118 227.76 230.326 231.318 233.675 231.318C237.024 231.318 236.975 227.76 236.975 227.76V217.244H243.004V228.122C243.004 228.122 243.778 236.626 233.829 236.626C223.882 236.626 224.14 229.152 224.14 227.812V217.194ZM184.503 204.141V218.432C184.503 218.432 181.617 216.216 178.316 216.216C175.018 216.216 169.452 218.535 169.452 225.853C169.452 233.172 174.194 235.957 178.265 235.957C182.338 235.957 184.606 233.276 184.606 233.276V235.656H190.481V204.141L184.503 204.141ZM179.966 230.801C179.657 230.801 175.791 230.853 175.791 226.111C175.791 221.368 180.017 221.214 180.017 221.214C180.017 221.214 184.76 221.368 184.76 226.007C184.76 230.647 180.275 230.801 179.966 230.801ZM157.699 216.215C167.699 216.215 167.286 225.957 167.286 225.957V227.502H153.731C153.731 229.718 155.586 231.626 158.112 231.626C160.637 231.626 161.926 229.203 161.926 229.203L166.719 231.574C164.503 234.925 161.513 236.264 158.163 236.264C147.751 236.264 147.545 227.606 147.545 226.524C147.545 225.44 147.701 216.215 157.699 216.215ZM153.833 223.945H161.256C161.256 223.945 160.947 220.442 157.597 220.442C154.246 220.441 153.833 223.945 153.833 223.945Z" fill="#080808"/>
</g>
<defs>
<clipPath id="clip0_8062_3725">
<rect width="136.333" height="136.333" fill="white" transform="translate(126 127)"/>
</clipPath>
</defs>
</svg>
