<svg width="388" height="390" viewBox="0 0 388 390" fill="none" xmlns="http://www.w3.org/2000/svg">
<g clip-path="url(#clip0_8062_3739)">
<path d="M131 170V173.421H155.455V170H131ZM158.919 170V173.421H193.769C193.769 173.421 190.209 170 185.494 170H158.919ZM200.605 170V173.421H221.688L220.437 170H200.605ZM236.804 170L235.552 173.421H256.444V170H236.804ZM131 176.652V180.073H155.455V176.652H131ZM158.919 176.657V180.073H197.813C197.813 180.073 197.358 177.441 196.566 176.657H158.919ZM200.605 176.657V180.073H224L222.841 176.657H200.605ZM234.301 176.657L233.143 180.073H256.444V176.657H234.301ZM138.028 183.305V186.731H148.618V183.305H138.028ZM165.947 183.305V186.731H176.538V183.305H165.947ZM186.839 183.305V186.731H197.43C197.43 186.731 198.102 184.921 198.102 183.305H186.839ZM207.633 183.305V186.731H226.409L225.158 183.305H207.633ZM231.994 183.305L230.738 186.731H249.608V183.305H231.994ZM138.028 189.962V193.383H148.618V189.962H138.028ZM165.947 189.962V193.383H192.998C192.998 193.383 195.261 191.628 195.982 189.962H165.947ZM207.633 189.962V193.383H218.224V191.479L218.896 193.383H238.296L239.017 191.479V193.383H249.608V189.962H229.727L228.672 192.86L227.612 189.962H207.633ZM138.028 196.615V200.036H148.618V196.615H138.028ZM165.947 196.615V200.036H195.982C195.261 198.376 192.998 196.615 192.998 196.615H165.947ZM207.633 196.615V200.036H218.224V196.615H207.633ZM220.147 196.615L221.428 200.036H235.974L237.191 196.615H220.147ZM239.017 196.615V200.036H249.608V196.615H239.017ZM138.028 203.267V206.688H148.618V203.267H138.028ZM165.947 203.267V206.688H176.538V203.267H165.947ZM186.839 203.267V206.688H198.102C198.102 205.074 197.43 203.267 197.43 203.267H186.839ZM207.633 203.267V206.688H218.224V203.267H207.633ZM222.552 203.267L223.794 206.688H233.545L234.797 203.267H222.552ZM239.017 203.267V206.688H249.608V203.267H239.017ZM131.191 209.92V213.345H155.646V209.92H131.191ZM158.919 209.92V213.345H196.566C197.358 212.561 197.813 209.92 197.813 209.92H158.919ZM200.796 209.92V213.345H218.224V209.92H200.796ZM224.962 209.92L226.238 213.345H231.199L232.397 209.92H224.962ZM239.017 209.92V213.345H256.636V209.92H239.017ZM131.191 216.577V219.998H155.646V216.577H131.191ZM158.919 216.577V219.993H185.494C190.209 219.993 193.769 216.577 193.769 216.577H158.919ZM200.796 216.577V219.998H218.224V216.577H200.796ZM227.381 216.577L228.608 219.988L228.819 219.993L230.066 216.577H227.381ZM239.017 216.577V219.998H256.636V216.577H239.017Z" fill="#080808"/>
</g>
<defs>
<clipPath id="clip0_8062_3739">
<rect width="125.636" height="49.9978" fill="white" transform="translate(131 170)"/>
</clipPath>
</defs>
</svg>
