<svg width="478" height="390" viewBox="0 0 478 390" fill="none" xmlns="http://www.w3.org/2000/svg">
<path d="M258.509 151.658C266.357 151.658 272.723 184.767 272.723 225.655H284.174C284.174 181.634 272.622 146 258.476 146C250.392 146 243.252 156.677 238.537 173.45C233.821 156.677 226.681 146 218.665 146C204.519 146 193 181.601 193 225.622H204.452C204.452 184.733 210.75 151.658 218.597 151.658C226.445 151.658 232.811 182.241 232.811 219.963H244.195C244.195 182.241 250.594 151.658 258.442 151.658" fill="#080808"/>
<path fill-rule="evenodd" clip-rule="evenodd" d="M212.783 234.998C209.83 234.998 207.973 237.054 207.973 239.927C207.973 242.697 210.025 244.561 212.783 244.561C215.224 244.561 217.133 243.168 217.398 240.746H214.482C214.339 241.705 213.809 242.296 212.765 242.296C211.492 242.296 210.979 241.095 210.979 239.927C210.979 238.674 211.245 237.262 212.925 237.262C213.684 237.262 214.374 237.804 214.393 238.57H217.309C217.098 236.183 215.065 234.998 212.783 234.998ZM245.003 234.998C243.701 234.998 242.786 235.587 242.239 236.535H242.202V235.26H239.286V244.3H242.291V239.606C242.291 238.286 242.869 237.435 243.918 237.435C245.477 237.435 245.421 238.69 245.421 239.926V244.3H248.428V238.499C248.428 237.192 248.062 234.998 245.003 234.998ZM253.778 234.998C252.734 234.998 251.673 235.173 250.859 235.627C250.046 236.095 249.48 236.863 249.427 238.047H252.239C252.381 237.28 252.911 236.916 253.742 236.916C254.362 236.916 255.192 237.174 255.192 237.854C255.192 238.413 254.909 238.586 254.397 238.691C252.31 239.108 249.056 238.882 249.056 241.825C249.056 243.69 250.436 244.56 252.185 244.56C253.283 244.56 254.433 244.247 255.21 243.446C255.246 243.742 255.28 244.02 255.386 244.3H258.411C258.058 243.586 258.058 242.749 258.058 241.982V238.028C258.058 235.469 255.952 234.998 253.778 234.998H253.778ZM255.157 240.067C255.228 241.931 254.749 242.731 253.318 242.731C252.646 242.731 252.063 242.434 252.063 241.705C252.063 240.989 252.629 240.71 253.301 240.554C253.956 240.38 254.733 240.329 255.157 240.067L255.157 240.067ZM259.039 233.245V244.3H262.045V233.245L259.039 233.245ZM269.201 233.245V236.236H269.164C268.545 235.417 267.679 234.999 266.547 234.999C263.947 234.999 262.674 237.228 262.674 239.579C262.674 242.122 263.895 244.561 266.777 244.561C267.838 244.561 268.722 244.108 269.306 243.254H269.34V244.3H272.207V233.245H269.201ZM267.519 237.263C268.828 237.263 269.306 238.466 269.306 239.771C269.306 240.92 268.988 242.296 267.519 242.296C266.14 242.296 265.681 240.92 265.681 239.684C265.681 238.535 266.14 237.263 267.519 237.263ZM272.834 233.245V236.235H274.241L275.645 233.245H272.834ZM218.027 233.245V244.3H222.853C226.264 244.3 228.355 242.349 228.355 238.727C228.355 235.304 226.295 233.245 222.853 233.245H218.027ZM221.23 235.808H222.581C224.328 235.808 225.111 236.958 225.111 238.719C225.111 240.655 224.479 241.738 222.581 241.738H221.23V235.808ZM195.319 233.229L193 244.3H196.311L197.164 239.904C197.255 239.418 197.333 238.93 197.397 238.44H197.43C197.483 238.746 197.617 239.352 197.753 239.869L198.956 244.3H202.247L203.448 239.869C203.584 239.352 203.719 238.746 203.77 238.44H203.805C203.835 238.675 203.927 239.337 204.038 239.904L204.891 244.3H208.201L205.883 233.229H202.374L200.968 238.79C200.85 239.221 200.705 239.919 200.617 240.283H200.584C200.495 239.919 200.351 239.221 200.234 238.79L198.827 233.229H195.319ZM233.811 234.998C230.848 234.998 228.982 237.072 228.982 239.788C228.982 242.504 230.847 244.577 233.811 244.577C236.774 244.577 238.639 242.505 238.639 239.788C238.639 237.072 236.775 234.998 233.811 234.998ZM233.811 237.262C235.11 237.262 235.632 238.341 235.632 239.788C235.632 241.236 235.11 242.313 233.811 242.313C232.511 242.313 231.989 241.236 231.989 239.788C231.989 238.34 232.51 237.262 233.811 237.262ZM279.221 234.997C277.442 234.997 275.007 235.589 275.007 237.767C275.007 240.206 277.424 240.257 279.292 240.727C279.814 240.85 280.74 240.989 280.74 241.686C280.74 242.401 279.919 242.645 279.343 242.645C278.924 242.645 278.563 242.54 278.284 242.331C277.987 242.103 277.796 241.772 277.796 241.32H274.928C275.015 243.847 277.214 244.56 279.361 244.56C281.404 244.56 283.785 243.758 283.785 241.338C283.785 240.589 283.315 239.265 281.482 238.898C280.12 238.604 278.053 238.447 278.053 237.593C278.053 236.965 278.839 236.913 279.326 236.913C279.694 236.913 279.985 236.983 280.23 237.14C280.474 237.297 280.614 237.54 280.614 237.923H283.393C283.289 235.572 281.211 234.997 279.221 234.997Z" fill="#080808"/>
</svg>
